<svg width="362" height="362" viewBox="0 0 362 362" fill="none" xmlns="http://www.w3.org/2000/svg">
<path d="M181.401 354.384C277.492 354.384 355.389 314.072 355.389 264.344C355.389 214.616 277.492 174.304 181.401 174.304C85.3108 174.304 7.41406 214.616 7.41406 264.344C7.41406 314.072 85.3108 354.384 181.401 354.384Z" fill="#F5F5F5"/>
<path d="M76.7999 32.677L70.155 36.5135C70.1883 36.2166 70.2108 35.922 70.2108 35.6338V33.7087C70.2108 30.2834 67.8056 28.8948 64.8387 30.6071C63.6376 31.3007 62.532 32.3997 61.6372 33.6855C61.1514 29.3784 57.7717 27.7733 53.6674 30.143C49.2293 32.7052 45.631 38.9374 45.631 44.0626V46.9427C45.631 48.2698 45.8764 49.3884 46.3115 50.2789L40.7925 53.4652C39.1468 54.4151 37.8125 56.7261 37.8125 58.6259C37.8125 60.5264 39.1468 61.296 40.7925 60.3461L76.7992 39.5572C78.4448 38.6073 79.7792 36.2963 79.7792 34.3965C79.7792 32.4974 78.4456 31.7271 76.7999 32.677Z" fill="#EBEBEB"/>
<path d="M108.774 47.0723L103.76 49.9675C103.784 49.7438 103.802 49.5216 103.802 49.3036V47.8506C103.802 45.2652 101.987 44.2175 99.7481 45.5099C98.8416 46.0333 98.0069 46.863 97.3321 47.8332C96.965 44.5824 94.4151 43.3712 91.3171 45.1602C87.9679 47.094 85.2522 51.7971 85.2522 55.6654V57.8389C85.2522 58.8409 85.4375 59.6843 85.7655 60.3569L81.6003 62.7621C80.3586 63.4796 79.3516 65.223 79.3516 66.6572C79.3516 68.0914 80.3586 68.6728 81.6003 67.9553L108.775 52.2662C110.017 51.5495 111.024 49.8054 111.024 48.3711C111.023 46.9362 110.017 46.3555 108.774 47.0723Z" fill="#EBEBEB"/>
<path d="M262.998 277.69C249.063 285.735 249.063 298.78 262.999 306.826C276.934 314.871 299.528 314.871 313.463 306.826C327.398 298.78 327.398 285.736 313.462 277.69C299.527 269.644 276.933 269.644 262.998 277.69Z" fill="#E0E0E0"/>
<path d="M57.5505 312.326L25.8791 294.041C24.0937 293.01 24.0937 291.338 25.8791 290.307L203.089 188.119C204.874 187.088 207.77 187.088 209.555 188.119L241.227 206.404C243.012 207.435 243.012 209.106 241.227 210.137L64.0165 312.326C62.2311 313.357 59.3358 313.357 57.5505 312.326Z" fill="#E0E0E0"/>
<path d="M227.62 247.166L223.68 244.891C214.738 239.728 200.623 239.475 192.214 244.33L177.509 252.821C176.989 253.121 176.811 253.784 177.111 254.304C177.411 254.825 178.076 255.002 178.595 254.702L193.3 246.211C201.107 241.704 214.25 241.954 222.594 246.772L226.534 249.047C230.371 251.263 232.485 254.143 232.485 257.158C232.485 260.172 230.371 263.052 226.534 265.266L172.598 296.407C164.255 301.225 150.678 301.223 142.334 296.407L126.63 287.34C117.687 282.177 103.136 282.177 94.1929 287.34L90.2521 289.615C85.5244 292.345 82.9209 295.976 82.9209 299.84C82.9209 303.402 85.1798 306.668 89.2812 309.035L103.346 317.155L97.5667 320.563C94.9263 322.121 94.9379 324.649 97.5928 326.182L108.157 332.281C108.588 332.53 108.587 332.935 108.154 333.182L107.273 333.685C106.84 333.932 106.84 334.337 107.27 334.586L108.644 335.379C109.075 335.628 109.781 335.629 110.212 335.381L115.006 332.625C115.437 332.377 116.143 332.378 116.574 332.627L125.3 337.664C125.731 337.913 126.436 337.913 126.867 337.664L128.24 336.871C128.671 336.622 128.671 336.215 128.24 335.966L119.515 330.929C119.083 330.68 119.083 330.273 119.515 330.024L122.86 328.092C123.292 327.843 123.997 327.843 124.428 328.092L133.153 333.13C133.584 333.379 134.29 333.379 134.721 333.13L136.094 332.337C136.525 332.088 136.525 331.681 136.094 331.432L127.368 326.394C126.936 326.145 126.936 325.738 127.368 325.489L131.682 322.998C132.114 322.749 132.114 322.342 131.682 322.093L130.309 321.3C129.877 321.051 129.172 321.051 128.741 321.3L127.368 322.093C126.937 322.342 126.231 322.342 125.801 322.093L112.383 314.346C111.195 313.66 109.256 313.669 108.074 314.366L105.403 315.941C105.316 315.823 105.206 315.72 105.071 315.643L90.3665 307.153C86.9652 305.188 85.0922 302.591 85.0922 299.837C85.0922 296.826 87.3684 293.785 91.3374 291.494L95.2781 289.218C103.621 284.402 117.198 284.402 125.543 289.218L141.247 298.285C150.19 303.448 164.741 303.448 173.684 298.285L227.62 267.144C232.157 264.526 234.656 260.977 234.656 257.155C234.657 253.334 232.158 249.786 227.62 247.166Z" fill="#E0E0E0"/>
<path d="M301.494 291.311C301.216 277.346 306.691 264.722 311.383 258.513C316.073 252.305 323.946 246.235 329.42 247.943C334.519 249.534 334.152 256.176 328.143 260.733C322.133 265.292 313.07 271.058 310.582 278.723L304.513 292.832L301.494 291.311Z" fill="#27DEBF"/>
<path opacity="0.15" d="M301.494 291.311C301.216 277.346 306.691 264.722 311.383 258.513C316.073 252.305 323.946 246.235 329.42 247.943C334.519 249.534 334.152 256.176 328.143 260.733C322.133 265.292 313.07 271.058 310.582 278.723L304.513 292.832L301.494 291.311Z" fill="black"/>
<path d="M303.16 289.974C303.309 289.958 303.435 289.845 303.461 289.69C304.761 281.955 307.353 273.023 311.756 266C316.493 258.443 323.377 253.797 327.346 252.201C327.522 252.131 327.606 251.931 327.536 251.756C327.467 251.581 327.27 251.492 327.091 251.566C323.01 253.207 315.961 258.021 311.11 265.777C306.687 272.849 304.093 281.801 302.786 289.577C302.754 289.763 302.88 289.939 303.066 289.971C303.099 289.976 303.13 289.976 303.16 289.974Z" fill="white"/>
<path d="M306.544 294.342C307.225 291.692 310.32 287.263 315.419 283.536C321.061 279.413 328.286 277.39 329.88 274.258C331.794 270.494 328.572 267.075 322.687 267.968C316.801 268.86 305.775 277.346 303.506 292.576L306.544 294.342Z" fill="#27DEBF"/>
<path d="M305.327 291.613C305.457 291.599 305.572 291.511 305.615 291.379C310.143 277.56 320.453 272.473 325.273 271.714C325.459 271.685 325.587 271.509 325.557 271.323C325.528 271.135 325.36 271.008 325.166 271.038C319.837 271.877 309.586 277.062 304.965 291.167C304.907 291.346 305.005 291.54 305.184 291.598C305.232 291.613 305.28 291.618 305.327 291.613Z" fill="white"/>
<path d="M178.052 250.383C178.052 250.383 184.635 246.582 192.757 241.893C200.878 237.205 214.48 237.456 223.137 242.454L227.078 244.729C235.735 249.728 235.735 257.831 227.078 262.829L173.141 293.969C164.484 298.968 150.448 298.967 141.791 293.969L126.087 284.902C117.43 279.903 103.394 279.903 94.7371 284.902L90.7957 287.178C82.1388 292.176 81.7044 300.029 89.8255 304.717L104.53 313.207" stroke="#37474F" stroke-width="3" stroke-miterlimit="10" stroke-linecap="round" stroke-linejoin="round"/>
<path d="M95.3975 316.649V317.898C95.3975 319.897 96.8013 322.328 98.5324 323.328L110.103 330.009L121.865 323.216L121.868 313.03L110.447 307.755C108.632 306.917 105.757 307.048 104.026 308.047L98.5324 311.219C96.8006 312.218 95.3975 314.649 95.3975 316.649Z" fill="#37474F"/>
<path d="M110.448 307.755C108.633 306.917 105.758 307.048 104.026 308.047L98.5328 311.219C96.8017 312.218 96.869 313.708 98.6841 314.547L110.102 319.821L121.869 313.03L110.448 307.755Z" fill="#455A64"/>
<path opacity="0.1" d="M108.992 317.369C108.126 317.869 107.425 319.084 107.425 320.084V328.461L110.104 330.008L121.866 323.215L121.869 313.029L118.891 311.654L108.992 317.369Z" fill="black"/>
<path d="M122.868 311.277C122.587 311.114 122.199 311.138 121.768 311.386L110.198 318.066C109.332 318.565 108.631 319.781 108.631 320.781V330.744C108.631 331.245 108.808 331.594 109.092 331.756C109.356 331.906 110.302 332.451 110.563 332.605C110.846 332.771 111.236 332.75 111.67 332.499L123.24 325.82C124.106 325.32 124.807 324.104 124.807 323.105V313.141C124.807 312.644 124.633 312.29 124.352 312.127C124.086 311.975 123.133 311.429 122.868 311.277Z" fill="#37474F"/>
<path d="M111.669 318.916L123.239 312.236C124.104 311.736 124.806 312.141 124.806 313.141V323.105C124.806 324.104 124.104 325.32 123.239 325.82L111.669 332.499C110.803 332.999 110.102 332.594 110.102 331.594V321.631C110.102 320.631 110.803 319.415 111.669 318.916Z" fill="#455A64"/>
<path d="M123.653 326.442L114.084 320.917L113.044 321.519L113.043 328.311L122.612 333.836C123.219 334.186 123.77 334.215 124.169 333.983C124.345 333.88 125.035 333.482 125.211 333.38C125.605 333.154 125.847 332.666 125.848 331.967L125.848 330.243C125.848 328.843 124.865 327.142 123.653 326.442ZM121.895 328.259C122.707 328.728 123.365 329.869 123.365 330.806C123.365 330.957 123.343 331.087 123.311 331.208C123.19 331.176 123.065 331.13 122.935 331.054C122.123 330.585 121.465 329.445 121.465 328.507C121.465 328.356 121.486 328.219 121.518 328.098C121.638 328.131 121.764 328.183 121.895 328.259Z" fill="#27DEBF"/>
<path opacity="0.85" d="M123.653 326.441L114.082 320.917L113.047 321.518L122.611 327.042C123.827 327.745 124.805 329.446 124.805 330.843V332.567C124.805 333.291 124.544 333.797 124.117 334.015C124.131 334.007 124.153 333.993 124.168 333.986C124.349 333.877 125.036 333.479 125.21 333.377C125.608 333.153 125.847 332.668 125.847 331.966V330.242C125.847 328.845 124.863 327.144 123.653 326.441Z" fill="white"/>
<path d="M125.847 330.242V331.966C125.847 332.668 125.608 333.153 125.21 333.377C125.036 333.479 124.348 333.877 124.167 333.986C124.153 333.993 124.139 334 124.124 334.007C124.544 333.79 124.805 333.291 124.805 332.567V330.843C124.805 330.141 124.558 329.374 124.16 328.679L125.203 328.078C125.601 328.765 125.847 329.54 125.847 330.242Z" fill="#27DEBF"/>
<path opacity="0.6" d="M125.847 330.242V331.966C125.847 332.668 125.608 333.153 125.21 333.377C125.036 333.479 124.348 333.877 124.167 333.986C124.153 333.993 124.139 334 124.124 334.007C124.544 333.79 124.805 333.291 124.805 332.567V330.843C124.805 330.141 124.558 329.374 124.16 328.679L125.203 328.078C125.601 328.765 125.847 329.54 125.847 330.242Z" fill="white"/>
<path opacity="0.05" d="M125.847 330.242V331.966C125.847 332.668 125.608 333.153 125.21 333.377C125.036 333.479 124.348 333.877 124.167 333.986C124.153 333.993 124.139 334 124.124 334.007C124.544 333.79 124.805 333.291 124.805 332.567V330.843C124.805 330.141 124.558 329.374 124.16 328.679L125.203 328.078C125.601 328.765 125.847 329.54 125.847 330.242Z" fill="black"/>
<path opacity="0.6" d="M121.466 328.505C121.466 328.353 121.489 328.214 121.518 328.098C120.889 327.923 120.424 328.319 120.424 329.106C120.424 330.047 121.083 331.184 121.894 331.654C122.574 332.052 123.153 331.843 123.313 331.205C123.19 331.176 123.066 331.133 122.936 331.053C122.125 330.583 121.466 329.446 121.466 328.505Z" fill="white"/>
<path opacity="0.1" d="M121.466 328.505C121.466 328.353 121.489 328.214 121.518 328.098C120.889 327.923 120.424 328.319 120.424 329.106C120.424 330.047 121.083 331.184 121.894 331.654C122.574 332.052 123.153 331.843 123.313 331.205C123.19 331.176 123.066 331.133 122.936 331.053C122.125 330.583 121.466 329.446 121.466 328.505Z" fill="black"/>
<path opacity="0.7" d="M122.613 327.043L113.044 321.518L113.043 328.31L122.612 333.835C123.824 334.534 124.807 333.967 124.807 332.568L124.807 330.844C124.807 329.445 123.825 327.743 122.613 327.043ZM121.895 331.655C121.082 331.186 120.424 330.046 120.424 329.108C120.424 328.17 121.082 327.79 121.895 328.259C122.707 328.727 123.365 329.868 123.365 330.806C123.365 331.744 122.706 332.124 121.895 331.655Z" fill="white"/>
<path d="M131.436 321.949L121.867 316.424L120.827 317.026L120.826 323.818L130.395 329.343C131.002 329.693 131.553 329.722 131.952 329.49C132.129 329.387 132.818 328.989 132.994 328.887C133.388 328.661 133.63 328.173 133.631 327.474V325.75C133.631 324.351 132.648 322.648 131.436 321.949ZM129.678 323.766C130.49 324.235 131.148 325.376 131.148 326.313C131.148 326.464 131.126 326.594 131.094 326.715C130.973 326.683 130.849 326.637 130.718 326.561C129.906 326.092 129.248 324.951 129.248 324.014C129.248 323.863 129.269 323.726 129.301 323.605C129.422 323.637 129.547 323.69 129.678 323.766Z" fill="#27DEBF"/>
<path opacity="0.85" d="M131.437 321.948L121.865 316.424L120.83 317.025L130.394 322.549C131.61 323.252 132.588 324.953 132.588 326.35V328.073C132.588 328.797 132.327 329.304 131.9 329.521C131.915 329.514 131.936 329.5 131.951 329.492C132.132 329.384 132.82 328.986 132.993 328.884C133.391 328.66 133.63 328.175 133.63 327.472V325.749C133.63 324.352 132.646 322.651 131.437 321.948Z" fill="white"/>
<path d="M133.63 325.749V327.472C133.63 328.175 133.391 328.66 132.993 328.884C132.819 328.986 132.132 329.384 131.951 329.492C131.936 329.5 131.922 329.507 131.907 329.514C132.327 329.297 132.588 328.797 132.588 328.073V326.35C132.588 325.648 132.342 324.881 131.943 324.186L132.986 323.585C133.384 324.272 133.63 325.047 133.63 325.749Z" fill="#27DEBF"/>
<path opacity="0.6" d="M133.63 325.749V327.472C133.63 328.175 133.391 328.66 132.993 328.884C132.819 328.986 132.132 329.384 131.951 329.492C131.936 329.5 131.922 329.507 131.907 329.514C132.327 329.297 132.588 328.797 132.588 328.073V326.35C132.588 325.648 132.342 324.881 131.943 324.186L132.986 323.585C133.384 324.272 133.63 325.047 133.63 325.749Z" fill="white"/>
<path opacity="0.05" d="M133.63 325.749V327.472C133.63 328.175 133.391 328.66 132.993 328.884C132.819 328.986 132.132 329.384 131.951 329.492C131.936 329.5 131.922 329.507 131.907 329.514C132.327 329.297 132.588 328.797 132.588 328.073V326.35C132.588 325.648 132.342 324.881 131.943 324.186L132.986 323.585C133.384 324.272 133.63 325.047 133.63 325.749Z" fill="black"/>
<path opacity="0.6" d="M129.25 324.012C129.25 323.86 129.272 323.721 129.301 323.605C128.673 323.43 128.207 323.826 128.207 324.613C128.207 325.554 128.866 326.691 129.677 327.161C130.357 327.559 130.937 327.349 131.096 326.712C130.973 326.683 130.85 326.64 130.719 326.56C129.908 326.09 129.25 324.953 129.25 324.012Z" fill="white"/>
<path opacity="0.1" d="M129.25 324.012C129.25 323.86 129.272 323.721 129.301 323.605C128.673 323.43 128.207 323.826 128.207 324.613C128.207 325.554 128.866 326.691 129.677 327.161C130.357 327.559 130.937 327.349 131.096 326.712C130.973 326.683 130.85 326.64 130.719 326.56C129.908 326.09 129.25 324.953 129.25 324.012Z" fill="black"/>
<path opacity="0.7" d="M130.396 322.55L120.827 317.025L120.826 323.817L130.395 329.342C131.607 330.042 132.59 329.474 132.59 328.075V326.351C132.59 324.951 131.608 323.25 130.396 322.55ZM129.678 327.162C128.865 326.693 128.207 325.552 128.207 324.615C128.207 323.677 128.865 323.297 129.678 323.766C130.49 324.235 131.148 325.375 131.148 326.313C131.148 327.251 130.49 327.631 129.678 327.162Z" fill="white"/>
<path d="M164.383 283.908L191.61 268.165C194.416 266.545 195.819 264.421 195.82 262.298C195.82 260.174 195.832 258.511 195.832 258.511L167.583 242.582C166.086 241.718 164.873 239.616 164.873 237.888V204.319L117.318 231.799L117.315 265.368C117.315 267.096 118.529 269.198 120.025 270.062L144.056 283.909C149.67 287.149 158.77 287.148 164.383 283.908Z" fill="#27DEBF"/>
<g opacity="0.6">
<path d="M164.383 283.908L191.61 268.165C194.416 266.545 195.819 264.421 195.82 262.298C195.82 260.174 195.832 258.511 195.832 258.511L167.583 242.582C166.086 241.718 164.873 239.616 164.873 237.888V204.319L117.318 231.799L117.315 265.368C117.315 267.096 118.529 269.198 120.025 270.062L144.056 283.909C149.67 287.149 158.77 287.148 164.383 283.908Z" fill="black"/>
</g>
<path opacity="0.3" d="M128.733 271.311V275.082L120.018 270.059C118.531 269.198 117.311 267.101 117.311 265.364V231.799L126.371 226.573C126.558 228.873 126.762 231.251 126.949 233.567L120.596 237.245V263.47C120.596 265.207 121.801 267.304 123.303 268.165L128.733 271.311Z" fill="black"/>
<path d="M120.595 263.477C120.595 265.206 121.809 267.307 123.305 268.172L144.052 280.122C149.665 283.363 158.766 283.364 164.38 280.124L191.621 264.383C197.234 261.144 197.235 255.891 191.622 252.649L170.863 240.69C169.366 239.826 168.152 237.725 168.152 235.996L168.151 209.767L120.595 237.246V263.477H120.595Z" fill="#27DEBF"/>
<path opacity="0.3" d="M120.595 263.477C120.595 265.206 121.809 267.307 123.305 268.172L144.052 280.122C149.665 283.363 158.766 283.364 164.38 280.124L191.621 264.383C197.234 261.144 197.235 255.891 191.622 252.649L170.863 240.69C169.366 239.826 168.152 237.725 168.152 235.996L168.151 209.767L120.595 237.246V263.477H120.595Z" fill="black"/>
<path opacity="0.5" d="M176.383 243.882V243.878L170.862 240.691C169.365 239.826 168.151 237.725 168.151 235.997V209.767L120.595 237.247V263.477C120.595 265.206 121.808 267.307 123.305 268.172L128.73 271.304L176.383 243.882Z" fill="black"/>
<path d="M195.826 258.513C195.826 258.513 195.826 260.172 195.826 262.299C195.826 264.427 194.417 266.54 191.616 268.167L164.385 283.901C161.694 285.466 158.204 286.249 154.684 286.311V282.54C158.204 282.493 161.694 281.679 164.385 280.13L191.616 264.381C194.417 262.769 195.826 260.641 195.826 258.513Z" fill="#27DEBF"/>
<path opacity="0.5" d="M195.826 258.513C195.826 258.513 195.826 260.172 195.826 262.299C195.826 264.427 194.417 266.54 191.616 268.167L164.385 283.901C161.694 285.466 158.204 286.249 154.684 286.311V282.54C158.204 282.493 161.694 281.679 164.385 280.13L191.616 264.381C194.417 262.769 195.826 260.641 195.826 258.513Z" fill="black"/>
<path d="M44.2392 296.079C45.9941 297.092 48.9343 297.038 50.8051 295.958C74.1852 282.459 211.342 203.274 234.718 189.778C236.589 188.698 238.105 186.071 238.105 186.807V19.3432C238.105 14.2868 236.682 11.7137 234.927 10.7008C233.172 9.68796 230.233 9.74153 228.361 10.8225L44.4513 117.002C42.5805 118.082 41.0637 120.71 41.0637 122.87L41.0615 290.333C41.0615 292.493 42.4842 295.066 44.2392 296.079Z" fill="#27DEBF"/>
<path d="M50.8056 295.954L234.718 189.774C236.589 188.694 238.106 186.067 238.106 186.802V19.3388C238.106 14.2824 236.589 13.407 234.718 14.4865L50.8077 120.667C48.9369 121.747 47.4201 124.375 47.4201 126.535L47.418 293.998C47.4172 296.159 48.934 297.034 50.8056 295.954Z" fill="#27DEBF"/>
<path opacity="0.5" d="M50.8056 295.954L234.718 189.774C236.589 188.694 238.106 186.067 238.106 186.802V19.3388C238.106 14.2824 236.589 13.407 234.718 14.4865L50.8077 120.667C48.9369 121.747 47.4201 124.375 47.4201 126.535L47.418 293.998C47.4172 296.159 48.934 297.034 50.8056 295.954Z" fill="black"/>
<path d="M50.307 299.821C48.4296 300.65 45.8319 300.619 44.2355 299.696C42.4827 298.679 41.0586 296.112 41.0586 293.938V283.287L47.4117 286.964V297.615C47.4124 299.586 48.6642 300.478 50.307 299.821Z" fill="#27DEBF"/>
<path opacity="0.5" d="M50.307 299.821C48.4296 300.65 45.8319 300.619 44.2355 299.696C42.4827 298.679 41.0586 296.112 41.0586 293.938V283.287L47.4117 286.964V297.615C47.4124 299.586 48.6642 300.478 50.307 299.821Z" fill="black"/>
<path d="M47.4121 286.964L47.4179 297.61C47.4179 299.77 48.9347 300.646 50.8055 299.566L234.718 193.386C236.589 192.306 238.106 189.679 238.106 187.518V176.844L47.4121 286.964Z" fill="#27DEBF"/>
<path opacity="0.3" d="M47.418 286.936V297.61C47.418 299.77 48.9347 300.646 50.8056 299.566L234.718 193.386C236.589 192.306 238.106 189.679 238.106 187.518V176.844L47.418 286.936Z" fill="black"/>
<path d="M53.7725 273.588L53.7739 128.645C53.7739 127.348 54.684 125.772 55.8062 125.124L229.713 24.7188C230.836 24.0708 231.746 24.5965 231.746 25.8924L231.752 170.839C231.752 172.135 230.842 173.712 229.72 174.359L55.8055 274.762C54.6833 275.41 53.7725 274.885 53.7725 273.588Z" fill="#27DEBF"/>
<path d="M53.7725 273.588L53.7739 128.645C53.7739 127.348 54.684 125.772 55.8062 125.124L229.713 24.7188C230.836 24.0708 231.746 24.5965 231.746 25.8924L231.752 170.839C231.752 172.135 230.842 173.712 229.72 174.359L55.8055 274.762C54.6833 275.41 53.7725 274.885 53.7725 273.588Z" fill="#263238"/>
<path opacity="0.7" d="M48.414 123.184C47.8036 124.248 47.4286 125.453 47.4127 126.532V286.964L41.0596 283.287L41.0632 122.87C41.0632 121.791 41.4505 120.586 42.0609 119.522L48.414 123.184Z" fill="black"/>
<path opacity="0.3" d="M238.071 15.886C237.83 14.1397 236.421 13.5062 234.714 14.4844L50.8074 120.671C49.8778 121.207 49.0365 122.121 48.4117 123.186L42.0586 119.517C42.6754 118.467 43.5167 117.539 44.4543 117.001L228.361 10.8231C230.236 9.74145 233.168 9.6857 234.931 10.7029C236.533 11.6238 237.854 13.8596 238.071 15.886Z" fill="black"/>
<path d="M71.2426 282.417C71.2194 282.425 70.814 282.73 69.9169 282.819C69.2226 282.888 68.4986 282.783 67.9766 282.479C67.0962 281.972 66.3947 280.694 66.3947 279.619L66.3867 148.138L69.5586 149.969V281.443C69.5586 282.206 69.9423 282.648 70.4954 282.648C70.5736 282.647 70.8755 282.624 71.2426 282.417Z" fill="#F0F0F0"/>
<path d="M70.4927 282.258C70.0011 282.258 69.9482 281.687 69.9482 281.443V139.221L74.3987 136.653C74.9417 136.337 75.3826 134.934 76.2586 131.808C76.7205 130.16 77.4178 127.67 77.7798 127.39L117.971 104.184C118.315 104.364 119.07 105.692 119.527 106.498C120.51 108.227 121.098 109.206 121.763 109.206C121.878 109.206 121.986 109.177 122.084 109.12L245.644 37.7703V179.542C245.644 180.479 244.963 181.664 244.155 182.128L71.048 282.08C70.8467 282.196 70.6556 282.258 70.4927 282.258Z" fill="#FAFAFA"/>
<path d="M245.254 38.4451V48.0678V179.541C245.254 180.343 244.65 181.393 243.959 181.79L70.8514 281.743C70.6574 281.856 70.5357 281.868 70.4923 281.868C70.3395 281.868 70.3381 281.459 70.3381 281.442V139.446L74.5945 136.989C75.2678 136.599 75.6885 135.287 76.634 131.913C77.0554 130.409 77.6874 128.153 78.0284 127.697L117.919 104.665C118.263 105.063 118.829 106.059 119.189 106.691C120.273 108.6 120.881 109.595 121.764 109.595C121.945 109.595 122.124 109.548 122.279 109.457L245.254 38.4451ZM246.033 37.0956L121.888 108.782C121.849 108.806 121.807 108.816 121.763 108.816C120.82 108.816 118.905 103.782 117.956 103.782C117.911 103.782 117.869 103.793 117.829 103.817L77.5766 127.058C76.6412 127.596 75.1295 135.778 74.2021 136.315L69.5576 138.996V281.443C69.5576 282.206 69.9384 282.648 70.4916 282.648C70.7175 282.648 70.9723 282.574 71.2416 282.418L244.349 182.466C245.284 181.928 246.033 180.618 246.033 179.542V48.0678V37.0956Z" fill="#E0E0E0"/>
<path d="M67.9745 144.188C67.1006 143.684 66.3918 142.402 66.3918 141.326L66.3896 128.155C66.3896 127.079 67.147 125.771 68.0787 125.233L241.184 25.28C242.115 24.742 243.579 24.7152 244.454 25.2199C245.328 25.7245 246.036 27.006 246.033 28.0811L246.034 41.2536C246.038 42.3302 245.282 43.637 244.35 44.1749L71.2433 144.127C70.3116 144.665 68.8484 144.693 67.9745 144.188Z" fill="#27DEBF"/>
<path opacity="0.4" d="M246.017 27.8059C245.901 26.9328 245.191 26.6135 244.35 27.1044L71.242 127.058C70.7823 127.331 70.3617 127.79 70.0496 128.32L66.8857 126.489C67.1978 125.959 67.6105 125.506 68.0782 125.233L241.185 25.2814C242.113 24.7434 243.578 24.7123 244.45 25.2191C245.253 25.6868 245.916 26.7931 246.017 27.8059Z" fill="white"/>
<path opacity="0.1" d="M70.0494 128.32C69.7454 128.842 69.5586 129.442 69.5586 129.98V149.969L66.3867 148.137L66.3882 128.155C66.3882 128.084 66.3911 128.021 66.3969 127.951C66.4099 127.793 66.4309 127.673 66.462 127.533C66.5474 127.182 66.6922 126.809 66.8856 126.489L70.0494 128.32Z" fill="black"/>
<path d="M246.033 28.0789L246.035 37.0956L121.89 108.782C120.962 109.32 120.206 108.884 120.206 107.809V104.395C120.206 103.32 119.45 102.883 118.515 103.42L77.5786 127.057C76.6432 127.595 75.8873 128.904 75.8873 129.979V133.393C75.8873 134.468 75.1315 135.777 74.204 136.315L69.5596 138.996V129.98C69.5596 128.905 70.3154 127.595 71.2429 127.058L244.35 27.1051C245.277 26.5672 246.033 27.0037 246.033 28.0789Z" fill="#27DEBF"/>
<path d="M238.122 33.7333C239.295 33.0564 240.245 33.6052 240.245 34.959C240.245 36.3129 239.294 37.9593 238.122 38.6362C236.949 39.3132 235.999 38.7644 235.999 37.4105C235.999 36.0566 236.95 34.4102 238.122 33.7333Z" fill="white"/>
<path d="M230.478 38.1403C231.651 37.4633 232.601 38.0121 232.601 39.366C232.601 40.7199 231.65 42.3663 230.478 43.0432C229.305 43.7202 228.355 43.1714 228.355 41.8175C228.355 40.4636 229.305 38.8172 230.478 38.1403Z" fill="white"/>
<path d="M222.834 42.5473C224.007 41.8703 224.957 42.4191 224.957 43.773C224.957 45.1269 224.007 46.7733 222.834 47.4502C221.662 48.1271 220.711 47.5783 220.711 46.2245C220.711 44.8706 221.662 43.2242 222.834 42.5473Z" fill="white"/>
<path d="M246.034 37.0956V48.0685L69.5586 149.969V138.996L73.0273 136.987C73.9547 136.449 74.266 135.631 74.7106 134.065L75.8864 129.979C76.257 128.561 76.6422 127.594 77.5776 127.057L117.83 103.816C118.765 103.278 119.494 103.219 120.206 104.394L121.649 107.013C122.178 107.927 122.443 108.465 123.371 107.928L246.034 37.0956Z" fill="#E6E6E6"/>
<path d="M69.5586 138.996V149.969L66.3867 148.138V137.173L69.5586 138.996Z" fill="#E0E0E0"/>
<path opacity="0.5" d="M77.298 139.788L74.6496 141.317L75.6596 139.374C75.7479 139.204 75.7573 138.991 75.6791 138.9C75.6017 138.807 75.467 138.873 75.3787 139.043L73.9415 141.807C73.9401 141.811 73.9394 141.814 73.9379 141.818C73.922 141.85 73.9104 141.884 73.8995 141.92C73.8959 141.932 73.8909 141.942 73.888 141.953C73.8764 142 73.8691 142.049 73.8691 142.096C73.8691 142.143 73.8764 142.183 73.888 142.217C73.8909 142.225 73.8959 142.23 73.8995 142.237C73.9104 142.26 73.922 142.281 73.9379 142.295C73.9394 142.296 73.9401 142.299 73.9415 142.301L75.3787 143.406C75.4192 143.437 75.4692 143.435 75.5191 143.406C75.5785 143.372 75.6371 143.3 75.6791 143.201C75.7573 143.02 75.7479 142.818 75.6596 142.75L74.6496 141.974L77.298 140.444C77.416 140.376 77.5109 140.175 77.5109 139.993C77.5116 139.811 77.416 139.72 77.298 139.788Z" fill="#455A64"/>
<path opacity="0.5" d="M79.5107 138.51L82.1591 136.981L81.1491 136.205C81.0608 136.137 81.0514 135.935 81.1288 135.753C81.2063 135.571 81.341 135.481 81.4293 135.548L82.8664 136.653C82.8679 136.654 82.8686 136.657 82.8708 136.659C82.8867 136.672 82.8983 136.693 82.9092 136.717C82.9128 136.724 82.9178 136.728 82.9207 136.737C82.9323 136.771 82.9396 136.811 82.9396 136.858C82.9396 136.905 82.9323 136.953 82.9207 137C82.9178 137.012 82.9128 137.023 82.9092 137.034C82.8983 137.069 82.8867 137.104 82.8708 137.136C82.8693 137.139 82.8686 137.143 82.8664 137.146L81.4293 139.91C81.3888 139.988 81.3388 140.043 81.2889 140.072C81.2295 140.106 81.1708 140.103 81.1288 140.053C81.0507 139.961 81.0601 139.749 81.1491 139.579L82.1591 137.636L79.5107 139.165C79.3927 139.233 79.2979 139.141 79.2979 138.96C79.2979 138.78 79.3934 138.578 79.5107 138.51Z" fill="#455A64"/>
<path opacity="0.5" d="M88.2001 130.883C88.1835 130.723 88.0445 130.744 87.9742 130.917L87.6115 131.804C86.9932 131.736 86.2432 132.341 85.7371 133.412C85.0811 134.801 85.0811 136.444 85.7371 137.076C86.065 137.391 86.4958 137.395 86.9266 137.146C87.3574 136.897 87.7882 136.396 88.1161 135.702C88.1994 135.526 88.1994 135.318 88.1161 135.237C88.0329 135.157 87.8982 135.235 87.815 135.411C87.3255 136.447 86.5284 136.908 86.0383 136.437C85.5481 135.966 85.5481 134.739 86.0383 133.701C86.3865 132.963 86.8882 132.527 87.3255 132.5L87.0519 133.169C86.9809 133.343 87.0461 133.504 87.1576 133.432L88.2378 132.727C88.3138 132.677 88.3695 132.54 88.3587 132.43L88.2001 130.883Z" fill="#455A64"/>
<path opacity="0.5" d="M116.668 108.825L117.634 106.781C117.748 106.54 117.748 106.255 117.634 106.145C117.519 106.035 117.335 106.142 117.22 106.384L116.255 108.428L115.289 107.499C115.175 107.389 114.99 107.496 114.876 107.738C114.761 107.98 114.761 108.264 114.876 108.374L115.842 109.303L114.876 111.347C114.761 111.589 114.761 111.873 114.876 111.983C114.933 112.038 115.008 112.039 115.082 111.996C115.157 111.952 115.232 111.865 115.289 111.744L116.254 109.701L117.219 110.63C117.277 110.685 117.351 110.686 117.426 110.642C117.5 110.599 117.576 110.512 117.632 110.391C117.746 110.149 117.746 109.865 117.632 109.755L116.668 108.825Z" fill="#455A64"/>
<path d="M91.7139 133.396V129.981C91.7139 128.905 92.469 127.597 93.4015 127.059L234.852 45.4216C235.783 44.8837 236.538 45.3195 236.538 46.3954V49.8091C236.538 50.8849 235.783 52.1932 234.851 52.7311L93.4015 134.369C92.4697 134.907 91.7139 134.471 91.7139 133.396Z" fill="#FAFAFA"/>
<path d="M233.868 47.2258L234.311 48.167C234.339 48.2264 234.393 48.2474 234.456 48.2235L235.447 47.8434C235.604 47.7833 235.667 48.0048 235.554 48.2184L234.837 49.5643C234.791 49.649 234.771 49.7461 234.782 49.8228L234.951 51.0413C234.978 51.2346 234.814 51.4895 234.673 51.4714L233.786 51.362C233.731 51.3555 233.664 51.3939 233.608 51.4648L232.721 52.5979C232.581 52.7782 232.416 52.7137 232.443 52.4893L232.612 51.076C232.623 50.987 232.602 50.9139 232.557 50.8813L231.84 50.3636C231.727 50.2811 231.789 49.9872 231.947 49.8655L232.937 49.1017C232.999 49.0539 233.054 48.9699 233.082 48.878L233.525 47.4249C233.595 47.194 233.798 47.0767 233.868 47.2258Z" stroke="#E0E0E0" stroke-width="0.8073" stroke-miterlimit="10"/>
<g opacity="0.5">
<path d="M238.529 45.0053C238.327 45.0053 238.13 44.9003 238.022 44.7128C237.86 44.4334 237.957 44.0757 238.235 43.9142L242.983 41.1725C243.264 41.011 243.62 41.1073 243.782 41.386C243.943 41.6655 243.847 42.0232 243.568 42.1846L238.82 44.9264C238.728 44.98 238.628 45.0053 238.529 45.0053Z" fill="#455A64"/>
<path d="M238.529 47.7478C238.327 47.7478 238.13 47.6429 238.022 47.4553C237.86 47.1759 237.957 46.8182 238.235 46.6568L242.983 43.915C243.264 43.7521 243.62 43.8498 243.782 44.1286C243.943 44.408 243.847 44.7657 243.568 44.9271L238.82 47.6689C238.728 47.7225 238.628 47.7478 238.529 47.7478Z" fill="#455A64"/>
<path d="M238.529 50.4903C238.327 50.4903 238.13 50.3853 238.022 50.1978C237.86 49.9184 237.957 49.5607 238.235 49.3993L242.983 46.6575C243.264 46.4946 243.62 46.5923 243.782 46.8711C243.943 47.1505 243.847 47.5082 243.568 47.6696L238.82 50.4114C238.728 50.465 238.628 50.4903 238.529 50.4903Z" fill="#455A64"/>
</g>
<g opacity="0.5">
<path d="M74.7658 153.041C74.5638 153.041 74.3669 152.936 74.259 152.749C74.0976 152.469 74.1938 152.112 74.4726 151.95L79.2206 149.208C79.5015 149.047 79.8577 149.143 80.0191 149.422C80.1806 149.702 80.0843 150.059 79.8048 150.221L75.0568 152.962C74.9656 153.016 74.865 153.041 74.7658 153.041Z" fill="#455A64"/>
<path d="M74.7658 155.784C74.5638 155.784 74.3669 155.679 74.259 155.491C74.0976 155.212 74.1938 154.854 74.4726 154.693L79.2206 151.951C79.5015 151.788 79.8577 151.886 80.0191 152.165C80.1806 152.444 80.0843 152.802 79.8048 152.963L75.0568 155.705C74.9656 155.759 74.865 155.784 74.7658 155.784Z" fill="#455A64"/>
<path d="M74.7658 158.526C74.5638 158.526 74.3669 158.421 74.259 158.234C74.0976 157.954 74.1938 157.597 74.4726 157.435L79.2206 154.693C79.5015 154.531 79.8577 154.628 80.0191 154.907C80.1806 155.187 80.0843 155.544 79.8048 155.706L75.0568 158.447C74.9656 158.501 74.865 158.526 74.7658 158.526Z" fill="#455A64"/>
</g>
<path d="M116.888 128.863L116.888 133.07C116.888 133.93 117.498 134.281 118.242 133.852L174.661 101.231L174.66 93.8977L118.241 126.518C117.497 126.948 116.888 128.004 116.888 128.863Z" fill="#E6E6E6"/>
<path d="M181.776 89.7905C182.524 89.359 183.13 89.7087 183.13 90.5724V94.7796C183.13 95.6433 182.524 96.6931 181.776 97.1246L174.662 101.232L174.661 93.8985L181.776 89.7905Z" fill="#27DEBF"/>
<path d="M181.249 95.5578L180.456 95.3102C180.537 94.9736 180.583 94.6275 180.583 94.2879C180.583 93.4763 180.319 92.8588 179.86 92.5931C179.518 92.3961 179.107 92.4157 178.703 92.6495C177.814 93.1628 177.117 94.6123 177.117 95.9495C177.117 96.7611 177.381 97.3787 177.84 97.6444C177.996 97.7342 178.166 97.7791 178.344 97.7791C178.555 97.7791 178.777 97.7154 178.997 97.5887C179.531 97.2802 179.993 96.6308 180.278 95.8728L181.073 96.1204C181.103 96.1298 181.132 96.1334 181.161 96.1334C181.287 96.1334 181.403 96.0531 181.442 95.9264C181.491 95.7714 181.405 95.6063 181.249 95.5578ZM178.703 97.079C178.483 97.2064 178.292 97.2259 178.135 97.1347C177.87 96.9819 177.706 96.528 177.706 95.9502C177.706 94.8418 178.297 93.5647 178.997 93.1599C179.126 93.0861 179.245 93.0477 179.353 93.0477C179.429 93.0477 179.5 93.0666 179.564 93.1042C179.829 93.257 179.993 93.7109 179.993 94.2894C179.994 95.3964 179.403 96.6743 178.703 97.079Z" fill="#FAFAFA"/>
<path d="M93.4408 140.839L85.2922 145.55C84.5472 145.98 83.9434 147.026 83.9434 147.886V152.077C83.9434 152.937 84.5472 153.286 85.2922 152.856L93.4401 148.145C94.1851 147.715 94.7889 146.669 94.7889 145.809L94.7896 141.617C94.7896 140.757 94.1858 140.408 93.4408 140.839Z" fill="#27DEBF"/>
<path d="M235.093 59.0487C233.34 60.0616 231.918 62.5232 231.918 64.5482C231.918 66.5733 233.34 67.3935 235.093 66.3814C236.846 65.3692 238.269 62.9069 238.267 60.8819C238.266 58.8576 236.844 58.0366 235.093 59.0487Z" fill="#27DEBF"/>
<path d="M234.722 62.2778C234.621 62.2778 234.526 62.2531 234.44 62.2039C234.243 62.0902 234.135 61.8643 234.135 61.569C234.135 61.0281 234.502 60.3917 234.971 60.121C235.226 59.9733 235.475 59.9544 235.674 60.0688C235.871 60.1832 235.98 60.4084 235.98 60.7038C235.98 61.2446 235.613 61.881 235.145 62.1518C234.998 62.2358 234.854 62.2778 234.722 62.2778Z" fill="white"/>
<path d="M236.346 62.4891C236.034 62.3089 235.638 62.3393 235.229 62.5753L234.767 62.8403C233.967 63.3036 233.339 64.3911 233.339 65.3156V65.6422C233.791 65.8934 234.408 65.8507 235.092 65.4568C235.774 65.0644 236.393 64.3925 236.844 63.6208V63.5418C236.845 63.0546 236.665 62.6723 236.346 62.4891Z" fill="white"/>
<path d="M223.865 68.8691V67.7483C223.865 66.4697 223.088 65.8818 222.128 66.4357C221.169 66.9896 220.391 68.4752 220.391 69.7538V70.7558C220.391 71.3857 220.173 72.1017 219.807 72.712C219.806 72.7135 219.806 72.7149 219.805 72.7164C219.717 72.8735 219.663 73.0581 219.663 73.229C219.663 73.5512 219.859 73.6989 220.1 73.5598L224.157 71.2177C224.399 71.078 224.594 70.7037 224.594 70.3815C224.594 70.22 224.545 70.1028 224.466 70.0427C224.464 70.0412 224.462 70.0398 224.46 70.039C224.1 69.8769 223.865 69.4729 223.865 68.8691Z" fill="#27DEBF"/>
<path d="M222.962 72.2531C222.962 72.867 222.588 73.5801 222.128 73.8459C221.668 74.1116 221.294 73.8292 221.294 73.2152L222.962 72.2531Z" fill="#27DEBF"/>
<path d="M208.889 74.1991C209.138 74.0551 209.373 73.9725 209.593 73.9522C209.814 73.9312 210.005 73.9682 210.168 74.0623C210.33 74.1571 210.457 74.3056 210.55 74.509C210.644 74.7124 210.69 74.9673 210.69 75.2757C210.69 75.5219 210.664 75.7536 210.611 75.9693C210.557 76.1851 210.489 76.3921 210.408 76.5898C210.325 76.7882 210.236 76.9757 210.137 77.1516C210.04 77.3283 209.945 77.5006 209.853 77.6707C209.762 77.8401 209.68 78.0088 209.607 78.1782C209.533 78.3469 209.483 78.5149 209.457 78.6807C209.444 78.764 209.422 78.8414 209.393 78.9131C209.364 78.9848 209.325 79.034 209.277 79.0622L208.463 79.5321C208.413 79.5604 208.371 79.5582 208.336 79.5234C208.3 79.4887 208.282 79.4344 208.282 79.3584C208.282 79.1325 208.313 78.9131 208.372 78.7002C208.433 78.4874 208.507 78.2825 208.595 78.0834C208.685 77.885 208.782 77.6932 208.886 77.51C208.99 77.3254 209.087 77.1516 209.176 76.9873C209.266 76.8229 209.339 76.6651 209.4 76.5138C209.46 76.3624 209.49 76.2184 209.49 76.0815C209.49 75.8832 209.441 75.755 209.342 75.6985C209.245 75.6421 209.095 75.6732 208.889 75.7912C208.689 75.907 208.546 76.0359 208.459 76.1793C208.372 76.3212 208.308 76.4595 208.269 76.592C208.229 76.7252 208.194 76.8461 208.165 76.9554C208.136 77.0647 208.08 77.1436 207.996 77.1922L207.18 77.6627C207.141 77.6859 207.107 77.6852 207.078 77.6606C207.049 77.636 207.034 77.5903 207.034 77.5208C207.039 77.2783 207.083 77.0017 207.167 76.6882C207.253 76.3755 207.373 76.0627 207.531 75.7492C207.69 75.4357 207.883 75.1403 208.109 74.8659C208.336 74.5908 208.595 74.3685 208.889 74.1991ZM209.47 80.8824C209.47 80.9577 209.453 81.0337 209.417 81.1083C209.382 81.1836 209.339 81.2357 209.291 81.2639L208.45 81.7497C208.4 81.778 208.358 81.7751 208.324 81.7403C208.287 81.7063 208.27 81.652 208.27 81.5767V80.5385C208.27 80.4632 208.287 80.3879 208.324 80.3119C208.358 80.2366 208.4 80.1852 208.45 80.1569L209.291 79.6711C209.339 79.6429 209.382 79.6458 209.417 79.6798C209.453 79.7138 209.47 79.7689 209.47 79.8442V80.8824Z" fill="#27DEBF"/>
<path d="M116.967 204.622C116.301 204.622 115.685 204.367 115.185 203.883C114.535 203.259 114.203 202.371 114.203 201.251V195.893L99.8819 204.162C99.425 204.426 98.9508 204.56 98.473 204.56C97.8083 204.56 97.1929 204.306 96.6941 203.825C96.041 203.199 95.708 202.31 95.708 201.189V192.364C95.708 190.704 95.9853 189.144 96.5326 187.726L112.709 146.984C113.104 146.014 113.474 145.313 113.847 144.828C114.266 144.287 114.815 143.819 115.485 143.432L123.652 138.716C124.111 138.452 124.584 138.319 125.061 138.319C125.724 138.319 126.339 138.571 126.837 139.05C127.496 139.688 127.827 140.573 127.827 141.689V170.526L129.763 169.408C130.218 169.145 130.692 169.011 131.172 169.011C131.833 169.011 132.446 169.262 132.945 169.737C133.608 170.383 133.937 171.268 133.937 172.381V181.206C133.937 182.083 133.734 182.959 133.332 183.81C132.885 184.757 132.293 185.448 131.574 185.864L127.826 188.027V195.474C127.826 196.35 127.623 197.226 127.222 198.078C126.771 199.029 126.179 199.721 125.458 200.134L118.377 204.223C117.92 204.488 117.445 204.622 116.967 204.622ZM111.991 179.668L114.472 178.235V173.422L111.991 179.668Z" fill="#E0E0E0"/>
<path d="M147.18 186.522C147.034 186.522 146.89 186.518 146.747 186.511C144.338 186.392 142.303 185.496 140.699 183.847C139.204 182.313 138.087 180.177 137.381 177.499C136.719 175.005 136.325 172.187 136.212 169.127C136.14 166.89 136.104 164.426 136.104 161.796C136.104 159.166 136.14 156.606 136.211 154.185C136.324 151.025 136.71 147.81 137.357 144.62C138.009 141.394 139.017 138.282 140.351 135.371C141.691 132.448 143.404 129.72 145.443 127.263C147.52 124.762 150.032 122.651 152.908 120.991C155.759 119.345 158.225 118.544 160.446 118.544C160.592 118.544 160.735 118.548 160.879 118.555C163.29 118.678 165.324 119.574 166.926 121.219C168.421 122.759 169.537 124.894 170.244 127.566C170.906 130.068 171.299 132.885 171.412 135.938C171.485 138.337 171.521 140.856 171.521 143.437C171.521 146.022 171.484 148.526 171.413 150.881C171.301 154.035 170.916 157.25 170.268 160.443C169.614 163.675 168.606 166.787 167.274 169.693C165.933 172.62 164.22 175.348 162.181 177.802C160.106 180.303 157.594 182.413 154.717 184.073C151.866 185.721 149.4 186.522 147.18 186.522ZM156.255 136.865C156.097 136.865 155.632 136.922 154.717 137.45C153.841 137.956 153.104 138.583 152.531 139.311C151.924 140.082 151.43 140.95 151.064 141.89C150.679 142.879 150.385 143.972 150.19 145.132C149.988 146.336 149.869 147.613 149.836 148.926C149.657 153.594 149.657 158.253 149.835 162.798C149.868 164.079 149.976 165.202 150.156 166.162C150.337 167.122 150.603 167.627 150.796 167.881C150.973 168.117 151.125 168.177 151.313 168.198C151.319 168.199 151.324 168.199 151.329 168.199C151.553 168.199 152.018 168.132 152.907 167.618C153.783 167.113 154.518 166.486 155.093 165.755C155.707 164.977 156.211 164.1 156.593 163.145C156.991 162.158 157.281 161.08 157.458 159.942C157.643 158.744 157.754 157.463 157.789 156.139C157.931 151.391 157.931 146.723 157.789 142.256C157.723 141.04 157.596 139.911 157.414 138.936C157.267 138.163 157.043 137.545 156.766 137.153C156.616 136.94 156.488 136.888 156.307 136.866L156.255 136.865Z" fill="#E0E0E0"/>
<path d="M196.371 158.778C195.705 158.778 195.089 158.523 194.589 158.04C193.939 157.415 193.607 156.527 193.607 155.407V150.05L179.286 158.319C178.829 158.582 178.355 158.717 177.877 158.717C177.213 158.717 176.597 158.462 176.098 157.981C175.445 157.355 175.112 156.467 175.112 155.345V146.52C175.112 144.859 175.39 143.299 175.937 141.882L192.113 101.14C192.508 100.17 192.879 99.4689 193.251 98.9831C193.671 98.4423 194.219 97.9746 194.889 97.5873L203.057 92.8711C203.516 92.6076 203.988 92.4744 204.465 92.4744C205.129 92.4744 205.743 92.727 206.241 93.2056C206.9 93.8435 207.231 94.7289 207.231 95.8446V124.682L209.167 123.564C209.622 123.3 210.097 123.166 210.576 123.166C211.237 123.166 211.85 123.417 212.349 123.893C213.012 124.539 213.342 125.424 213.342 126.536V135.361C213.342 136.239 213.138 137.115 212.736 137.965C212.29 138.912 211.697 139.603 210.978 140.019L207.23 142.183V149.629C207.23 150.505 207.027 151.381 206.626 152.233C206.176 153.185 205.583 153.876 204.862 154.289L197.781 158.379C197.324 158.644 196.849 158.778 196.371 158.778ZM191.395 133.824L193.876 132.391V127.578L191.395 133.824Z" fill="#E0E0E0"/>
<path d="M137.908 174.702C137.85 174.646 137.789 174.601 137.726 174.565C137.478 174.426 132.229 171.394 132.229 171.394V145.343C132.229 144.733 132.085 144.29 131.797 144.011C131.741 143.957 131.683 143.913 131.623 143.878C131.373 143.734 125.807 140.522 125.75 140.488C125.498 140.338 125.21 140.356 124.887 140.541L116.722 145.256C116.253 145.528 115.883 145.839 115.613 146.188C115.343 146.538 115.046 147.113 114.721 147.91L98.5516 188.635C98.0832 189.85 97.8486 191.178 97.8486 192.622V201.447C97.8486 202.058 97.9913 202.501 98.2809 202.779C98.3395 202.835 98.401 202.882 98.464 202.917C98.7116 203.056 104.277 206.273 104.337 206.308C104.587 206.453 104.871 206.433 105.19 206.248L116.344 199.808V201.509C116.344 202.12 116.487 202.564 116.776 202.841C116.833 202.895 116.891 202.94 116.951 202.975C117.2 203.119 122.771 206.334 122.831 206.369C123.081 206.515 123.366 206.495 123.687 206.31L130.77 202.219C131.166 201.992 131.51 201.571 131.798 200.961C132.086 200.35 132.231 199.741 132.231 199.128V190.637L136.882 187.951C137.278 187.722 137.621 187.303 137.91 186.691C138.197 186.082 138.342 185.471 138.342 184.86V176.036C138.34 175.425 138.196 174.982 137.908 174.702Z" fill="#27DEBF"/>
<path opacity="0.15" d="M121.456 149.576L121.427 149.678C121.173 150.032 120.898 150.575 120.601 151.307L104.434 192.032C104.224 192.567 104.065 193.125 103.957 193.704L98.0342 190.287C98.15 189.715 98.3021 189.165 98.5048 188.636L114.672 147.911C114.997 147.115 115.294 146.535 115.569 146.188C115.569 146.188 115.569 146.181 115.577 146.181L121.456 149.576Z" fill="black"/>
<path opacity="0.3" d="M104.268 206.265C103.601 205.882 98.7 203.051 98.4611 202.921C98.4032 202.884 98.338 202.834 98.2801 202.776C97.9905 202.501 97.8457 202.059 97.8457 201.444V192.625C97.8457 191.814 97.9326 191.047 98.0774 190.308L103.956 193.704C103.804 194.435 103.732 195.21 103.732 196.021V204.846C103.732 205.455 103.877 205.896 104.159 206.171C104.195 206.208 104.231 206.236 104.268 206.265Z" fill="black"/>
<path opacity="0.3" d="M122.498 167.618V182.938L117.546 180.078L122.498 167.618Z" fill="black"/>
<path opacity="0.4" d="M122.497 182.938L114.599 187.492L117.545 180.078L122.497 182.938Z" fill="black"/>
<path opacity="0.3" d="M122.657 206.236C122.693 206.265 122.722 206.294 122.758 206.323C122.1 205.947 117.184 203.109 116.952 202.978C116.887 202.942 116.829 202.899 116.778 202.841C116.489 202.566 116.344 202.117 116.344 201.509V199.807L122.223 196.412V204.904C122.223 205.512 122.367 205.961 122.657 206.236Z" fill="black"/>
<path opacity="0.15" d="M137.659 174.533C137.427 174.431 137.166 174.46 136.884 174.627L132.229 177.313V171.398C132.229 171.398 137.014 174.156 137.659 174.533Z" fill="black"/>
<path opacity="0.4" d="M131.584 143.857C131.345 143.734 131.07 143.763 130.766 143.936L122.607 148.65C122.136 148.925 121.774 149.229 121.499 149.576L115.62 146.181C115.888 145.833 116.257 145.529 116.721 145.254L124.887 140.541C125.213 140.352 125.495 140.338 125.749 140.49C125.807 140.519 131.034 143.538 131.584 143.857Z" fill="white"/>
<path d="M123.685 206.311C123.288 206.54 122.945 206.516 122.657 206.237C122.369 205.96 122.225 205.516 122.225 204.905V196.412L105.189 206.249C104.792 206.478 104.451 206.454 104.162 206.175C103.873 205.898 103.729 205.454 103.729 204.843V196.017C103.729 194.574 103.963 193.246 104.432 192.031L120.602 151.306C120.927 150.508 121.224 149.934 121.494 149.583C121.764 149.234 122.134 148.923 122.603 148.652L130.768 143.937C131.164 143.71 131.507 143.734 131.796 144.011C132.083 144.29 132.228 144.733 132.228 145.343V177.315L136.879 174.63C137.275 174.401 137.618 174.426 137.907 174.702C138.195 174.982 138.34 175.424 138.34 176.036V184.86C138.34 185.471 138.196 186.082 137.907 186.691C137.618 187.304 137.275 187.722 136.879 187.951L132.228 190.636V199.128C132.228 199.741 132.084 200.35 131.796 200.961C131.507 201.572 131.164 201.992 130.768 202.219L123.685 206.311ZM122.495 182.935V167.617L114.6 187.494L122.495 182.935Z" fill="#27DEBF"/>
<path d="M175.817 139.66C175.708 136.726 175.338 134.067 174.708 131.683C174.077 129.301 173.121 127.452 171.842 126.136C171.392 125.673 170.899 125.286 170.366 124.975C169.384 124.401 165.011 121.886 164.475 121.573C163.495 121.003 162.377 120.686 161.12 120.622C159.174 120.526 156.847 121.257 154.143 122.818C151.44 124.379 149.114 126.333 147.167 128.678C145.221 131.024 143.607 133.593 142.327 136.385C141.047 139.177 140.09 142.131 139.461 145.241C138.829 148.353 138.46 151.439 138.351 154.499C138.279 156.928 138.244 159.446 138.244 162.056C138.244 164.665 138.28 167.085 138.351 169.32C138.46 172.254 138.829 174.914 139.461 177.297C140.09 179.681 141.047 181.531 142.327 182.844C142.774 183.304 143.262 183.69 143.791 184C144.775 184.579 149.207 187.134 149.775 187.454C150.735 187.996 151.826 188.297 153.048 188.358C154.995 188.454 157.321 187.723 160.025 186.162C162.728 184.601 165.055 182.647 167.002 180.302C168.948 177.959 170.562 175.388 171.842 172.595C173.121 169.805 174.077 166.851 174.708 163.739C175.338 160.628 175.708 157.541 175.817 154.481C175.888 152.165 175.924 149.701 175.924 147.093C175.925 144.484 175.888 142.008 175.817 139.66ZM154.447 169.25C154.335 168.423 154.265 167.517 154.239 166.523C154.058 161.91 154.058 157.246 154.239 152.535C154.274 151.128 154.401 149.777 154.617 148.487C154.834 147.196 155.158 145.997 155.59 144.885C156.023 143.776 156.6 142.762 157.322 141.846C157.961 141.034 158.75 140.344 159.672 139.761C159.79 140.583 159.877 141.481 159.929 142.458C160.073 146.983 160.073 151.645 159.929 156.446C159.892 157.854 159.775 159.199 159.578 160.478C159.38 161.758 159.055 162.959 158.604 164.079C158.154 165.2 157.567 166.218 156.847 167.133C156.196 167.96 155.392 168.662 154.447 169.25Z" fill="#27DEBF"/>
<path opacity="0.15" d="M149.619 187.362C148.642 186.804 144.71 184.538 143.791 184.002C143.262 183.691 142.777 183.3 142.328 182.844C141.047 181.526 140.091 179.68 139.461 177.298C138.832 174.916 138.462 172.252 138.354 169.32C138.281 167.083 138.245 164.664 138.245 162.058C138.245 159.444 138.281 156.925 138.354 154.499C138.462 151.437 138.832 148.353 139.461 145.239C139.903 143.046 140.511 140.939 141.286 138.904L147.158 142.307C146.39 144.334 145.789 146.449 145.348 148.635C144.71 151.748 144.341 154.832 144.233 157.895C144.16 160.32 144.124 162.84 144.124 165.453C144.124 168.06 144.16 170.478 144.233 172.715C144.341 175.647 144.71 178.312 145.348 180.694C145.97 183.076 146.933 184.929 148.207 186.24C148.635 186.681 149.112 187.058 149.619 187.362Z" fill="black"/>
<path opacity="0.4" d="M170.145 124.852C169.218 124.359 168.168 124.084 167.003 124.019C165.055 123.925 162.731 124.656 160.023 126.213C157.323 127.777 154.999 129.731 153.051 132.077C151.104 134.423 149.489 136.986 148.208 139.78C148.012 140.2 147.831 140.628 147.65 141.062C147.484 141.475 147.324 141.887 147.165 142.307H147.158L141.286 138.904C141.424 138.535 141.568 138.166 141.721 137.804C141.916 137.326 142.111 136.855 142.329 136.385C143.61 133.59 145.225 131.027 147.165 128.674C149.113 126.336 151.444 124.381 154.144 122.817C156.845 121.253 159.176 120.529 161.124 120.623C162.376 120.689 163.498 121 164.476 121.572C164.983 121.869 168.849 124.091 170.145 124.852Z" fill="white"/>
<path opacity="0.3" d="M165.815 159.842C165.778 161.247 165.655 162.594 165.46 163.875C165.264 165.157 164.939 166.351 164.49 167.473C164.294 167.959 164.07 168.429 163.816 168.878L157.938 165.482C158.184 165.034 158.408 164.563 158.604 164.078C159.052 162.956 159.378 161.761 159.581 160.48C159.776 159.198 159.892 157.851 159.928 156.447C160.073 151.647 160.073 146.984 159.928 142.459C159.878 141.482 159.791 140.584 159.675 139.759C159.675 139.759 159.827 139.65 160.023 139.534C161.101 138.89 162.006 138.644 162.73 138.723C163.447 138.81 164.026 139.158 164.461 139.766C164.895 140.374 165.206 141.207 165.409 142.257C165.605 143.306 165.742 144.508 165.815 145.855C165.952 150.38 165.952 155.042 165.815 159.842Z" fill="black"/>
<path opacity="0.4" d="M163.817 168.878C163.498 169.464 163.136 170.015 162.731 170.529C162.007 171.448 161.109 172.216 160.023 172.838C158.944 173.468 158.047 173.736 157.323 173.649C156.599 173.57 156.012 173.229 155.563 172.628C155.114 172.027 154.789 171.202 154.593 170.152C154.535 169.863 154.492 169.559 154.448 169.247C155.389 168.661 156.2 167.959 156.845 167.133C157.25 166.619 157.619 166.069 157.938 165.482L163.817 168.878Z" fill="black"/>
<path d="M160.026 126.214C162.729 124.653 165.056 123.922 167.003 124.018C168.949 124.117 170.563 124.823 171.843 126.137C173.122 127.453 174.078 129.301 174.709 131.684C175.339 134.068 175.709 136.727 175.818 139.661C175.889 142.008 175.925 144.484 175.925 147.094C175.925 149.703 175.888 152.166 175.818 154.482C175.709 157.542 175.339 160.629 174.709 163.74C174.078 166.852 173.122 169.806 171.843 172.596C170.563 175.388 168.949 177.959 167.003 180.303C165.056 182.647 162.73 184.602 160.026 186.163C157.323 187.724 154.997 188.455 153.05 188.359C151.103 188.262 149.49 187.556 148.21 186.24C146.93 184.927 145.973 183.077 145.344 180.693C144.712 178.31 144.343 175.65 144.234 172.716C144.162 170.482 144.127 168.061 144.127 165.452C144.127 162.844 144.162 160.325 144.234 157.895C144.343 154.835 144.712 151.75 145.344 148.637C145.973 145.526 146.93 142.574 148.21 139.781C149.49 136.99 151.103 134.421 153.05 132.074C154.997 129.729 157.322 127.775 160.026 126.214ZM165.812 159.842C165.956 155.041 165.956 150.379 165.812 145.854C165.74 144.51 165.604 143.31 165.407 142.258C165.208 141.207 164.892 140.377 164.46 139.765C164.027 139.156 163.449 138.808 162.729 138.724C162.008 138.641 161.107 138.912 160.025 139.536C158.944 140.161 158.043 140.93 157.322 141.846C156.601 142.763 156.024 143.776 155.591 144.885C155.159 145.996 154.834 147.195 154.617 148.487C154.401 149.777 154.274 151.128 154.239 152.535C154.058 157.247 154.058 161.91 154.239 166.523C154.275 167.891 154.393 169.098 154.59 170.15C154.787 171.201 155.112 172.028 155.564 172.626C156.015 173.227 156.601 173.57 157.322 173.651C158.043 173.735 158.944 173.465 160.025 172.84C161.107 172.216 162.008 171.445 162.729 170.529C163.449 169.614 164.036 168.596 164.487 167.475C164.937 166.355 165.261 165.155 165.46 163.874C165.658 162.595 165.775 161.25 165.812 159.842Z" fill="#27DEBF"/>
<path d="M217.313 128.858C217.254 128.803 217.193 128.757 217.13 128.722C216.883 128.583 211.634 125.55 211.634 125.55V99.4994C211.634 98.8898 211.489 98.446 211.201 98.1673C211.145 98.1137 211.087 98.0695 211.027 98.0348C210.777 97.8907 205.211 94.6783 205.154 94.6443C204.902 94.4944 204.614 94.5125 204.291 94.6979L196.126 99.4126C195.658 99.6841 195.288 99.9954 195.017 100.344C194.748 100.695 194.45 101.269 194.126 102.067L177.956 142.792C177.488 144.007 177.253 145.334 177.253 146.778V155.603C177.253 156.214 177.396 156.658 177.685 156.935C177.744 156.992 177.805 157.038 177.868 157.073C178.116 157.212 183.681 160.429 183.741 160.465C183.991 160.609 184.275 160.589 184.594 160.404L195.748 153.965V155.665C195.748 156.276 195.892 156.72 196.18 156.997C196.237 157.052 196.295 157.097 196.356 157.131C196.605 157.275 202.176 160.491 202.235 160.525C202.485 160.671 202.77 160.651 203.091 160.466L210.175 156.375C210.571 156.148 210.914 155.727 211.203 155.117C211.49 154.506 211.635 153.896 211.635 153.285V144.793L216.286 142.108C216.682 141.879 217.025 141.46 217.314 140.848C217.601 140.238 217.746 139.627 217.746 139.017V130.192C217.745 129.581 217.601 129.138 217.313 128.858Z" fill="#27DEBF"/>
<path opacity="0.15" d="M200.86 103.732L200.831 103.833C200.578 104.188 200.302 104.731 200.006 105.462L183.839 146.187C183.629 146.723 183.469 147.28 183.361 147.86L177.438 144.442C177.554 143.87 177.706 143.32 177.909 142.792L194.076 102.067C194.402 101.27 194.699 100.691 194.974 100.343C194.974 100.343 194.974 100.336 194.981 100.336L200.86 103.732Z" fill="black"/>
<path opacity="0.3" d="M183.672 160.421C183.006 160.037 178.104 157.206 177.865 157.076C177.807 157.04 177.742 156.989 177.684 156.931C177.395 156.656 177.25 156.215 177.25 155.599V146.781C177.25 145.97 177.337 145.203 177.482 144.464L183.361 147.86C183.209 148.591 183.136 149.366 183.136 150.176V159.002C183.136 159.61 183.281 160.052 183.563 160.327C183.599 160.363 183.636 160.392 183.672 160.421Z" fill="black"/>
<path opacity="0.3" d="M201.902 121.774V137.094L196.95 134.234L201.902 121.774Z" fill="black"/>
<path opacity="0.4" d="M201.902 137.094L194.003 141.648L196.95 134.234L201.902 137.094Z" fill="black"/>
<path opacity="0.3" d="M202.061 160.392C202.098 160.421 202.126 160.45 202.163 160.479C201.504 160.102 196.588 157.264 196.356 157.134C196.291 157.098 196.233 157.054 196.182 156.996C195.893 156.721 195.748 156.272 195.748 155.664V153.963L201.627 150.567V159.06C201.627 159.668 201.772 160.117 202.061 160.392Z" fill="black"/>
<path opacity="0.15" d="M217.063 128.688C216.831 128.587 216.57 128.616 216.288 128.782L211.633 131.468V125.553C211.633 125.553 216.418 128.312 217.063 128.688Z" fill="black"/>
<path opacity="0.4" d="M210.989 98.0122C210.75 97.8891 210.475 97.9181 210.17 98.0918L202.011 102.805C201.54 103.08 201.178 103.384 200.903 103.732L195.024 100.336C195.292 99.9887 195.662 99.6846 196.125 99.4095L204.292 94.6963C204.617 94.5081 204.9 94.4936 205.153 94.6456C205.211 94.6746 210.438 97.6937 210.989 98.0122Z" fill="white"/>
<path d="M203.089 160.467C202.692 160.695 202.349 160.672 202.061 160.393C201.773 160.115 201.629 159.672 201.629 159.061V150.568L184.593 160.404C184.197 160.633 183.855 160.609 183.566 160.331C183.277 160.053 183.134 159.609 183.134 158.998V150.174C183.134 148.73 183.368 147.402 183.837 146.187L200.007 105.462C200.331 104.664 200.629 104.09 200.899 103.74C201.169 103.391 201.539 103.079 202.008 102.808L210.173 98.0933C210.569 97.866 210.911 97.8898 211.201 98.1671C211.489 98.4459 211.633 98.8897 211.633 99.4993V131.471L216.284 128.786C216.68 128.557 217.023 128.582 217.312 128.858C217.6 129.138 217.745 129.581 217.745 130.192V139.017C217.745 139.628 217.601 140.239 217.312 140.848C217.023 141.46 216.68 141.879 216.284 142.107L211.633 144.793V153.285C211.633 153.897 211.489 154.507 211.201 155.117C210.912 155.728 210.569 156.148 210.173 156.375L203.089 160.467ZM201.899 137.091V121.772L194.004 141.65L201.899 137.091Z" fill="#27DEBF"/>
<path d="M145.684 211.722C145.774 211.669 145.852 211.675 145.917 211.737C145.982 211.8 146.015 211.902 146.015 212.04V214.038C146.015 214.177 145.982 214.316 145.917 214.454C145.851 214.591 145.774 214.686 145.684 214.738L139.879 218.091C139.789 218.142 139.711 218.137 139.646 218.074C139.58 218.012 139.548 217.911 139.548 217.773V205.591C139.548 205.452 139.58 205.314 139.646 205.175C139.711 205.038 139.789 204.943 139.879 204.891L145.587 201.594C145.677 201.543 145.753 201.549 145.819 201.611C145.885 201.674 145.918 201.775 145.918 201.912V203.912C145.918 204.05 145.885 204.188 145.819 204.326C145.753 204.464 145.677 204.559 145.587 204.612L141.814 206.79V208.827L145.317 206.804C145.407 206.753 145.484 206.758 145.55 206.821C145.616 206.884 145.648 206.985 145.648 207.122V209.122C145.648 209.26 145.616 209.398 145.55 209.536C145.484 209.674 145.407 209.769 145.317 209.822L141.814 211.844V213.957L145.684 211.722Z" fill="#455A64"/>
<path d="M151.379 198.249C151.918 197.938 152.4 197.748 152.825 197.678C153.249 197.609 153.611 197.666 153.909 197.845C154.207 198.025 154.436 198.343 154.594 198.797C154.754 199.252 154.833 199.844 154.833 200.574C154.833 201.516 154.706 202.372 154.454 203.141C154.201 203.909 153.841 204.592 153.376 205.187L154.895 208.798C154.92 208.859 154.932 208.921 154.932 208.983C154.932 209.096 154.906 209.21 154.853 209.323C154.799 209.434 154.736 209.513 154.663 209.555L152.997 210.516C152.833 210.61 152.717 210.621 152.648 210.547C152.578 210.475 152.523 210.393 152.483 210.304L151.123 207.053L149.996 207.703V211.739C149.996 211.877 149.962 212.016 149.898 212.154C149.832 212.291 149.755 212.387 149.665 212.438L148.06 213.364C147.97 213.416 147.893 213.411 147.828 213.348C147.762 213.285 147.729 213.184 147.729 213.046V200.864C147.729 200.727 147.762 200.588 147.828 200.45C147.893 200.311 147.97 200.216 148.06 200.164L151.379 198.249ZM149.996 204.762L151.379 203.963C151.722 203.765 152.006 203.5 152.231 203.17C152.456 202.839 152.568 202.409 152.568 201.882C152.568 201.354 152.456 201.053 152.231 200.983C152.006 200.911 151.722 200.974 151.379 201.173L149.996 201.972V204.762Z" fill="#455A64"/>
<path d="M160.198 193.157C160.737 192.846 161.218 192.656 161.643 192.587C162.068 192.518 162.43 192.574 162.727 192.753C163.025 192.933 163.254 193.252 163.413 193.706C163.572 194.161 163.652 194.753 163.652 195.482C163.652 196.425 163.525 197.281 163.272 198.049C163.019 198.817 162.66 199.5 162.195 200.095L163.714 203.706C163.738 203.768 163.751 203.829 163.751 203.892C163.751 204.005 163.724 204.118 163.671 204.231C163.618 204.343 163.555 204.421 163.481 204.463L161.816 205.424C161.652 205.519 161.535 205.529 161.467 205.456C161.397 205.383 161.342 205.302 161.301 205.212L159.941 201.961L158.815 202.611V206.647C158.815 206.785 158.781 206.924 158.716 207.063C158.65 207.2 158.573 207.296 158.484 207.347L156.879 208.274C156.789 208.325 156.712 208.32 156.646 208.258C156.58 208.196 156.548 208.094 156.548 207.956V195.774C156.548 195.636 156.58 195.497 156.646 195.359C156.712 195.221 156.789 195.126 156.879 195.075L160.198 193.157ZM158.815 199.671L160.198 198.872C160.541 198.674 160.825 198.409 161.05 198.078C161.274 197.748 161.387 197.318 161.387 196.79C161.387 196.262 161.274 195.962 161.05 195.891C160.826 195.819 160.541 195.883 160.198 196.081L158.815 196.88V199.671Z" fill="#455A64"/>
<path d="M165.084 195.258C165.109 194.541 165.209 193.82 165.385 193.096C165.56 192.372 165.81 191.688 166.131 191.043C166.454 190.398 166.846 189.807 167.308 189.271C167.769 188.734 168.302 188.291 168.906 187.942C169.502 187.598 170.034 187.426 170.499 187.428C170.964 187.43 171.357 187.567 171.68 187.84C172.003 188.113 172.251 188.509 172.427 189.029C172.602 189.55 172.703 190.156 172.727 190.846C172.744 191.377 172.752 191.938 172.752 192.529C172.752 193.12 172.744 193.678 172.727 194.203C172.703 194.921 172.602 195.641 172.427 196.365C172.251 197.089 172.003 197.776 171.68 198.428C171.358 199.08 170.964 199.671 170.499 200.204C170.033 200.736 169.502 201.176 168.906 201.519C168.302 201.868 167.769 202.044 167.308 202.046C166.846 202.047 166.454 201.91 166.131 201.631C165.81 201.352 165.56 200.951 165.385 200.431C165.209 199.909 165.109 199.305 165.084 198.615C165.068 198.11 165.061 197.561 165.061 196.97C165.061 196.379 165.069 195.809 165.084 195.258ZM170.462 195.416C170.47 195.185 170.478 194.929 170.487 194.647C170.495 194.367 170.499 194.081 170.499 193.792C170.499 193.503 170.495 193.226 170.487 192.96C170.478 192.695 170.47 192.458 170.462 192.248C170.446 191.943 170.403 191.679 170.333 191.455C170.263 191.231 170.165 191.059 170.039 190.936C169.913 190.815 169.756 190.752 169.568 190.747C169.381 190.742 169.16 190.813 168.906 190.959C168.654 191.105 168.434 191.289 168.245 191.51C168.057 191.733 167.9 191.977 167.774 192.244C167.647 192.513 167.549 192.799 167.481 193.103C167.411 193.407 167.368 193.721 167.352 194.045C167.335 194.269 167.325 194.516 167.321 194.789C167.317 195.062 167.315 195.342 167.315 195.631C167.315 195.92 167.317 196.203 167.321 196.476C167.325 196.751 167.335 196.996 167.352 197.213C167.385 197.824 167.525 198.263 167.774 198.535C168.024 198.805 168.4 198.795 168.906 198.502C169.413 198.21 169.789 197.786 170.034 197.229C170.278 196.672 170.421 196.069 170.462 195.416Z" fill="#455A64"/>
<path d="M178.117 182.812C178.656 182.501 179.138 182.31 179.563 182.241C179.988 182.172 180.349 182.228 180.647 182.407C180.945 182.587 181.173 182.906 181.332 183.359C181.492 183.814 181.571 184.406 181.571 185.136C181.571 186.078 181.444 186.934 181.192 187.703C180.939 188.47 180.579 189.154 180.114 189.749L181.633 193.36C181.657 193.421 181.67 193.483 181.67 193.546C181.67 193.658 181.644 193.772 181.59 193.885C181.538 193.997 181.475 194.075 181.401 194.117L179.735 195.078C179.571 195.172 179.455 195.183 179.387 195.109C179.316 195.037 179.261 194.955 179.221 194.866L177.86 191.615L176.734 192.265V196.301C176.734 196.439 176.701 196.578 176.635 196.716C176.57 196.853 176.493 196.949 176.403 197L174.798 197.926C174.708 197.979 174.631 197.973 174.566 197.911C174.5 197.848 174.468 197.747 174.468 197.609V185.427C174.468 185.29 174.5 185.151 174.566 185.012C174.631 184.874 174.708 184.779 174.798 184.726L178.117 182.812ZM176.734 189.325L178.117 188.526C178.461 188.328 178.744 188.063 178.97 187.733C179.194 187.402 179.306 186.972 179.306 186.445C179.306 185.917 179.194 185.616 178.97 185.546C178.744 185.474 178.461 185.537 178.117 185.736L176.734 186.535V189.325Z" fill="#455A64"/>
<path d="M123.596 232.574C124.353 232.138 124.942 232.072 125.362 232.379C125.78 232.686 125.99 233.368 125.99 234.429C125.99 235.488 125.78 236.419 125.362 237.22C124.942 238.021 124.353 238.64 123.596 239.076L122.094 239.944V243.166C122.094 243.273 122.07 243.378 122.019 243.484C121.97 243.591 121.91 243.663 121.841 243.703L121.081 244.142C121.011 244.182 120.952 244.178 120.902 244.128C120.852 244.081 120.827 244.003 120.827 243.898V234.562C120.827 234.457 120.851 234.351 120.902 234.244C120.952 234.138 121.011 234.066 121.081 234.026L123.596 232.574ZM122.093 238.137L123.549 237.297C123.906 237.091 124.191 236.819 124.403 236.479C124.616 236.14 124.722 235.7 124.722 235.16C124.722 234.622 124.616 234.309 124.403 234.225C124.191 234.141 123.906 234.202 123.549 234.408L122.093 235.248V238.137Z" fill="#E0E0E0"/>
<path d="M129.941 228.911C130.041 228.853 130.115 228.851 130.166 228.903C130.216 228.956 130.26 229.054 130.298 229.196L132.597 237.001C132.604 237.026 132.607 237.059 132.607 237.097C132.607 237.203 132.582 237.309 132.532 237.414C132.482 237.521 132.423 237.594 132.354 237.633L131.678 238.024C131.552 238.096 131.464 238.105 131.415 238.052C131.365 238 131.331 237.94 131.311 237.874L130.907 236.502L127.941 238.214L127.537 240.052C127.518 240.14 127.484 240.239 127.434 240.349C127.384 240.461 127.295 240.552 127.171 240.624L126.495 241.015C126.426 241.054 126.366 241.051 126.316 241.001C126.267 240.954 126.241 240.876 126.241 240.771C126.241 240.732 126.244 240.697 126.251 240.664L128.551 230.204C128.588 230.018 128.632 229.87 128.683 229.76C128.732 229.649 128.807 229.564 128.908 229.507L129.941 228.911ZM130.457 234.957L129.425 231.435L128.391 236.149L130.457 234.957Z" fill="#E0E0E0"/>
<path d="M133.329 230.697C133.342 230.112 133.41 229.545 133.536 228.995C133.662 228.446 133.843 227.932 134.081 227.452C134.318 226.974 134.611 226.54 134.958 226.151C135.305 225.762 135.711 225.434 136.174 225.167C136.718 224.853 137.167 224.703 137.521 224.714C137.874 224.728 138.156 224.825 138.365 225.008C138.575 225.189 138.722 225.418 138.806 225.691C138.89 225.965 138.94 226.21 138.952 226.424C138.958 226.537 138.935 226.645 138.881 226.747C138.828 226.849 138.767 226.921 138.698 226.961L137.938 227.399C137.868 227.44 137.814 227.445 137.773 227.414C137.732 227.385 137.702 227.346 137.684 227.3C137.671 227.269 137.638 227.203 137.585 227.104C137.531 227.004 137.447 226.918 137.332 226.846C137.217 226.772 137.064 226.736 136.877 226.733C136.689 226.731 136.454 226.81 136.173 226.973C135.703 227.243 135.328 227.655 135.046 228.208C134.764 228.762 134.614 229.37 134.596 230.037C134.583 230.411 134.577 230.807 134.577 231.225C134.577 231.644 134.583 232.034 134.596 232.392C134.614 233.181 134.764 233.675 135.046 233.873C135.328 234.071 135.703 234.037 136.173 233.765C136.403 233.632 136.617 233.47 136.811 233.281C137.005 233.092 137.172 232.87 137.313 232.615C137.453 232.36 137.563 232.069 137.641 231.739C137.719 231.41 137.759 231.038 137.759 230.624V230.508L136.613 231.169C136.544 231.209 136.485 231.205 136.435 231.157C136.385 231.109 136.36 231.031 136.36 230.926V229.899C136.36 229.793 136.384 229.688 136.435 229.581C136.485 229.475 136.544 229.402 136.613 229.362L138.772 228.116C138.842 228.076 138.901 228.08 138.951 228.128C139 228.177 139.027 228.254 139.027 228.36V229.949C139.027 230.527 138.967 231.094 138.848 231.649C138.73 232.204 138.551 232.726 138.313 233.215C138.076 233.704 137.778 234.15 137.422 234.554C137.065 234.958 136.65 235.296 136.173 235.57C135.698 235.845 135.284 235.987 134.934 235.997C134.584 236.007 134.292 235.905 134.061 235.692C133.83 235.478 133.653 235.164 133.531 234.748C133.41 234.331 133.342 233.837 133.329 233.268C133.324 233.088 133.319 232.889 133.315 232.668C133.312 232.449 133.311 232.224 133.311 231.992C133.311 231.76 133.312 231.533 133.315 231.311C133.319 231.089 133.324 230.884 133.329 230.697Z" fill="#E0E0E0"/>
<path d="M144.818 228.63C144.887 228.59 144.946 228.595 144.996 228.644C145.046 228.691 145.071 228.769 145.071 228.874V229.9C145.071 230.006 145.046 230.113 144.996 230.218C144.946 230.325 144.887 230.398 144.818 230.438L140.698 232.816C140.629 232.856 140.57 232.852 140.52 232.803C140.47 232.756 140.444 232.678 140.444 232.572V223.237C140.444 223.131 140.469 223.026 140.52 222.919C140.57 222.813 140.629 222.741 140.698 222.7L144.743 220.365C144.813 220.325 144.872 220.328 144.922 220.377C144.972 220.425 144.997 220.503 144.997 220.609V221.634C144.997 221.74 144.972 221.847 144.922 221.952C144.872 222.058 144.813 222.13 144.743 222.171L141.711 223.921V226.219L144.536 224.587C144.605 224.547 144.665 224.552 144.714 224.601C144.764 224.648 144.79 224.726 144.79 224.832V225.857C144.79 225.964 144.764 226.07 144.714 226.175C144.665 226.281 144.605 226.354 144.536 226.394L141.711 228.024V230.424L144.818 228.63Z" fill="#E0E0E0"/>
<path d="M153.105 225.652C152.998 225.714 152.917 225.717 152.861 225.663C152.805 225.609 152.764 225.564 152.739 225.531L150.11 221.036V226.991C150.11 227.096 150.086 227.203 150.035 227.308C149.986 227.415 149.927 227.487 149.857 227.527L149.097 227.965C149.027 228.006 148.968 228.002 148.918 227.953C148.868 227.906 148.843 227.828 148.843 227.723V218.387C148.843 218.281 148.867 218.176 148.918 218.069C148.968 217.962 149.027 217.891 149.097 217.851L149.754 217.471C149.859 217.41 149.941 217.406 149.998 217.461C150.054 217.514 150.095 217.559 150.119 217.592L152.748 222.086V216.133C152.748 216.026 152.773 215.921 152.823 215.814C152.873 215.709 152.933 215.636 153.001 215.596L153.762 215.156C153.83 215.116 153.89 215.121 153.94 215.169C153.99 215.218 154.016 215.295 154.016 215.401V224.735C154.016 224.842 153.99 224.948 153.94 225.054C153.89 225.16 153.83 225.233 153.762 225.273L153.105 225.652Z" fill="#E0E0E0"/>
<path d="M155.49 217.931C155.508 217.381 155.576 216.834 155.691 216.291C155.807 215.747 155.978 215.234 156.203 214.752C156.429 214.27 156.709 213.829 157.048 213.427C157.386 213.024 157.786 212.689 158.249 212.422C158.706 212.158 159.103 212.03 159.44 212.037C159.779 212.044 160.059 212.162 160.285 212.388C160.51 212.614 160.683 212.928 160.802 213.332C160.92 213.736 160.99 214.206 161.008 214.745C161.014 214.924 161.019 215.124 161.022 215.344C161.025 215.564 161.027 215.791 161.027 216.027C161.027 216.263 161.025 216.492 161.022 216.716C161.019 216.939 161.014 217.144 161.008 217.331C160.99 217.881 160.922 218.429 160.807 218.972C160.69 219.517 160.52 220.029 160.295 220.511C160.069 220.992 159.786 221.433 159.445 221.832C159.104 222.231 158.705 222.563 158.249 222.826C157.785 223.093 157.386 223.224 157.048 223.216C156.709 223.209 156.429 223.095 156.203 222.873C155.978 222.652 155.807 222.336 155.691 221.925C155.576 221.516 155.508 221.046 155.49 220.517C155.483 220.339 155.479 220.139 155.475 219.919C155.472 219.699 155.471 219.472 155.471 219.236C155.471 219 155.472 218.769 155.475 218.546C155.479 218.323 155.484 218.118 155.49 217.931ZM159.742 215.549C159.717 214.87 159.571 214.418 159.305 214.19C159.039 213.962 158.687 213.975 158.249 214.228C157.81 214.481 157.459 214.875 157.193 215.41C156.927 215.943 156.782 216.564 156.756 217.272C156.744 217.646 156.738 218.056 156.738 218.504C156.738 218.952 156.744 219.355 156.756 219.714C156.781 220.394 156.927 220.844 157.193 221.066C157.459 221.289 157.81 221.274 158.249 221.021C158.687 220.767 159.039 220.375 159.305 219.847C159.57 219.318 159.716 218.699 159.742 217.991C159.754 217.617 159.76 217.207 159.76 216.759C159.76 216.312 159.754 215.908 159.742 215.549Z" fill="#E0E0E0"/>
<path d="M166.725 207.674C166.794 207.634 166.853 207.638 166.903 207.687C166.953 207.734 166.979 207.812 166.979 207.918V208.943C166.979 209.05 166.954 209.156 166.903 209.262C166.853 209.368 166.794 209.441 166.725 209.481L165.036 210.456V218.375C165.036 218.481 165.01 218.588 164.96 218.693C164.91 218.799 164.851 218.872 164.782 218.912L164.022 219.35C163.953 219.39 163.894 219.386 163.844 219.337C163.794 219.29 163.769 219.213 163.769 219.107V211.188L162.08 212.163C162.011 212.203 161.951 212.198 161.901 212.149C161.852 212.102 161.826 212.025 161.826 211.919V210.893C161.826 210.788 161.852 210.682 161.901 210.575C161.951 210.468 162.011 210.397 162.08 210.357L166.725 207.674Z" fill="#E0E0E0"/>
<path d="M174.553 203.154C174.622 203.115 174.681 203.118 174.731 203.167C174.781 203.215 174.807 203.292 174.807 203.398V204.424C174.807 204.531 174.782 204.636 174.731 204.742C174.681 204.848 174.622 204.921 174.553 204.961L171.558 206.69V209.493L174.364 207.873C174.434 207.833 174.493 207.837 174.543 207.886C174.593 207.935 174.619 208.012 174.619 208.117V209.143C174.619 209.25 174.594 209.355 174.543 209.461C174.493 209.567 174.434 209.641 174.364 209.681L171.558 211.301V214.609C171.558 214.715 171.534 214.822 171.483 214.927C171.434 215.034 171.374 215.106 171.305 215.146L170.545 215.585C170.475 215.625 170.416 215.621 170.366 215.572C170.316 215.525 170.292 215.446 170.292 215.341V206.005C170.292 205.9 170.316 205.794 170.366 205.688C170.416 205.582 170.475 205.509 170.545 205.469L174.553 203.154Z" fill="#E0E0E0"/>
<path d="M175.829 206.188C175.847 205.638 175.915 205.091 176.03 204.547C176.146 204.004 176.317 203.49 176.542 203.008C176.767 202.527 177.049 202.085 177.386 201.683C177.725 201.281 178.125 200.945 178.588 200.678C179.044 200.415 179.442 200.286 179.779 200.295C180.118 200.302 180.4 200.418 180.625 200.644C180.85 200.87 181.022 201.185 181.141 201.589C181.26 201.993 181.329 202.464 181.347 203.001C181.353 203.18 181.358 203.38 181.36 203.6C181.364 203.82 181.366 204.048 181.366 204.284C181.366 204.52 181.364 204.75 181.36 204.972C181.358 205.197 181.353 205.402 181.347 205.588C181.329 206.139 181.261 206.686 181.146 207.229C181.03 207.774 180.859 208.286 180.634 208.768C180.408 209.249 180.126 209.689 179.784 210.088C179.443 210.488 179.044 210.819 178.588 211.082C178.125 211.35 177.725 211.48 177.386 211.473C177.049 211.465 176.767 211.351 176.542 211.13C176.316 210.908 176.146 210.593 176.03 210.182C175.915 209.772 175.847 209.303 175.829 208.774C175.822 208.595 175.818 208.395 175.815 208.175C175.812 207.955 175.81 207.728 175.81 207.492C175.81 207.256 175.812 207.026 175.815 206.803C175.818 206.58 175.822 206.375 175.829 206.188ZM180.081 203.806C180.056 203.125 179.91 202.673 179.644 202.447C179.378 202.22 179.026 202.232 178.588 202.485C178.15 202.739 177.798 203.132 177.532 203.666C177.266 204.2 177.121 204.821 177.095 205.53C177.082 205.903 177.077 206.313 177.077 206.761C177.077 207.208 177.083 207.613 177.095 207.972C177.12 208.651 177.266 209.101 177.532 209.323C177.798 209.546 178.15 209.53 178.588 209.277C179.026 209.024 179.378 208.633 179.644 208.103C179.91 207.574 180.055 206.956 180.081 206.247C180.093 205.874 180.099 205.463 180.099 205.016C180.099 204.568 180.093 204.165 180.081 203.806Z" fill="#E0E0E0"/>
<path d="M187.9 195.447C187.968 195.408 188.028 195.412 188.078 195.46C188.128 195.509 188.153 195.586 188.153 195.692V201.617C188.153 202.214 188.097 202.787 187.984 203.332C187.871 203.88 187.702 204.392 187.477 204.868C187.252 205.344 186.97 205.775 186.632 206.158C186.294 206.541 185.904 206.861 185.459 207.116C185.009 207.376 184.616 207.51 184.281 207.515C183.947 207.521 183.666 207.414 183.441 207.198C183.216 206.981 183.048 206.664 182.939 206.245C182.829 205.827 182.774 205.319 182.774 204.723V198.797C182.774 198.691 182.8 198.585 182.85 198.479C182.9 198.373 182.959 198.301 183.029 198.26L183.789 197.822C183.858 197.782 183.917 197.786 183.967 197.834C184.017 197.883 184.042 197.96 184.042 198.066V203.918C184.042 204.314 184.077 204.631 184.146 204.87C184.214 205.11 184.312 205.282 184.437 205.389C184.562 205.495 184.713 205.538 184.887 205.519C185.062 205.5 185.253 205.431 185.46 205.311C185.666 205.192 185.859 205.04 186.037 204.855C186.216 204.67 186.367 204.453 186.492 204.203C186.618 203.952 186.717 203.666 186.788 203.345C186.861 203.024 186.895 202.666 186.895 202.271V196.419C186.895 196.313 186.92 196.208 186.971 196.1C187.021 195.994 187.08 195.922 187.149 195.883L187.9 195.447Z" fill="#E0E0E0"/>
<path d="M194.066 202.003C193.96 202.065 193.878 202.068 193.822 202.014C193.766 201.96 193.724 201.916 193.7 201.882L191.072 197.388V203.342C191.072 203.448 191.046 203.555 190.996 203.659C190.947 203.765 190.888 203.839 190.818 203.878L190.059 204.316C189.989 204.357 189.93 204.353 189.88 204.303C189.83 204.256 189.805 204.179 189.805 204.073V194.737C189.805 194.631 189.829 194.526 189.88 194.419C189.93 194.313 189.989 194.241 190.059 194.201L190.715 193.822C190.821 193.76 190.903 193.757 190.959 193.811C191.015 193.865 191.056 193.91 191.081 193.943L193.71 198.437V192.483C193.71 192.377 193.734 192.272 193.785 192.166C193.834 192.06 193.894 191.987 193.963 191.948L194.724 191.508C194.792 191.468 194.852 191.473 194.902 191.521C194.952 191.57 194.976 191.647 194.976 191.753V201.087C194.976 201.193 194.952 201.299 194.902 201.405C194.852 201.512 194.792 201.585 194.724 201.625L194.066 202.003Z" fill="#E0E0E0"/>
<path d="M199.248 188.896C199.711 188.629 200.113 188.491 200.454 188.482C200.795 188.473 201.079 188.576 201.308 188.791C201.536 189.006 201.712 189.323 201.834 189.744C201.956 190.166 202.03 190.672 202.055 191.265C202.08 191.964 202.08 192.676 202.055 193.404C202.03 194.025 201.956 194.616 201.834 195.178C201.712 195.74 201.538 196.259 201.313 196.735C201.088 197.213 200.808 197.642 200.473 198.022C200.137 198.404 199.745 198.725 199.295 198.985L196.929 200.35C196.861 200.39 196.801 200.387 196.751 200.337C196.701 200.29 196.677 200.212 196.677 200.106V190.77C196.677 190.664 196.701 190.56 196.751 190.452C196.801 190.346 196.861 190.274 196.929 190.234L199.248 188.896ZM200.787 191.996C200.774 191.696 200.735 191.432 200.67 191.204C200.604 190.977 200.507 190.802 200.379 190.678C200.25 190.555 200.09 190.494 199.896 190.495C199.702 190.496 199.47 190.574 199.201 190.73L197.944 191.456V197.958L199.248 197.205C199.505 197.057 199.727 196.874 199.914 196.654C200.103 196.435 200.259 196.193 200.384 195.927C200.509 195.663 200.604 195.376 200.67 195.07C200.736 194.763 200.775 194.45 200.788 194.135C200.812 193.408 200.812 192.694 200.787 191.996Z" fill="#E0E0E0"/>
</svg>
