<svg width="62" height="26" viewBox="0 0 62 26" fill="none" xmlns="http://www.w3.org/2000/svg">
<path d="M10.1306 6.37662C10.1306 6.99888 10.0225 7.57928 9.80561 8.09125C9.58869 8.60242 9.29051 9.04517 8.89768 9.41869C8.50485 9.7922 8.03077 10.0683 7.47543 10.276C6.93351 10.4974 6.32376 10.594 5.67377 10.594C4.96935 10.594 4.34618 10.4837 3.76324 10.2486C3.1945 10.0136 2.70622 9.6956 2.28657 9.26735C1.88032 8.83909 1.56874 8.3408 1.3384 7.74672C1.10807 7.15263 1 6.5022 1 5.79703C1 5.09185 1.10807 4.44223 1.3384 3.84814C1.56874 3.25406 1.88032 2.75577 2.29998 2.32751C2.70622 1.91294 3.19371 1.58128 3.77665 1.34623C4.34539 1.11117 4.98197 1.00089 5.67298 1.00089C6.47205 1.00089 7.17647 1.13934 7.79964 1.42914C8.4094 1.71974 8.92371 2.13431 9.31654 2.64548C9.4112 2.77026 9.45222 2.89423 9.45222 3.019C9.45222 3.14377 9.4112 3.25406 9.32995 3.35066C9.23529 3.44726 9.12644 3.48912 8.97814 3.48912C8.80223 3.48912 8.67997 3.41989 8.58531 3.29592C8.27372 2.86766 7.86748 2.52152 7.36579 2.28646C6.86489 2.0514 6.30877 1.92663 5.67219 1.92663C5.13027 1.92663 4.62937 2.02322 4.18211 2.20274C3.73484 2.39594 3.34201 2.65917 3.01702 3.00451C2.69202 3.34985 2.44828 3.75074 2.27158 4.22085C2.09567 4.70465 2.00101 5.23031 2.00101 5.79703C2.00101 6.36374 2.09567 6.8894 2.27158 7.35952C2.44749 7.84332 2.69123 8.2442 3.01702 8.58955C3.34201 8.93489 3.73484 9.19812 4.18211 9.37763C4.62937 9.57083 5.13027 9.66823 5.67219 9.66823C6.17309 9.66823 6.62035 9.59901 7.04079 9.44686C7.44704 9.3084 7.79964 9.10152 8.11122 8.83829C8.4094 8.57586 8.65314 8.27157 8.84246 7.89806C9.01837 7.52454 9.14064 7.12365 9.18087 6.66803H6.79626C6.45786 6.66803 6.29536 6.51589 6.29536 6.2116C6.29536 5.89363 6.45786 5.74148 6.79626 5.74148H9.60052C9.95312 5.74148 10.129 5.93468 10.129 6.3082V6.37743L10.1306 6.37662ZM18.53 9.5008C18.6791 9.5008 18.8005 9.54266 18.896 9.62557C18.9772 9.70848 19.0183 9.81877 19.0183 9.97091C19.0183 10.1094 18.9772 10.2197 18.896 10.3026C18.8013 10.3855 18.6791 10.4273 18.53 10.4273H12.0948C11.7422 10.4273 11.5663 10.2478 11.5663 9.87431V6.66239H12.5554V9.5016H18.53V9.5008ZM11.5671 4.91959V1.71733C11.5671 1.34381 11.743 1.1643 12.0956 1.1643H18.5308C18.6799 1.1643 18.8013 1.20616 18.8968 1.28907C18.978 1.37199 19.019 1.48227 19.019 1.62073C19.019 1.77287 18.978 1.88316 18.8968 1.96607C18.8021 2.04898 18.6799 2.09084 18.5308 2.09084H12.5562V4.91959H11.5671ZM38.1732 1.1643C39.1348 1.1643 39.8802 1.39936 40.3811 1.88316C40.882 2.36696 41.1266 3.05844 41.1266 3.98419C41.1266 4.91073 40.8828 5.60141 40.3811 6.08522C39.8802 6.56902 39.1348 6.81776 38.1732 6.81776H34.4342V9.95562C34.4342 10.3291 34.2717 10.5086 33.9333 10.5086C33.6083 10.5086 33.4458 10.3291 33.4458 9.95562V1.71572C33.4458 1.3422 33.6217 1.16269 33.9743 1.16269H38.174L38.1732 1.1643ZM38.092 5.89202C38.7561 5.89202 39.2705 5.72619 39.6089 5.40822C39.9473 5.09024 40.124 4.62013 40.124 3.98419C40.124 3.36193 39.9481 2.87813 39.6089 2.56015C39.2705 2.24218 38.7554 2.09004 38.092 2.09004H34.4342V5.89202H38.092ZM49.9322 9.61108C50.0268 9.73585 50.0678 9.85982 50.0678 9.99828C50.0678 10.1504 50.0268 10.2744 49.9322 10.3718C49.8375 10.4684 49.7152 10.5103 49.5662 10.5103C49.4715 10.5103 49.3902 10.4966 49.3224 10.4547C49.2546 10.3992 49.1867 10.3444 49.1189 10.2752L46.3959 6.75014H43.3613V9.95723C43.3613 10.3307 43.1988 10.5103 42.8604 10.5103C42.5354 10.5103 42.3729 10.3307 42.3729 9.95723V1.71733C42.3729 1.34381 42.5488 1.1643 42.9014 1.1643H47.0467C48.0082 1.1643 48.7403 1.39936 49.2412 1.85579C49.7421 2.3259 49.9866 3.0029 49.9866 3.90208C49.9866 4.71753 49.7831 5.36716 49.3768 5.83728C48.9706 6.30739 48.3742 6.5835 47.5752 6.66642V6.69379L49.9322 9.61108ZM46.9654 5.82279C47.6296 5.82279 48.1439 5.65696 48.4823 5.33899C48.8207 5.02102 48.9832 4.56459 48.9832 3.95682C48.9832 3.34824 48.8207 2.87813 48.4823 2.56015C48.1439 2.24218 47.6288 2.09004 46.9654 2.09004H43.3621V5.82279H46.9654Z" fill="#0A6579" stroke="#0A6579" stroke-width="0.284384" stroke-miterlimit="22.9256"/>
<path d="M51.083 5.79614C51.083 5.09097 51.1911 4.44134 51.4214 3.84726C51.6518 3.25317 51.9633 2.75488 52.383 2.32663C52.7892 1.91206 53.2767 1.5804 53.8597 1.34534C54.4284 1.11028 55.065 1 55.756 1C56.447 1 57.0836 1.11028 57.6657 1.34534C58.2479 1.5804 58.7362 1.91206 59.1558 2.32663C59.5621 2.75488 59.8736 3.25317 60.104 3.84726C60.3343 4.44134 60.4424 5.09177 60.4424 5.79614C60.4424 6.50132 60.3343 7.15094 60.104 7.74583C59.8736 8.33992 59.5621 8.83821 59.1558 9.26646C58.7362 9.69472 58.2479 10.0127 57.6657 10.2477C57.0836 10.4828 56.4462 10.5931 55.756 10.5931C55.065 10.5931 54.4284 10.4828 53.8597 10.2477C53.2775 10.0127 52.7892 9.69472 52.383 9.26646C51.9633 8.83821 51.6518 8.33992 51.4214 7.74583C51.1911 7.15175 51.083 6.50132 51.083 5.79614ZM52.0856 5.79614C52.0856 6.36286 52.1803 6.88852 52.3562 7.35863C52.5321 7.84243 52.7758 8.24332 53.1016 8.58866C53.4266 8.934 53.8194 9.19723 54.2667 9.37675C54.714 9.56995 55.2149 9.66735 55.7568 9.66735C56.2987 9.66735 56.7996 9.57075 57.2469 9.37675C57.6941 9.19723 58.087 8.934 58.412 8.58866C58.7369 8.24332 58.9941 7.84243 59.1708 7.35863C59.3467 6.88852 59.4414 6.36286 59.4414 5.79614C59.4414 5.22943 59.3467 4.70377 59.1708 4.21997C58.9949 3.74985 58.7369 3.34897 58.412 3.00363C58.087 2.65828 57.6941 2.39505 57.2469 2.20185C56.7996 2.02234 56.2987 1.92574 55.7568 1.92574C55.2149 1.92574 54.714 2.02234 54.2667 2.20185C53.8194 2.39505 53.4266 2.65828 53.1016 3.00363C52.7766 3.34897 52.5329 3.74985 52.3562 4.21997C52.1803 4.70377 52.0856 5.22943 52.0856 5.79614Z" fill="#0A6579" stroke="#0A6579" stroke-width="0.284384" stroke-miterlimit="22.9256"/>
<path d="M10.4287 15.489C10.6322 15.489 10.7947 15.5583 10.9028 15.6822C10.9974 15.807 11.0519 15.9728 11.0519 16.166V24.3641C11.0519 24.7376 10.8894 24.9171 10.5644 24.9171C10.226 24.9171 10.0635 24.7376 10.0635 24.3641V17.355H10.0367L6.7173 22.7187C6.64947 22.8153 6.58163 22.8982 6.51379 22.9537C6.44595 23.0093 6.33788 23.0366 6.21561 23.0366C6.09335 23.0366 5.98528 23.0093 5.90403 22.9537C5.82278 22.8982 5.75494 22.8289 5.70051 22.7324L2.35433 17.3131H2.32751V24.3778C2.32751 24.5436 2.28649 24.6684 2.20525 24.765C2.11059 24.8752 1.98832 24.9171 1.83923 24.9171C1.69015 24.9171 1.56867 24.8752 1.48663 24.765C1.39197 24.6684 1.35095 24.5436 1.35095 24.3778V16.1797C1.35095 15.9865 1.40538 15.8199 1.51345 15.6822C1.60811 15.5575 1.77061 15.489 1.97412 15.489C2.12321 15.489 2.25889 15.5164 2.35354 15.5719C2.4482 15.6412 2.54286 15.7378 2.62411 15.8625L6.21404 21.6826L9.81737 15.8489C9.96646 15.6138 10.17 15.4898 10.4271 15.4898L10.4287 15.489ZM19.8843 23.9084C20.0334 23.9084 20.1549 23.9503 20.2503 24.0332C20.3316 24.1161 20.3726 24.2264 20.3726 24.3786C20.3726 24.517 20.3316 24.6273 20.2503 24.7102C20.1557 24.7931 20.0334 24.835 19.8843 24.835H13.4491C13.0965 24.835 12.9206 24.6555 12.9206 24.282V16.125C12.9206 15.7515 13.0965 15.5719 13.4491 15.5719H19.8843C20.0334 15.5719 20.1549 15.6138 20.2503 15.6967C20.3316 15.7796 20.3726 15.8899 20.3726 16.0284C20.3726 16.1805 20.3316 16.2908 20.2503 16.3737C20.1557 16.4566 20.0334 16.4985 19.8843 16.4985H13.9098V19.7056H18.8817C19.0308 19.7056 19.1523 19.7466 19.2477 19.8159C19.329 19.8988 19.37 20.0091 19.37 20.1612C19.37 20.3133 19.329 20.4373 19.2477 20.5065C19.1531 20.5895 19.0308 20.6313 18.8817 20.6313H13.9098V23.9076H19.8843V23.9084ZM25.2215 15.5719C25.9803 15.5719 26.6571 15.6822 27.2669 15.8899C27.8632 16.0976 28.3641 16.4011 28.7838 16.802C29.2034 17.2029 29.515 17.6867 29.7454 18.2534C29.9623 18.8201 30.0704 19.4697 30.0704 20.2023C30.0704 20.9348 29.9623 21.5844 29.7454 22.152C29.515 22.7187 29.2034 23.2025 28.7838 23.6034C28.3641 24.0042 27.8624 24.3085 27.2669 24.5154C26.6571 24.7231 25.9795 24.8334 25.2215 24.8334H22.2681C21.9155 24.8334 21.7396 24.6539 21.7396 24.2804V16.1234C21.7396 15.7498 21.9155 15.5703 22.2681 15.5703H25.2215V15.5719ZM25.2893 23.9084C25.8715 23.9084 26.4 23.8255 26.8741 23.6597C27.3481 23.4939 27.741 23.2451 28.066 22.9272C28.391 22.6092 28.6347 22.222 28.8114 21.7656C28.9873 21.3091 29.0686 20.7843 29.0686 20.2031C29.0686 19.6227 28.9873 19.097 28.8114 18.6406C28.6355 18.1841 28.3917 17.7969 28.066 17.479C27.741 17.161 27.3481 16.9259 26.8741 16.7464C26.4 16.5806 25.8715 16.4977 25.2893 16.4977H22.7288V23.9076H25.2893V23.9084ZM32.0629 15.489C32.4013 15.489 32.5638 15.6685 32.5638 16.0421V24.3649C32.5638 24.7384 32.4013 24.9179 32.0629 24.9179C31.7379 24.9179 31.5754 24.7384 31.5754 24.3649V16.0421C31.5754 15.6685 31.7379 15.489 32.0629 15.489ZM42.6702 22.8298C42.6702 22.9545 42.6434 23.0511 42.589 23.134C42.2095 23.7008 41.6952 24.1435 41.0444 24.4888C40.3803 24.8342 39.6222 25 38.7553 25C38.0643 25 37.4277 24.8897 36.859 24.6547C36.2768 24.4196 35.7885 24.1016 35.3823 23.6734C34.9626 23.2451 34.651 22.7468 34.4207 22.1528C34.1904 21.5587 34.0823 20.9082 34.0823 20.2031C34.0823 19.4979 34.1904 18.8483 34.4207 18.2542C34.651 17.6601 34.9626 17.1618 35.3823 16.7335C35.7885 16.319 36.276 15.9873 36.859 15.7523C37.4277 15.5172 38.0643 15.4069 38.7553 15.4069C39.5544 15.4069 40.2588 15.5454 40.8819 15.8352C41.4917 16.1258 42.006 16.5404 42.4265 17.0652C42.5211 17.1755 42.5621 17.3003 42.5621 17.4387C42.5621 17.5772 42.5211 17.6875 42.4399 17.7841C42.3452 17.8807 42.2364 17.9225 42.0873 17.9225C41.9114 17.9225 41.7757 17.8533 41.6676 17.7011C41.356 17.2729 40.9498 16.9267 40.4481 16.6917C39.9472 16.4566 39.3911 16.3319 38.7545 16.3319C38.2126 16.3319 37.7117 16.4285 37.2644 16.608C36.8171 16.8012 36.4243 17.0644 36.0993 17.4097C35.7743 17.7551 35.5306 18.156 35.3539 18.6261C35.178 19.1099 35.0833 19.6355 35.0833 20.2023C35.0833 20.769 35.178 21.2946 35.3539 21.7648C35.5298 22.2486 35.7735 22.6494 36.0993 22.9948C36.4243 23.3401 36.8171 23.6034 37.2644 23.7829C37.7117 23.9761 38.2126 24.0735 38.7545 24.0735C39.4187 24.0735 40.0008 23.9487 40.5017 23.6863C41.0026 23.4238 41.4365 23.0503 41.7749 22.5665C41.8695 22.4144 42.0186 22.3451 42.1945 22.3451C42.3302 22.3451 42.4383 22.387 42.5329 22.4836C42.6276 22.5802 42.6686 22.6913 42.6686 22.829L42.6702 22.8298Z" fill="#0A6579" stroke="#0A6579" stroke-width="0.284384" stroke-miterlimit="22.9256"/>
<path d="M47.9538 15.4062C49.268 15.4062 50.2706 15.7797 50.975 16.5123C51.6794 17.2448 52.032 18.3235 52.032 19.7193V24.3642C52.032 24.7377 51.8695 24.9172 51.5311 24.9172C51.382 24.9172 51.2606 24.8753 51.1793 24.765C51.0847 24.6684 51.0436 24.5437 51.0436 24.3642V21.917H44.853V24.3778C44.853 24.5437 44.812 24.6684 44.7307 24.765C44.636 24.8753 44.5138 24.9172 44.3647 24.9172C44.2156 24.9172 44.0941 24.8753 44.0129 24.765C43.9182 24.6684 43.8772 24.5437 43.8772 24.3778V19.7185C43.8772 18.3219 44.229 17.244 44.9342 16.5115C45.6252 15.7789 46.6412 15.4054 47.9554 15.4054L47.9538 15.4062ZM51.0428 19.692C51.0428 18.5722 50.7857 17.7423 50.2572 17.1756C49.7287 16.6089 48.9564 16.3319 47.9404 16.3319C46.9244 16.3319 46.1656 16.6081 45.6371 17.1756C45.1085 17.7423 44.8514 18.5722 44.8514 19.692V20.9912H51.0421V19.692H51.0428ZM60.5119 23.9085C60.6609 23.9085 60.7824 23.9504 60.8779 24.0333C60.9591 24.1162 61.0001 24.2265 61.0001 24.3786C61.0001 24.5171 60.9591 24.6274 60.8779 24.7103C60.7832 24.7932 60.6609 24.8351 60.5119 24.8351H54.2802C53.9276 24.8351 53.7517 24.6556 53.7517 24.282V16.0421C53.7517 15.6686 53.9142 15.4891 54.2392 15.4891C54.5776 15.4891 54.7401 15.6686 54.7401 16.0421V23.9085H60.5111H60.5119Z" fill="#0A6579" stroke="#0A6579" stroke-width="0.284384" stroke-miterlimit="22.9256"/>
<path d="M12.165 5.76558L20.5865 5.86781L20.6141 5.46049L20.8776 1.54984L27.9478 10.123L27.7837 4.79556L31.8375 4.84789" stroke="#1EA574" stroke-miterlimit="22.9256" stroke-linecap="round" stroke-linejoin="round"/>
</svg>
