<svg width="24" height="24" viewBox="0 0 24 24" fill="none" xmlns="http://www.w3.org/2000/svg">
<path d="M23.0624 4.24844C22.6411 3.67723 22.0575 3.37537 21.3749 3.37537C19.8567 3.37537 18.6656 5.4697 17.9986 6.87545L15.1763 5.57282C13.2121 4.66703 10.8892 4.62043 8.82396 5.57282L6.00173 6.87545C5.3394 5.47959 4.14247 3.37537 2.62535 3.37537C1.94272 3.37537 1.35923 3.67728 0.937883 4.24844C-0.048721 5.5858 0.000402901 8.29582 0.000402901 10.1252C0.000402901 12.3274 0.922836 14.3783 2.668 16.0563C3.87177 17.2138 5.074 17.8174 5.2809 17.9168C5.7165 18.1556 3.84318 17.1423 8.82392 19.8243C10.8629 20.9214 13.2507 20.8609 15.1763 19.8243C20.1815 17.1291 18.2691 18.1634 18.7193 17.9168C18.9262 17.8173 20.1285 17.2137 21.3322 16.0563C23.0774 14.3783 23.9998 12.3274 23.9998 10.1252C23.9999 8.20343 24.0314 5.56199 23.0624 4.24844ZM1.50037 10.1252C1.50037 8.29043 1.50037 4.87529 2.62535 4.87529C2.81462 4.87529 3.32471 5.19051 4.03616 6.37193C4.44593 7.0524 4.75582 7.74594 4.8753 8.02559V15.93C3.56184 15.0135 1.50037 13.101 1.50037 10.1252ZM19.125 15.93V8.02559C19.2445 7.74599 19.5544 7.0524 19.9641 6.37193C20.6756 5.19051 21.1857 4.87529 21.3749 4.87529C22.4999 4.87529 22.4999 8.29043 22.4999 10.1252C22.4999 12.5797 21.1052 14.5507 19.125 15.93Z" fill="#0A6579"/>
</svg>
