<svg width="80" height="31" viewBox="0 0 80 31" fill="none" xmlns="http://www.w3.org/2000/svg">
<g clip-path="url(#clip0_42_328)">
<path d="M12.182 6.95215C12.182 7.75509 12.0376 8.50454 11.7483 9.16483C11.4596 9.82513 11.0621 10.3963 10.5388 10.8777C10.0149 11.3597 9.38334 11.7163 8.64293 11.9838C7.92057 12.269 7.10798 12.3944 6.24126 12.3944C5.30236 12.3944 4.47173 12.2518 3.69523 11.9481C2.93678 11.645 2.28659 11.2343 1.72721 10.681C1.18529 10.1277 0.770266 9.48578 0.462927 8.7185C0.156169 7.95122 0.0112305 7.11262 0.0112305 6.2027C0.0112305 5.29278 0.155587 4.45418 0.462927 3.68691C0.769684 2.91963 1.18529 2.27716 1.74525 1.72442C2.28717 1.18894 2.93736 0.76101 3.71328 0.457319C4.47173 0.154204 5.32041 0.0109863 6.24126 0.0109863C7.30647 0.0109863 8.24537 0.189289 9.07658 0.564301C9.88917 0.938738 10.5754 1.47422 11.0993 2.13452C11.2256 2.29499 11.2798 2.45546 11.2798 2.61651C11.2798 2.77698 11.2256 2.91963 11.1174 3.04501C10.9911 3.16983 10.8467 3.22332 10.6476 3.22332C10.413 3.22332 10.2506 3.13417 10.1237 2.97369C9.70814 2.42038 9.16681 1.97462 8.49858 1.67093C7.83035 1.36782 7.08994 1.20677 6.24126 1.20677C5.5189 1.20677 4.85066 1.33158 4.25519 1.56337C3.65914 1.813 3.13585 2.15235 2.7022 2.59811C2.26855 3.04444 1.94374 3.56152 1.70917 4.16832C1.47459 4.79296 1.34827 5.47109 1.34827 6.2027C1.34827 6.93432 1.47459 7.61245 1.70917 8.21925C1.94374 8.84389 2.26913 9.36097 2.7022 9.8073C3.13585 10.2536 3.65914 10.5924 4.25519 10.8242C4.85125 11.0738 5.51948 11.1986 6.24126 11.1986C6.90949 11.1986 7.50554 11.1095 8.06492 10.9134C8.60684 10.7351 9.076 10.467 9.49161 10.1282C9.88917 9.78947 10.214 9.39663 10.4666 8.91521C10.7012 8.43322 10.8636 7.91614 10.9183 7.32716H7.74012C7.28843 7.32716 7.07189 7.13103 7.07189 6.73819C7.07189 6.32752 7.28843 6.13138 7.74012 6.13138H11.4783C11.948 6.13138 12.1826 6.38101 12.1826 6.863V6.95215H12.182ZM23.3778 10.9847C23.5763 10.9847 23.7387 11.0382 23.8656 11.1452C23.9738 11.2521 24.028 11.3948 24.028 11.5915C24.028 11.7698 23.9738 11.9124 23.8656 12.02C23.7392 12.127 23.5768 12.1805 23.3778 12.1805H14.8002C14.3305 12.1805 14.0959 11.9487 14.0959 11.4667V7.32084H15.4143V10.9853H23.3778V10.9847ZM14.0959 5.07192V0.938737C14.0959 0.456744 14.3305 0.22495 14.8002 0.22495H23.3778C23.5763 0.22495 23.7387 0.278441 23.8656 0.385423C23.9738 0.492405 24.028 0.635047 24.028 0.813925C24.028 1.01006 23.9738 1.1527 23.8656 1.26026C23.7392 1.36724 23.5768 1.42073 23.3778 1.42073H15.4143V5.07249H14.0959V5.07192ZM49.561 0.22495C50.8433 0.22495 51.8364 0.528065 52.5046 1.1527C53.1728 1.77734 53.4976 2.66943 53.4976 3.86463C53.4976 5.06041 53.1728 5.9525 52.5046 6.57657C51.8364 7.2012 50.8433 7.52215 49.561 7.52215H44.5772V11.5725C44.5772 12.0545 44.3607 12.2863 43.909 12.2863C43.4753 12.2863 43.2588 12.0545 43.2588 11.5725V0.938162C43.2588 0.456169 43.4934 0.224375 43.9631 0.224375H49.561V0.22495ZM49.4527 6.32752C50.3375 6.32752 51.0238 6.11355 51.4749 5.70288C51.9266 5.29221 52.1612 4.68598 52.1612 3.86521C52.1612 3.06227 51.9266 2.43763 51.4749 2.02754C51.0232 1.61686 50.3375 1.42073 49.4527 1.42073H44.5772V6.32752H49.4527ZM65.2353 11.1273C65.3616 11.2878 65.4158 11.4483 65.4158 11.6271C65.4158 11.8233 65.3616 11.9837 65.2353 12.1091C65.109 12.2339 64.9466 12.2874 64.7475 12.2874C64.6212 12.2874 64.513 12.2696 64.4227 12.2161C64.3325 12.1448 64.2423 12.0735 64.1521 11.9843L60.5222 7.43415H56.4773V11.5737C56.4773 12.0556 56.2608 12.2874 55.8091 12.2874C55.3754 12.2874 55.1589 12.0556 55.1589 11.5737V0.939313C55.1589 0.457319 55.3935 0.225525 55.8632 0.225525H61.3889C62.6713 0.225525 63.6462 0.52864 64.3145 1.11762C64.9827 1.72442 65.3075 2.59868 65.3075 3.75823C65.3075 4.81079 65.0368 5.64939 64.4949 6.25619C63.953 6.863 63.1585 7.21961 62.0932 7.32659V7.36225L65.2353 11.1273ZM61.2807 6.23836C62.1654 6.23836 62.8517 6.0244 63.3034 5.61373C63.7551 5.20306 63.9716 4.61466 63.9716 3.82955C63.9716 3.04444 63.7551 2.43763 63.3034 2.02754C62.8517 1.61686 62.166 1.42073 61.2807 1.42073H56.4773V6.23836H61.2807Z" fill="white" stroke="white" stroke-width="0.288571" stroke-miterlimit="22.9256"/>
<path d="M66.7708 6.2027C66.7708 5.29278 66.9151 4.45418 67.2224 3.68691C67.5292 2.91963 67.9448 2.27716 68.5048 1.72442C69.0467 1.18894 69.6969 0.76101 70.4728 0.457319C71.2312 0.154204 72.0799 0.0109863 73.0008 0.0109863C73.9216 0.0109863 74.7703 0.153629 75.5468 0.457319C76.3233 0.760434 76.9735 1.18894 77.5329 1.72442C78.0748 2.27774 78.4898 2.91963 78.7972 3.68691C79.1039 4.45418 79.2489 5.29278 79.2489 6.2027C79.2489 7.11262 79.1045 7.95122 78.7972 8.7185C78.4904 9.48578 78.0748 10.1282 77.5329 10.681C76.9729 11.2343 76.3233 11.6444 75.5468 11.9481C74.7703 12.2512 73.9216 12.3944 73.0008 12.3944C72.0799 12.3944 71.2312 12.2518 70.4728 11.9481C69.6963 11.645 69.0461 11.2343 68.5048 10.681C67.9448 10.1277 67.5298 9.48578 67.2224 8.7185C66.9157 7.95122 66.7708 7.11262 66.7708 6.2027ZM68.1072 6.2027C68.1072 6.93432 68.2335 7.61245 68.4681 8.21925C68.7027 8.84389 69.0281 9.36097 69.4611 9.8073C69.8948 10.2536 70.4181 10.5924 71.0141 10.8242C71.6102 11.0738 72.2784 11.1986 73.0002 11.1986C73.7226 11.1986 74.3908 11.0738 74.9863 10.8242C75.5823 10.5924 76.1056 10.2531 76.5393 9.8073C76.9729 9.36097 77.3158 8.84389 77.5503 8.21925C77.7849 7.61245 77.9112 6.93432 77.9112 6.2027C77.9112 5.47109 77.7849 4.79296 77.5503 4.16832C77.3158 3.56152 76.9723 3.04444 76.5393 2.59811C76.1056 2.15177 75.5823 1.813 74.9863 1.56337C74.3902 1.33158 73.722 1.20677 73.0002 1.20677C72.2778 1.20677 71.6096 1.33158 71.0141 1.56337C70.4181 1.813 69.8948 2.15235 69.4611 2.59811C69.0275 3.04444 68.7027 3.56152 68.4681 4.16832C68.2335 4.79296 68.1072 5.47109 68.1072 6.2027Z" fill="white" stroke="white" stroke-width="0.288571" stroke-miterlimit="22.9256"/>
<path d="M12.5796 18.7128C12.8503 18.7128 13.0674 18.8019 13.2118 18.9624C13.3381 19.1229 13.4103 19.3368 13.4103 19.587V30.1679C13.4103 30.6499 13.1937 30.8817 12.7601 30.8817C12.3084 30.8817 12.0919 30.6499 12.0919 30.1679V21.1216H12.0558L7.63135 28.0449C7.54113 28.1697 7.45091 28.2767 7.36068 28.348C7.27046 28.4194 7.12611 28.455 6.9637 28.455C6.8013 28.455 6.65695 28.4194 6.5481 28.348C6.43983 28.2767 6.34961 28.1876 6.27743 28.0628L1.81693 21.0681H1.78084V30.1863C1.78084 30.4003 1.72671 30.5607 1.61844 30.6861C1.49213 30.8288 1.32973 30.8823 1.13066 30.8823C0.932165 30.8823 0.769764 30.8288 0.660914 30.6861C0.534602 30.5613 0.480469 30.4008 0.480469 30.1863V19.6054C0.480469 19.3558 0.552647 19.1413 0.697003 18.963C0.823315 18.8025 1.03985 18.7134 1.3111 18.7134C1.50959 18.7134 1.69004 18.749 1.81693 18.8203C1.94324 18.9095 2.06955 19.0343 2.17782 19.1948L6.96312 26.7065L11.7665 19.1764C11.965 18.8733 12.2362 18.7122 12.5791 18.7122L12.5796 18.7128ZM25.1841 29.5795C25.3825 29.5795 25.5449 29.633 25.6718 29.74C25.7801 29.8469 25.8342 29.9896 25.8342 30.1863C25.8342 30.3646 25.7801 30.5072 25.6718 30.6148C25.5455 30.7218 25.3831 30.7753 25.1841 30.7753H16.6065C16.1367 30.7753 15.9022 30.5435 15.9022 30.0615V19.5341C15.9022 19.0521 16.1367 18.8203 16.6065 18.8203H25.1841C25.3825 18.8203 25.5449 18.8738 25.6718 18.9808C25.7801 19.0878 25.8342 19.2304 25.8342 19.4093C25.8342 19.6054 25.7801 19.7481 25.6718 19.8556C25.5455 19.9626 25.3831 20.0161 25.1841 20.0161H17.2206V24.1556H23.8476C24.0461 24.1556 24.2085 24.2091 24.3354 24.2983C24.4436 24.4053 24.4978 24.5479 24.4978 24.7446C24.4978 24.9407 24.4436 25.1012 24.3354 25.1909C24.2091 25.2979 24.0467 25.3514 23.8476 25.3514H17.2206V29.5801H25.1841V29.5795ZM32.2989 18.8198C33.3099 18.8198 34.2127 18.9624 35.0253 19.2304C35.8199 19.4979 36.4881 19.8907 37.0481 20.4078C37.608 20.9255 38.0231 21.5495 38.3304 22.2811C38.6191 23.0128 38.764 23.8514 38.764 24.7969C38.764 25.7425 38.6197 26.5811 38.3304 27.3127C38.0236 28.0444 37.608 28.669 37.0481 29.1861C36.4881 29.7037 35.8199 30.096 35.0253 30.3635C34.2127 30.6309 33.3099 30.7741 32.2989 30.7741H28.3622C27.8925 30.7741 27.6579 30.5423 27.6579 30.0603V19.533C27.6579 19.051 27.8925 18.8192 28.3622 18.8192H32.2989V18.8198ZM32.3891 29.5795C33.1656 29.5795 33.8699 29.4725 34.502 29.2585C35.1342 29.0446 35.6575 28.7231 36.0911 28.313C36.5248 27.9023 36.8496 27.403 37.0842 26.8141C37.3187 26.2251 37.427 25.547 37.427 24.7975C37.427 24.0481 37.3187 23.3699 37.0842 22.781C36.8496 22.192 36.5242 21.6927 36.0911 21.2821C35.6575 20.8714 35.1342 20.5683 34.502 20.3365C33.8699 20.1225 33.1656 20.0155 32.3891 20.0155H28.9763V29.5795H32.3891ZM41.4178 18.7128C41.8694 18.7128 42.086 18.9446 42.086 19.4266V30.1685C42.086 30.6505 41.8694 30.8823 41.4178 30.8823C40.9841 30.8823 40.7676 30.6505 40.7676 30.1685V19.4266C40.7676 18.9446 40.9841 18.7128 41.4178 18.7128ZM55.5571 28.1876C55.5571 28.3481 55.521 28.4729 55.4489 28.5798C54.943 29.3115 54.2573 29.8826 53.39 30.3284C52.5053 30.7747 51.4942 30.9887 50.3382 30.9887C49.4173 30.9887 48.5686 30.846 47.8102 30.5423C47.0337 30.2392 46.3835 29.8285 45.8422 29.2752C45.2822 28.7219 44.8672 28.08 44.5598 27.3127C44.2531 26.5455 44.1081 25.7069 44.1081 24.7969C44.1081 23.887 44.2525 23.0484 44.5598 22.2811C44.8666 21.5139 45.2822 20.8714 45.8422 20.3187C46.3841 19.7832 47.0343 19.3552 47.8102 19.0516C48.5686 18.7484 49.4173 18.6052 50.3382 18.6052C51.4034 18.6052 52.3423 18.7835 53.1735 19.1585C53.9861 19.533 54.6724 20.0685 55.2323 20.7466C55.3586 20.8892 55.4128 21.0497 55.4128 21.2286C55.4128 21.4069 55.3586 21.5495 55.2504 21.6749C55.1241 21.7997 54.9797 21.8532 54.7806 21.8532C54.546 21.8532 54.365 21.7641 54.2207 21.5679C53.8051 21.0146 53.2637 20.5689 52.5955 20.2652C51.9273 19.9621 51.1868 19.801 50.3382 19.801C49.6158 19.801 48.9476 19.9258 48.3521 20.1576C47.7561 20.4072 47.2328 20.7466 46.7991 21.1923C46.3655 21.6387 46.0407 22.1558 45.8061 22.7626C45.5715 23.3872 45.4452 24.0653 45.4452 24.7969C45.4452 25.5286 45.5715 26.2067 45.8061 26.8135C46.0407 27.4381 46.366 27.9552 46.7991 28.4015C47.2328 28.8479 47.7561 29.1866 48.3521 29.4184C48.9482 29.6681 49.6164 29.7929 50.3382 29.7929C51.2229 29.7929 51.9994 29.6324 52.6677 29.2931C53.3359 28.9543 53.9139 28.4723 54.365 27.8477C54.4913 27.6515 54.6898 27.5624 54.925 27.5624C55.1054 27.5624 55.2498 27.6159 55.3767 27.7407C55.503 27.8655 55.5571 28.0081 55.5571 28.187V28.1876Z" fill="white" stroke="white" stroke-width="0.288571" stroke-miterlimit="22.9256"/>
<path d="M62.5991 18.6057C64.3506 18.6057 65.687 19.0877 66.6259 20.0333C67.5648 20.9789 68.0346 22.3708 68.0346 24.1728V30.1684C68.0346 30.6504 67.818 30.8822 67.3663 30.8822C67.1678 30.8822 67.0054 30.8287 66.8966 30.686C66.7703 30.5612 66.7161 30.4007 66.7161 30.1684V27.0101H58.4639V30.1862C58.4639 30.4002 58.4098 30.5606 58.3015 30.686C58.1752 30.8287 58.0128 30.8822 57.8138 30.8822C57.6153 30.8822 57.4529 30.8287 57.344 30.686C57.2177 30.5612 57.1636 30.4007 57.1636 30.1862V24.1728C57.1636 22.3708 57.6333 20.9789 58.5722 20.0333C59.4931 19.0877 60.8476 18.6057 62.5991 18.6057ZM66.7161 24.1371C66.7161 22.6917 66.3733 21.6213 65.669 20.8897C64.9646 20.1581 63.9355 19.8015 62.581 19.8015C61.2265 19.8015 60.2154 20.1581 59.5111 20.8897C58.8068 21.6213 58.4639 22.6917 58.4639 24.1371V25.8143H66.7161V24.1371ZM79.3386 29.5794C79.5371 29.5794 79.6995 29.6329 79.8264 29.7399C79.9346 29.8469 79.9888 29.9895 79.9888 30.1862C79.9888 30.3645 79.9346 30.5072 79.8264 30.6147C79.7001 30.7217 79.5377 30.7752 79.3386 30.7752H71.0323C70.5625 30.7752 70.328 30.5434 70.328 30.0614V19.4271C70.328 18.9451 70.5445 18.7133 70.9781 18.7133C71.4298 18.7133 71.6464 18.9451 71.6464 19.4271V29.58H79.3392L79.3386 29.5794Z" fill="white" stroke="white" stroke-width="0.288571" stroke-miterlimit="22.9256"/>
<path d="M14.8945 6.16533L26.1194 6.29647L26.1561 5.77076L26.5077 0.723633L35.9322 11.7888L35.7133 4.9126L41.1168 4.98105" stroke="#F6FBFC" stroke-miterlimit="22.9256" stroke-linecap="round" stroke-linejoin="round"/>
</g>
<defs>
<clipPath id="clip0_42_328">
<rect width="80" height="31" fill="white"/>
</clipPath>
</defs>
</svg>
