<svg width="24" height="22" viewBox="0 0 24 22" fill="none" xmlns="http://www.w3.org/2000/svg">
<path fill-rule="evenodd" clip-rule="evenodd" d="M0.166962 17.1357C0.166962 16.8938 0.366073 16.6974 0.611406 16.6974C0.856739 16.6974 1.05585 16.8938 1.05585 17.1357V18.8887C1.05585 19.6145 1.65318 20.2035 2.38918 20.2035H4.16696C4.41229 20.2035 4.61141 20.3999 4.61141 20.6418C4.61141 20.8837 4.41229 21.08 4.16696 21.08H2.38918C1.16163 21.08 0.166962 20.0992 0.166962 18.8887V17.1357ZM24.167 4.86439C24.167 5.10631 23.9679 5.30265 23.7225 5.30265C23.4772 5.30265 23.2781 5.10631 23.2781 4.86439V3.11135C23.2781 2.38559 22.6807 1.79657 21.9447 1.79657H20.167C19.9216 1.79657 19.7225 1.60022 19.7225 1.3583C19.7225 1.11638 19.9216 0.920044 20.167 0.920044H21.9447C23.1723 0.920044 24.167 1.90087 24.167 3.11135V4.86439ZM22.3892 3.98787V18.0122C22.3892 18.3611 22.2487 18.695 21.999 18.9422C21.7483 19.1885 21.4096 19.327 21.0559 19.327H3.27807C2.92429 19.327 2.58562 19.1885 2.33496 18.9422C2.08518 18.695 1.94474 18.3611 1.94474 18.0122V3.98787C1.94474 3.63901 2.08518 3.30506 2.33496 3.05788C2.58562 2.81158 2.92429 2.67309 3.27807 2.67309H21.0559C21.4096 2.67309 21.7483 2.81158 21.999 3.05788C22.2487 3.30506 22.3892 3.63901 22.3892 3.98787ZM10.8336 15.5807V15.8209C10.8336 16.0532 10.927 16.2767 11.0941 16.4406C11.2603 16.6054 11.487 16.6974 11.7225 16.6974H12.6114C12.847 16.6974 13.0736 16.6054 13.2399 16.4406C13.407 16.2767 13.5003 16.0532 13.5003 15.8209V15.5807C13.9785 15.1951 14.6745 14.8874 15.143 14.9418C16.6141 15.1118 17.4621 16.6659 17.4621 16.6659C17.5527 16.828 17.7376 16.9166 17.9234 16.8868C18.1083 16.857 18.255 16.7158 18.2887 16.5335C19.1741 11.753 18.0905 8.58698 16.9652 6.9698C16.4283 6.19758 15.8603 5.76107 15.4603 5.61995C14.8727 5.41222 14.2967 5.53406 13.8167 5.77335C13.6959 5.83383 13.5812 5.90132 13.4754 5.97144C13.4363 5.81717 13.3563 5.6743 13.2399 5.55947C13.0736 5.39469 12.847 5.30265 12.6114 5.30265H11.7225C11.487 5.30265 11.2603 5.39469 11.0941 5.55947C10.9776 5.6743 10.8976 5.81717 10.8585 5.97144C10.7527 5.90132 10.6381 5.83383 10.5172 5.77335C10.0372 5.53406 9.46118 5.41222 8.87363 5.61995C8.47363 5.76107 7.90563 6.19758 7.36874 6.9698C6.24341 8.58698 5.15986 11.753 6.04519 16.5335C6.07897 16.7158 6.22563 16.857 6.41052 16.8868C6.5963 16.9166 6.78118 16.828 6.87185 16.6659C6.87185 16.6659 7.71984 15.1118 9.19096 14.9418C9.6594 14.8874 10.3554 15.1951 10.8336 15.5807ZM13.5003 9.94822C13.5927 9.80973 13.7963 9.53888 14.087 9.33115C14.3225 9.16373 14.6212 9.03401 14.9723 9.1015C15.4399 9.1909 15.911 9.54589 16.3181 9.92192C16.9865 10.5407 17.4781 11.2472 17.4781 11.2472C17.5145 11.2998 17.5599 11.3419 17.6114 11.3734C17.6692 11.8126 17.7074 12.2798 17.7198 12.7768C17.4345 12.4165 17.0878 12.0264 16.7181 11.71C16.2452 11.3068 15.7287 11.0298 15.2461 11.0027C14.5145 10.9606 13.9279 11.242 13.5003 11.5707V9.94822ZM13.5003 12.8241C13.6763 12.562 14.2567 11.824 15.1954 11.8774C15.6345 11.9029 16.0816 12.2877 16.4852 12.7014C17.0932 13.3263 17.5741 14.0723 17.687 14.2537C17.6621 14.6131 17.6256 14.9847 17.5741 15.3686C17.0612 14.8173 16.2674 14.1888 15.247 14.0705C14.7607 14.0144 14.0879 14.2116 13.5003 14.5333V12.8241ZM10.8336 7.08111V8.67025C10.8123 8.6536 10.7901 8.63694 10.7678 8.62117C10.351 8.32403 9.81497 8.12242 9.19275 8.24075C8.57941 8.3582 7.94208 8.78946 7.40874 9.28294C7.30474 9.37848 7.20519 9.47577 7.11008 9.57307C7.27363 9.04453 7.46652 8.57909 7.67452 8.17764C8.19096 7.18016 8.76874 6.58851 9.17407 6.44476C9.51185 6.32555 9.84073 6.41847 10.1163 6.5552C10.439 6.71648 10.6976 6.94613 10.8336 7.08111ZM6.72252 11.3734C6.77407 11.3419 6.8194 11.2998 6.85584 11.2472C6.85584 11.2472 7.34741 10.5407 8.01585 9.92192C8.42296 9.54589 8.89407 9.1909 9.36162 9.1015C9.71273 9.03401 10.0114 9.16373 10.247 9.33115C10.5376 9.53888 10.7412 9.80973 10.8336 9.94822V11.5707C10.4061 11.242 9.8194 10.9606 9.08785 11.0027C8.60518 11.0298 8.08874 11.3068 7.61585 11.71C7.24608 12.0256 6.89941 12.4165 6.61408 12.7768C6.62652 12.2798 6.66474 11.8126 6.72252 11.3734ZM6.64696 14.2528C6.76073 14.0714 7.24163 13.3263 7.84874 12.7014C8.25229 12.2877 8.69941 11.9029 9.13852 11.8774C10.0772 11.824 10.6576 12.562 10.8336 12.8241V14.5333C10.2461 14.2116 9.57319 14.0144 9.08696 14.0705C8.06652 14.1888 7.27275 14.8173 6.75986 15.3678C6.70919 14.9838 6.67184 14.6122 6.64696 14.2528ZM13.5003 7.08111C13.6363 6.94613 13.895 6.71648 14.2176 6.5552C14.4932 6.41847 14.8221 6.32555 15.1599 6.44476C15.5652 6.58851 16.143 7.18016 16.6594 8.17764C16.8674 8.57909 17.0603 9.04453 17.2238 9.57307C17.1287 9.47577 17.0292 9.37848 16.9252 9.28294C16.3918 8.78946 15.7545 8.3582 15.1412 8.24075C14.519 8.12242 13.983 8.32403 13.5661 8.62117C13.5439 8.63694 13.5216 8.6536 13.5003 8.67025V7.08111Z" fill="#0A6579"/>
</svg>
