<svg width="58" height="25" viewBox="0 0 58 25" fill="none" xmlns="http://www.w3.org/2000/svg">
<path d="M8.75016 6.1526C8.75016 6.74893 8.64659 7.30514 8.4387 7.79579C8.23082 8.28566 7.94507 8.70996 7.5686 9.06791C7.19214 9.42586 6.73781 9.69047 6.20562 9.8895C5.68628 10.1017 5.10193 10.1942 4.47902 10.1942C3.80396 10.1942 3.20675 10.0885 2.6481 9.86327C2.10306 9.63801 1.63513 9.33329 1.23296 8.92288C0.843644 8.51246 0.545042 8.03494 0.324304 7.46561C0.103566 6.89628 0 6.27294 0 5.59715C0 4.92136 0.103566 4.2988 0.324304 3.72947C0.545042 3.16014 0.843644 2.68262 1.24581 2.2722C1.63513 1.87491 2.10231 1.55707 2.66095 1.33181C3.206 1.10654 3.81605 1.00085 4.47827 1.00085C5.24405 1.00085 5.91911 1.13354 6.51632 1.41127C7.10067 1.68976 7.59355 2.08706 7.97001 2.57693C8.06073 2.6965 8.10004 2.81531 8.10004 2.93488C8.10004 3.05445 8.06073 3.16014 7.98286 3.25272C7.89215 3.34529 7.78783 3.38541 7.64571 3.38541C7.47713 3.38541 7.35996 3.31906 7.26925 3.20026C6.97064 2.78985 6.58133 2.45812 6.10054 2.23286C5.62051 2.0076 5.08756 1.88802 4.47751 1.88802C3.95817 1.88802 3.47814 1.9806 3.04952 2.15263C2.62089 2.33778 2.24442 2.59004 1.93297 2.92099C1.62152 3.25195 1.38793 3.63613 1.2186 4.08665C1.05002 4.5503 0.959304 5.05405 0.959304 5.59715C0.959304 6.14025 1.05002 6.64401 1.2186 7.09454C1.38717 7.55818 1.62076 7.94236 1.93297 8.27331C2.24442 8.60427 2.62089 8.85653 3.04952 9.02856C3.47814 9.21371 3.95817 9.30706 4.47751 9.30706C4.95754 9.30706 5.38617 9.24071 5.78909 9.09491C6.1784 8.96222 6.51632 8.76396 6.81492 8.51169C7.10067 8.2602 7.33426 7.96859 7.51569 7.61064C7.68426 7.25269 7.80144 6.8685 7.83999 6.43186H5.55474C5.23044 6.43186 5.07471 6.28606 5.07471 5.99445C5.07471 5.68973 5.23044 5.54392 5.55474 5.54392H8.24216C8.58007 5.54392 8.74865 5.72907 8.74865 6.08702V6.15337L8.75016 6.1526ZM16.7995 9.1466C16.9424 9.1466 17.0588 9.18671 17.1503 9.26617C17.2282 9.34563 17.2675 9.45132 17.2675 9.59712C17.2675 9.72981 17.2282 9.8355 17.1503 9.91496C17.0596 9.99442 16.9424 10.0345 16.7995 10.0345H10.6325C10.2946 10.0345 10.126 9.8625 10.126 9.50455V6.42646H11.074V9.14737H16.7995V9.1466ZM10.1267 4.75627V1.68745C10.1267 1.32949 10.2953 1.15746 10.6332 1.15746H16.8003C16.9432 1.15746 17.0596 1.19757 17.1511 1.27703C17.2289 1.35649 17.2682 1.46218 17.2682 1.59487C17.2682 1.74068 17.2289 1.84636 17.1511 1.92582C17.0604 2.00528 16.9432 2.0454 16.8003 2.0454H11.0747V4.75627H10.1267ZM35.6243 1.15746C36.5458 1.15746 37.2602 1.38272 37.7402 1.84636C38.2202 2.31001 38.4546 2.97268 38.4546 3.85985C38.4546 4.74779 38.221 5.40969 37.7402 5.87333C37.2602 6.33697 36.5458 6.57535 35.6243 6.57535H32.0411V9.58247C32.0411 9.94042 31.8853 10.1125 31.561 10.1125C31.2496 10.1125 31.0939 9.94042 31.0939 9.58247V1.6859C31.0939 1.32795 31.2624 1.15592 31.6004 1.15592H35.625L35.6243 1.15746ZM35.5464 5.68819C36.1829 5.68819 36.6758 5.52927 37.0001 5.22454C37.3244 4.91982 37.4938 4.46929 37.4938 3.85985C37.4938 3.26352 37.3252 2.79988 37.0001 2.49515C36.6758 2.19043 36.1822 2.04463 35.5464 2.04463H32.0411V5.68819H35.5464ZM46.8933 9.25229C46.984 9.37186 47.0233 9.49066 47.0233 9.62335C47.0233 9.76916 46.984 9.88796 46.8933 9.98131C46.8026 10.0739 46.6854 10.114 46.5425 10.114C46.4518 10.114 46.3739 10.1009 46.3089 10.0608C46.2439 10.0075 46.1789 9.95508 46.1139 9.88873L43.5043 6.51055H40.5962V9.58401C40.5962 9.94196 40.4405 10.114 40.1162 10.114C39.8047 10.114 39.649 9.94196 39.649 9.58401V1.68745C39.649 1.32949 39.8176 1.15746 40.1555 1.15746H44.128C45.0495 1.15746 45.751 1.38272 46.2311 1.82013C46.7111 2.27066 46.9454 2.91945 46.9454 3.78116C46.9454 4.56264 46.7504 5.1852 46.3611 5.63573C45.9718 6.08625 45.4003 6.35086 44.6345 6.43032V6.45655L46.8933 9.25229ZM44.0501 5.62184C44.6867 5.62184 45.1795 5.46292 45.5038 5.1582C45.8281 4.85348 45.9839 4.41606 45.9839 3.83362C45.9839 3.2504 45.8281 2.79988 45.5038 2.49515C45.1795 2.19043 44.6859 2.04463 44.0501 2.04463H40.5969V5.62184H44.0501Z" fill="#0A6579" stroke="#0A6579" stroke-width="0.284384" stroke-miterlimit="22.9256"/>
<path d="M47.9963 5.5963C47.9963 4.92051 48.0998 4.29795 48.3206 3.72862C48.5413 3.15929 48.8399 2.68176 49.2421 2.27135C49.6314 1.87405 50.0986 1.55622 50.6572 1.33095C51.2023 1.10569 51.8123 1 52.4745 1C53.1368 1 53.7468 1.10569 54.3047 1.33095C54.8626 1.55622 55.3305 1.87405 55.7327 2.27135C56.122 2.68176 56.4206 3.15929 56.6414 3.72862C56.8621 4.29795 56.9657 4.92128 56.9657 5.5963C56.9657 6.27209 56.8621 6.89465 56.6414 7.46475C56.4206 8.03408 56.122 8.51161 55.7327 8.92202C55.3305 9.33243 54.8626 9.63716 54.3047 9.86242C53.7468 10.0877 53.136 10.1934 52.4745 10.1934C51.8123 10.1934 51.2023 10.0877 50.6572 9.86242C50.0993 9.63716 49.6314 9.33243 49.2421 8.92202C48.8399 8.51161 48.5413 8.03408 48.3206 7.46475C48.0998 6.89542 47.9963 6.27209 47.9963 5.5963ZM48.9571 5.5963C48.9571 6.1394 49.0478 6.64316 49.2164 7.09368C49.385 7.55733 49.6186 7.94151 49.9308 8.27246C50.2422 8.60341 50.6187 8.85568 51.0473 9.02771C51.4759 9.21286 51.956 9.3062 52.4753 9.3062C52.9946 9.3062 53.4747 9.21363 53.9033 9.02771C54.3319 8.85568 54.7084 8.60341 55.0198 8.27246C55.3313 7.94151 55.5777 7.55733 55.7471 7.09368C55.9156 6.64316 56.0064 6.1394 56.0064 5.5963C56.0064 5.0532 55.9156 4.54944 55.7471 4.0858C55.5785 3.63527 55.3313 3.25109 55.0198 2.92014C54.7084 2.58919 54.3319 2.33692 53.9033 2.15178C53.4747 1.97974 52.9946 1.88717 52.4753 1.88717C51.956 1.88717 51.4759 1.97974 51.0473 2.15178C50.6187 2.33692 50.2422 2.58919 49.9308 2.92014C49.6193 3.25109 49.3857 3.63527 49.2164 4.0858C49.0478 4.54944 48.9571 5.0532 48.9571 5.5963Z" fill="#0A6579" stroke="#0A6579" stroke-width="0.284384" stroke-miterlimit="22.9256"/>
<path d="M9.03587 14.8853C9.23091 14.8853 9.38664 14.9517 9.4902 15.0705C9.58092 15.1901 9.63308 15.349 9.63308 15.5341V23.3906C9.63308 23.7485 9.47735 23.9206 9.1659 23.9206C8.84159 23.9206 8.68587 23.7485 8.68587 23.3906V16.6736H8.66017L5.47911 21.8137C5.4141 21.9063 5.34909 21.9858 5.28408 22.039C5.21907 22.0922 5.1155 22.1184 4.99833 22.1184C4.88116 22.1184 4.77759 22.0922 4.69973 22.039C4.62186 21.9858 4.55685 21.9194 4.50469 21.8268L1.29794 16.6334H1.27223V23.4037C1.27223 23.5626 1.23293 23.6822 1.15506 23.7747C1.06435 23.8804 0.947175 23.9206 0.8043 23.9206C0.661425 23.9206 0.545008 23.8804 0.466389 23.7747C0.375674 23.6822 0.336365 23.5626 0.336365 23.4037V15.5472C0.336365 15.3621 0.388526 15.2024 0.492091 15.0705C0.582805 14.9509 0.738532 14.8853 0.933568 14.8853C1.07644 14.8853 1.20647 14.9116 1.29718 14.9648C1.3879 15.0311 1.47861 15.1237 1.55647 15.2433L4.99682 20.8209L8.45001 15.2302C8.59289 15.0049 8.78792 14.8861 9.03436 14.8861L9.03587 14.8853ZM18.0975 22.9539C18.2404 22.9539 18.3568 22.994 18.4482 23.0735C18.5261 23.153 18.5654 23.2587 18.5654 23.4045C18.5654 23.5371 18.5261 23.6428 18.4482 23.7223C18.3575 23.8018 18.2404 23.8419 18.0975 23.8419H11.9304C11.5925 23.8419 11.4239 23.6698 11.4239 23.3119V15.4948C11.4239 15.1368 11.5925 14.9648 11.9304 14.9648H18.0975C18.2404 14.9648 18.3568 15.0049 18.4482 15.0844C18.5261 15.1638 18.5654 15.2695 18.5654 15.4022C18.5654 15.548 18.5261 15.6537 18.4482 15.7332C18.3575 15.8126 18.2404 15.8527 18.0975 15.8527H12.3719V18.9262H17.1367C17.2795 18.9262 17.396 18.9655 17.4874 19.0319C17.5653 19.1113 17.6046 19.217 17.6046 19.3628C17.6046 19.5086 17.5653 19.6274 17.4874 19.6938C17.3967 19.7732 17.2795 19.8134 17.1367 19.8134H12.3719V22.9532H18.0975V22.9539ZM23.2123 14.9648C23.9395 14.9648 24.5881 15.0705 25.1725 15.2695C25.744 15.4685 26.224 15.7594 26.6261 16.1436C27.0283 16.5277 27.3269 16.9914 27.5477 17.5345C27.7555 18.0776 27.8591 18.7002 27.8591 19.4022C27.8591 20.1042 27.7555 20.7268 27.5477 21.2706C27.3269 21.8137 27.0283 22.2774 26.6261 22.6615C26.224 23.0457 25.7432 23.3373 25.1725 23.5356C24.5881 23.7346 23.9387 23.8403 23.2123 23.8403H20.382C20.0441 23.8403 19.8755 23.6683 19.8755 23.3103V15.4932C19.8755 15.1353 20.0441 14.9632 20.382 14.9632H23.2123V14.9648ZM23.2773 22.9539C23.8352 22.9539 24.3417 22.8745 24.796 22.7155C25.2503 22.5566 25.6268 22.3183 25.9382 22.0135C26.2497 21.7088 26.4833 21.3377 26.6526 20.9003C26.8212 20.4629 26.899 19.9599 26.899 19.4029C26.899 18.8467 26.8212 18.343 26.6526 17.9056C26.484 17.4681 26.2504 17.0971 25.9382 16.7924C25.6268 16.4876 25.2503 16.2624 24.796 16.0903C24.3417 15.9314 23.8352 15.852 23.2773 15.852H20.8235V22.9532H23.2773V22.9539ZM29.7686 14.8853C30.093 14.8853 30.2487 15.0574 30.2487 15.4153V23.3913C30.2487 23.7493 30.093 23.9213 29.7686 23.9213C29.4572 23.9213 29.3015 23.7493 29.3015 23.3913V15.4153C29.3015 15.0574 29.4572 14.8853 29.7686 14.8853ZM39.9339 21.9202C39.9339 22.0398 39.9082 22.1323 39.8561 22.2118C39.4925 22.7549 38.9996 23.1792 38.3759 23.5101C37.7394 23.8411 37.0129 24 36.1822 24C35.5199 24 34.9099 23.8943 34.3648 23.6691C33.8069 23.4438 33.339 23.1391 32.9497 22.7287C32.5475 22.3183 32.2489 21.8407 32.0282 21.2714C31.8075 20.7021 31.7039 20.0787 31.7039 19.4029C31.7039 18.7272 31.8075 18.1046 32.0282 17.5353C32.2489 16.9659 32.5475 16.4884 32.9497 16.078C33.339 15.6807 33.8062 15.3629 34.3648 15.1376C34.9099 14.9123 35.5199 14.8066 36.1822 14.8066C36.9479 14.8066 37.623 14.9393 38.2202 15.2171C38.8046 15.4955 39.2974 15.8928 39.7004 16.3958C39.7911 16.5015 39.8304 16.6211 39.8304 16.7538C39.8304 16.8865 39.7911 16.9922 39.7132 17.0847C39.6225 17.1773 39.5182 17.2174 39.3753 17.2174C39.2067 17.2174 39.0767 17.1511 38.9731 17.0053C38.6745 16.5949 38.2852 16.2631 37.8044 16.0379C37.3244 15.8126 36.7915 15.693 36.1814 15.693C35.6621 15.693 35.182 15.7856 34.7534 15.9576C34.3248 16.1428 33.9483 16.3951 33.6369 16.726C33.3254 17.057 33.0918 17.4411 32.9225 17.8917C32.7539 18.3553 32.6632 18.8591 32.6632 19.4022C32.6632 19.9453 32.7539 20.449 32.9225 20.8996C33.0911 21.3632 33.3246 21.7474 33.6369 22.0783C33.9483 22.4093 34.3248 22.6615 34.7534 22.8336C35.182 23.0187 35.6621 23.1121 36.1814 23.1121C36.8179 23.1121 37.3758 22.9925 37.8558 22.741C38.3359 22.4895 38.7516 22.1316 39.0759 21.6679C39.1667 21.5221 39.3095 21.4558 39.4781 21.4558C39.6081 21.4558 39.7117 21.4959 39.8024 21.5885C39.8931 21.681 39.9324 21.7875 39.9324 21.9194L39.9339 21.9202Z" fill="#0A6579" stroke="#0A6579" stroke-width="0.284384" stroke-miterlimit="22.9256"/>
<path d="M44.9974 14.8059C46.2568 14.8059 47.2176 15.1639 47.8927 15.8659C48.5678 16.5679 48.9057 17.6017 48.9057 18.9394V23.3906C48.9057 23.7486 48.75 23.9206 48.4256 23.9206C48.2828 23.9206 48.1664 23.8805 48.0885 23.7748C47.9978 23.6823 47.9585 23.5627 47.9585 23.3906V21.0454H42.0258V23.4038C42.0258 23.5627 41.9864 23.6823 41.9086 23.7748C41.8179 23.8805 41.7007 23.9206 41.5578 23.9206C41.4149 23.9206 41.2985 23.8805 41.2207 23.7748C41.1299 23.6823 41.0906 23.5627 41.0906 23.4038V18.9386C41.0906 17.6001 41.4278 16.5672 42.1036 15.8651C42.7658 15.1631 43.7395 14.8052 44.9989 14.8052L44.9974 14.8059ZM47.9577 18.9131C47.9577 17.8401 47.7113 17.0447 47.2048 16.5016C46.6983 15.9585 45.9582 15.6931 44.9846 15.6931C44.0109 15.6931 43.2837 15.9577 42.7772 16.5016C42.2707 17.0447 42.0242 17.8401 42.0242 18.9131V20.1583H47.957V18.9131H47.9577ZM57.0322 22.954C57.1751 22.954 57.2915 22.9941 57.3829 23.0736C57.4608 23.153 57.5001 23.2587 57.5001 23.4045C57.5001 23.5372 57.4608 23.6429 57.3829 23.7224C57.2922 23.8018 57.1751 23.8419 57.0322 23.8419H51.0601C50.7222 23.8419 50.5537 23.6699 50.5537 23.312V15.4154C50.5537 15.0574 50.7094 14.8854 51.0208 14.8854C51.3451 14.8854 51.5009 15.0574 51.5009 15.4154V22.954H57.0314H57.0322Z" fill="#0A6579" stroke="#0A6579" stroke-width="0.284384" stroke-miterlimit="22.9256"/>
<path d="M10.6998 5.56706L18.7704 5.66504L18.7968 5.27468L19.0493 1.52698L25.8249 9.74292L25.6677 4.63746L29.5525 4.68761" stroke="#1EA574" stroke-miterlimit="22.9256" stroke-linecap="round" stroke-linejoin="round"/>
</svg>
