<svg width="128" height="52" viewBox="0 0 128 52" fill="none" xmlns="http://www.w3.org/2000/svg">
<path d="M20.1743 12.2018C20.1743 13.4982 19.9473 14.7073 19.4918 15.774C19.0362 16.8389 18.4101 17.7613 17.5851 18.5394C16.7602 19.3176 15.7646 19.8928 14.5984 20.3255C13.4604 20.7867 12.1799 20.9879 10.8149 20.9879C9.33563 20.9879 8.02698 20.7582 6.8028 20.2685C5.60845 19.7788 4.58306 19.1163 3.70179 18.2241C2.84868 17.3319 2.19435 16.2938 1.71065 15.0562C1.22694 13.8185 1 12.4634 1 10.9943C1 9.52524 1.22694 8.17186 1.71065 6.93419C2.19435 5.69652 2.84868 4.65842 3.72995 3.76623C4.58306 2.90255 5.60679 2.2116 6.83097 1.7219C8.02532 1.2322 9.36213 1.00244 10.8132 1.00244C12.4913 1.00244 13.9706 1.2909 15.2792 1.89464C16.5597 2.50005 17.6398 3.36374 18.4647 4.42867C18.6635 4.68861 18.7497 4.94688 18.7497 5.20682C18.7497 5.46677 18.6635 5.69652 18.4929 5.89777C18.2941 6.09902 18.0655 6.18622 17.7541 6.18622C17.3847 6.18622 17.1279 6.042 16.9291 5.78373C16.2748 4.89154 15.4217 4.1704 14.3681 3.6807C13.3163 3.191 12.1484 2.93106 10.8116 2.93106C9.67356 2.93106 8.62167 3.1323 7.68242 3.50629C6.74317 3.90878 5.91822 4.45718 5.23573 5.17664C4.55324 5.89609 4.04138 6.73127 3.67032 7.71067C3.30091 8.71858 3.10213 9.8137 3.10213 10.9943C3.10213 12.175 3.30091 13.2701 3.67032 14.2495C4.03972 15.2574 4.55159 16.0926 5.23573 16.8121C5.91822 17.5315 6.74317 18.0799 7.68242 18.4539C8.62167 18.8564 9.67356 19.0593 10.8116 19.0593C11.8635 19.0593 12.8027 18.9151 13.6857 18.5981C14.5388 18.3097 15.2792 17.8787 15.9336 17.3303C16.5597 16.7835 17.0716 16.1496 17.4692 15.3715C17.8386 14.5933 18.0953 13.7581 18.1798 12.8089H13.1721C12.4615 12.8089 12.1202 12.492 12.1202 11.858C12.1202 11.1956 12.4615 10.8786 13.1721 10.8786H19.0611C19.8015 10.8786 20.171 11.2811 20.171 12.0593V12.2035L20.1743 12.2018ZM37.8129 18.7105C38.126 18.7105 38.3811 18.7977 38.5816 18.9704C38.7522 19.1432 38.8383 19.3729 38.8383 19.6899C38.8383 19.9783 38.7522 20.2081 38.5816 20.3808C38.3828 20.5536 38.126 20.6408 37.8129 20.6408H24.299C23.5585 20.6408 23.1891 20.2668 23.1891 19.4886V12.7972H25.2664V18.7122H37.8129V18.7105ZM23.1908 9.16635V2.49502C23.1908 1.71687 23.5602 1.34288 24.3007 1.34288H37.8146C38.1277 1.34288 38.3828 1.43009 38.5832 1.60283C38.7538 1.77556 38.84 2.00532 38.84 2.29377C38.84 2.61074 38.7538 2.8405 38.5832 3.01323C38.3844 3.18597 38.1277 3.27318 37.8146 3.27318H25.2681V9.16635H23.1908ZM79.0637 1.34288C81.083 1.34288 82.6484 1.83258 83.7003 2.8405C84.7522 3.84841 85.2657 5.289 85.2657 7.21761C85.2657 9.14791 84.7539 10.5868 83.7003 11.5947C82.6484 12.6026 81.083 13.1209 79.0637 13.1209H71.2118V19.658C71.2118 20.4362 70.8705 20.8102 70.1599 20.8102C69.4774 20.8102 69.1362 20.4362 69.1362 19.658V2.49167C69.1362 1.71351 69.5056 1.33953 70.246 1.33953H79.0654L79.0637 1.34288ZM78.8931 11.1922C80.2879 11.1922 81.3679 10.8468 82.0786 10.1843C82.7892 9.52189 83.1603 8.54249 83.1603 7.21761C83.1603 5.92125 82.7909 4.91334 82.0786 4.2509C81.3679 3.58846 80.2862 3.2715 78.8931 3.2715H71.2118V11.1922H78.8931ZM103.758 18.9402C103.956 19.2002 104.042 19.4584 104.042 19.7469C104.042 20.0639 103.956 20.3221 103.758 20.5251C103.559 20.7263 103.302 20.8135 102.989 20.8135C102.79 20.8135 102.619 20.785 102.477 20.6978C102.335 20.5821 102.192 20.468 102.05 20.3238L96.3313 12.98H89.9587V19.6614C89.9587 20.4395 89.6174 20.8135 88.9068 20.8135C88.2243 20.8135 87.883 20.4395 87.883 19.6614V2.49502C87.883 1.71687 88.2524 1.34288 88.9929 1.34288H97.6979C99.7172 1.34288 101.255 1.83258 102.306 2.78348C103.358 3.76288 103.872 5.17328 103.872 7.04655C103.872 8.74541 103.444 10.0988 102.591 11.0782C101.738 12.0576 100.486 12.6328 98.8078 12.8056V12.8626L103.758 18.9402ZM97.5273 11.048C98.9221 11.048 100.002 10.7025 100.713 10.0401C101.423 9.37766 101.765 8.42677 101.765 7.16059C101.765 5.89274 101.423 4.91334 100.713 4.2509C100.002 3.58846 98.9205 3.2715 97.5273 3.2715H89.9603V11.048H97.5273Z" fill="#0A6579" stroke="#0A6579" stroke-width="0.284384" stroke-miterlimit="22.9256"/>
<path d="M106.174 10.9919C106.174 9.5228 106.401 8.16942 106.885 6.93175C107.369 5.69408 108.023 4.65598 108.904 3.76379C109.758 2.9001 110.781 2.20916 112.005 1.71946C113.2 1.22976 114.537 1 115.988 1C117.439 1 118.776 1.22976 119.998 1.71946C121.221 2.20916 122.246 2.9001 123.127 3.76379C123.98 4.65598 124.635 5.69408 125.118 6.93175C125.602 8.16942 125.829 9.52448 125.829 10.9919C125.829 12.461 125.602 13.8144 125.118 15.0537C124.635 16.2914 123.98 17.3295 123.127 18.2217C122.246 19.1139 121.221 19.7763 119.998 20.266C118.776 20.7557 117.437 20.9855 115.988 20.9855C114.537 20.9855 113.2 20.7557 112.005 20.266C110.783 19.7763 109.758 19.1139 108.904 18.2217C108.023 17.3295 107.369 16.2914 106.885 15.0537C106.401 13.8161 106.174 12.461 106.174 10.9919ZM108.28 10.9919C108.28 12.1726 108.479 13.2677 108.848 14.2471C109.217 15.255 109.729 16.0902 110.413 16.8096C111.096 17.5291 111.921 18.0775 112.86 18.4515C113.799 18.8539 114.851 19.0569 115.989 19.0569C117.127 19.0569 118.179 18.8556 119.119 18.4515C120.058 18.0775 120.883 17.5291 121.565 16.8096C122.248 16.0902 122.788 15.255 123.159 14.2471C123.528 13.2677 123.727 12.1726 123.727 10.9919C123.727 9.81125 123.528 8.71614 123.159 7.70823C122.789 6.72883 122.248 5.89365 121.565 5.17419C120.883 4.45474 120.058 3.90634 119.119 3.50385C118.179 3.12986 117.127 2.92862 115.989 2.92862C114.851 2.92862 113.799 3.12986 112.86 3.50385C111.921 3.90634 111.096 4.45474 110.413 5.17419C109.731 5.89365 109.219 6.72883 108.848 7.70823C108.479 8.71614 108.28 9.81125 108.28 10.9919Z" fill="#0A6579" stroke="#0A6579" stroke-width="0.284384" stroke-miterlimit="22.9256"/>
<path d="M20.8003 31.1857C21.2277 31.1857 21.569 31.3299 21.7959 31.5882C21.9947 31.8481 22.109 32.1936 22.109 32.5961V49.6753C22.109 50.4534 21.7678 50.8274 21.0853 50.8274C20.3746 50.8274 20.0334 50.4534 20.0334 49.6753V35.0731H19.9771L13.0064 46.2474C12.8639 46.4486 12.7215 46.6213 12.579 46.7371C12.4366 46.8528 12.2096 46.9098 11.9528 46.9098C11.6961 46.9098 11.4691 46.8528 11.2985 46.7371C11.1279 46.6213 10.9854 46.4771 10.8711 46.2759L3.84416 34.9859H3.78784V49.7038C3.78784 50.0492 3.7017 50.3092 3.53108 50.5104C3.33229 50.7402 3.07553 50.8274 2.76245 50.8274C2.44937 50.8274 2.19426 50.7402 2.02198 50.5104C1.8232 50.3092 1.73706 50.0492 1.73706 49.7038V32.6246C1.73706 32.2221 1.85136 31.875 2.0783 31.5882C2.27709 31.3283 2.61833 31.1857 3.04571 31.1857C3.3588 31.1857 3.64372 31.2427 3.8425 31.3584C4.04129 31.5027 4.24007 31.7039 4.41069 31.9639L11.9495 44.089L19.5165 31.9354C19.8296 31.4457 20.257 31.1874 20.797 31.1874L20.8003 31.1857ZM40.6571 48.726C40.9702 48.726 41.2253 48.8133 41.4257 48.986C41.5964 49.1587 41.6825 49.3885 41.6825 49.7054C41.6825 49.9939 41.5964 50.2237 41.4257 50.3964C41.2269 50.5691 40.9702 50.6563 40.6571 50.6563H27.1432C26.4027 50.6563 26.0333 50.2824 26.0333 49.5042V32.5106C26.0333 31.7324 26.4027 31.3584 27.1432 31.3584H40.6571C40.9702 31.3584 41.2253 31.4457 41.4257 31.6184C41.5964 31.7911 41.6825 32.0209 41.6825 32.3093C41.6825 32.6263 41.5964 32.8561 41.4257 33.0288C41.2269 33.2015 40.9702 33.2887 40.6571 33.2887H28.1106V39.9701H38.5517C38.8647 39.9701 39.1198 40.0557 39.3203 40.1999C39.4909 40.3726 39.577 40.6024 39.577 40.9193C39.577 41.2363 39.4909 41.4946 39.3203 41.6388C39.1215 41.8115 38.8647 41.8987 38.5517 41.8987H28.1106V48.7244H40.6571V48.726ZM51.8651 31.3584C53.4587 31.3584 54.88 31.5882 56.1605 32.0209C57.4128 32.4536 58.4647 33.0858 59.346 33.921C60.2273 34.7562 60.8816 35.7641 61.3653 36.9447C61.8209 38.1254 62.0478 39.4788 62.0478 41.0049C62.0478 42.531 61.8209 43.8844 61.3653 45.0667C60.8816 46.2474 60.2273 47.2553 59.346 48.0904C58.4647 48.9256 57.4112 49.5595 56.1605 49.9905C54.88 50.4232 53.4571 50.653 51.8651 50.653H45.6631C44.9227 50.653 44.5532 50.279 44.5532 49.5008V32.5072C44.5532 31.7291 44.9227 31.3551 45.6631 31.3551H51.8651V31.3584ZM52.0076 48.726C53.2301 48.726 54.34 48.5533 55.3356 48.2078C56.3311 47.8624 57.1561 47.3442 57.8386 46.6817C58.5211 46.0193 59.0329 45.2126 59.404 44.2617C59.7734 43.3108 59.944 42.2174 59.944 41.0066C59.944 39.7974 59.7734 38.7023 59.404 37.7514C59.0346 36.8005 58.5227 35.9938 57.8386 35.3314C57.1561 34.669 56.3311 34.1793 55.3356 33.8053C54.34 33.4598 53.2301 33.2871 52.0076 33.2871H46.6305V48.7244H52.0076V48.726ZM66.2322 31.1857C66.9428 31.1857 67.2841 31.5597 67.2841 32.3378V49.6769C67.2841 50.4551 66.9428 50.8291 66.2322 50.8291C65.5497 50.8291 65.2085 50.4551 65.2085 49.6769V32.3378C65.2085 31.5597 65.5497 31.1857 66.2322 31.1857ZM88.5075 46.4788C88.5075 46.7387 88.4511 46.94 88.3368 47.1127C87.54 48.2934 86.46 49.2157 85.0934 49.9352C83.6986 50.6547 82.1067 51.0001 80.2861 51.0001C78.835 51.0001 77.4982 50.7704 76.3038 50.2807C75.0813 49.791 74.0559 49.1285 73.2028 48.2363C72.3216 47.3442 71.6672 46.3061 71.1835 45.0684C70.6998 43.8307 70.4729 42.4757 70.4729 41.0066C70.4729 39.5375 70.6998 38.1841 71.1835 36.9464C71.6672 35.7087 72.3216 34.6706 73.2028 33.7784C74.0559 32.9148 75.0797 32.2238 76.3038 31.7341C77.4982 31.2444 78.835 31.0146 80.2861 31.0146C81.9642 31.0146 83.4435 31.3031 84.7521 31.9068C86.0326 32.5123 87.1127 33.3759 87.9956 34.4694C88.1944 34.6991 88.2805 34.9591 88.2805 35.2475C88.2805 35.536 88.1944 35.7658 88.0238 35.967C87.825 36.1682 87.5964 36.2555 87.2833 36.2555C86.9139 36.2555 86.629 36.1112 86.402 35.7943C85.7477 34.9021 84.8946 34.1809 83.841 33.6912C82.7891 33.2015 81.6213 32.9416 80.2845 32.9416C79.1464 32.9416 78.0946 33.1428 77.1553 33.5168C76.2161 33.9193 75.3911 34.4677 74.7086 35.1872C74.0261 35.9066 73.5143 36.7418 73.1432 37.7212C72.7738 38.7291 72.575 39.8242 72.575 41.0049C72.575 42.1855 72.7738 43.2806 73.1432 44.26C73.5126 45.268 74.0245 46.1031 74.7086 46.8226C75.3911 47.542 76.2161 48.0904 77.1553 48.4644C78.0946 48.8669 79.1464 49.0698 80.2845 49.0698C81.6793 49.0698 82.9018 48.8099 83.9537 48.2632C85.0056 47.7165 85.9167 46.9383 86.6273 45.9304C86.8261 45.6134 87.1392 45.4692 87.5086 45.4692C87.7935 45.4692 88.0204 45.5564 88.2192 45.7577C88.418 45.9589 88.5042 46.1903 88.5042 46.4771L88.5075 46.4788Z" fill="#0A6579" stroke="#0A6579" stroke-width="0.284384" stroke-miterlimit="22.9256"/>
<path d="M99.6028 31.0127C102.363 31.0127 104.468 31.7908 105.947 33.3169C107.427 34.8431 108.167 37.0903 108.167 39.9983V49.675C108.167 50.4531 107.826 50.8271 107.115 50.8271C106.802 50.8271 106.547 50.7399 106.376 50.5101C106.178 50.3089 106.091 50.0489 106.091 49.675V44.5767H93.091V49.7035C93.091 50.0489 93.0049 50.3089 92.8342 50.5101C92.6354 50.7399 92.3787 50.8271 92.0656 50.8271C91.7525 50.8271 91.4974 50.7399 91.3268 50.5101C91.128 50.3089 91.0419 50.0489 91.0419 49.7035V39.9967C91.0419 37.087 91.7807 34.8414 93.2616 33.3153C94.7127 31.7891 96.8463 31.011 99.6061 31.011L99.6028 31.0127ZM106.09 39.9413C106.09 37.6085 105.55 35.8795 104.44 34.6988C103.33 33.5182 101.708 32.9413 99.5746 32.9413C97.441 32.9413 95.8474 33.5165 94.7376 34.6988C93.6277 35.8795 93.0877 37.6085 93.0877 39.9413V42.6481H106.088V39.9413H106.09ZM125.975 48.7257C126.288 48.7257 126.543 48.8129 126.743 48.9857C126.914 49.1584 127 49.3882 127 49.7051C127 49.9936 126.914 50.2233 126.743 50.3961C126.544 50.5688 126.288 50.656 125.975 50.656H112.888C112.148 50.656 111.778 50.282 111.778 49.5039V32.3375C111.778 31.5594 112.119 31.1854 112.802 31.1854C113.513 31.1854 113.854 31.5594 113.854 32.3375V48.7257H125.973H125.975Z" fill="#0A6579" stroke="#0A6579" stroke-width="0.284384" stroke-miterlimit="22.9256"/>
<path d="M24.4467 10.9284L42.1317 11.1414L42.1897 10.2928L42.743 2.14563L57.5904 20.0063L57.2458 8.90752L65.7587 9.01653" stroke="#1EA574" stroke-width="2" stroke-miterlimit="22.9256" stroke-linecap="round" stroke-linejoin="round"/>
</svg>
