<svg width="180" height="73" viewBox="0 0 180 73" fill="none" xmlns="http://www.w3.org/2000/svg">
<path d="M28.0874 16.9513C28.0874 18.7974 27.7668 20.5192 27.1233 22.0381C26.4797 23.5545 25.5951 24.868 24.4297 25.9761C23.2643 27.0842 21.8579 27.9033 20.2104 28.5195C18.6027 29.1762 16.7938 29.4628 14.8655 29.4628C12.7757 29.4628 10.927 29.1356 9.19759 28.4383C7.51034 27.7409 6.06178 26.7976 4.81681 25.5271C3.61162 24.2566 2.68726 22.7784 2.00393 21.0159C1.3206 19.2535 1 17.3239 1 15.2319C1 13.1399 1.3206 11.2126 2.00393 9.4502C2.68726 7.68775 3.61162 6.2095 4.85659 4.93901C6.06178 3.70912 7.508 2.7252 9.23738 2.02787C10.9246 1.33053 12.8131 1.00336 14.8631 1.00336C17.2337 1.00336 19.3235 1.41412 21.1722 2.27385C22.9812 3.13596 24.5069 4.36585 25.6724 5.88232C25.9532 6.25248 26.0749 6.62026 26.0749 6.99042C26.0749 7.36058 25.9532 7.68775 25.7121 7.97433C25.4313 8.26091 25.1084 8.38509 24.6684 8.38509C24.1466 8.38509 23.7838 8.17971 23.503 7.81194C22.5787 6.54145 21.3735 5.51455 19.8851 4.81721C18.3991 4.11988 16.7493 3.74972 14.8608 3.74972C13.2531 3.74972 11.7671 4.03629 10.4402 4.56885C9.11335 5.142 7.94795 5.92292 6.9838 6.94743C6.01965 7.97194 5.29654 9.16123 4.77234 10.5559C4.25049 11.9912 3.96967 13.5506 3.96967 15.2319C3.96967 16.9131 4.25049 18.4726 4.77234 19.8673C5.2942 21.3025 6.01731 22.4918 6.9838 23.5163C7.94795 24.5408 9.11335 25.3218 10.4402 25.8543C11.7671 26.4275 13.2531 26.7164 14.8608 26.7164C16.3468 26.7164 17.6737 26.5111 18.921 26.0597C20.1262 25.6489 21.1722 25.0352 22.0966 24.2543C22.9812 23.4757 23.7043 22.573 24.2659 21.4649C24.7878 20.3568 25.1505 19.1675 25.2698 17.8158H18.1955C17.1916 17.8158 16.7095 17.3645 16.7095 16.4618C16.7095 15.5185 17.1916 15.0671 18.1955 15.0671H26.5148C27.5609 15.0671 28.0827 15.6402 28.0827 16.7483V16.9537L28.0874 16.9513ZM53.0055 26.2197C53.4478 26.2197 53.8081 26.3439 54.0913 26.5899C54.3323 26.8358 54.454 27.163 54.454 27.6144C54.454 28.0251 54.3323 28.3523 54.0913 28.5983C53.8105 28.8443 53.4478 28.9684 53.0055 28.9684H33.9144C32.8684 28.9684 32.3465 28.4359 32.3465 27.3278V17.7991H35.2811V26.2221H53.0055V26.2197ZM32.3488 12.6288V3.1288C32.3488 2.0207 32.8707 1.48815 33.9168 1.48815H53.0078C53.4501 1.48815 53.8105 1.61233 54.0936 1.85831C54.3347 2.10429 54.4564 2.43146 54.4564 2.84222C54.4564 3.29358 54.3347 3.62076 54.0936 3.86673C53.8128 4.11271 53.4501 4.2369 53.0078 4.2369H35.2834V12.6288H32.3488ZM111.28 1.48815C114.133 1.48815 116.344 2.18548 117.83 3.62076C119.316 5.05603 120.042 7.10744 120.042 9.8538C120.042 12.6025 119.319 14.6516 117.83 16.0868C116.344 17.5221 114.133 18.26 111.28 18.26H100.188V27.569C100.188 28.6771 99.7058 29.2096 98.7019 29.2096C97.7377 29.2096 97.2556 28.6771 97.2556 27.569V3.12402C97.2556 2.01593 97.7775 1.48337 98.8235 1.48337H111.283L111.28 1.48815ZM111.039 15.5137C113.01 15.5137 114.535 15.0217 115.539 14.0784C116.543 13.1351 117.067 11.7404 117.067 9.8538C117.067 8.00776 116.546 6.57249 115.539 5.62918C114.535 4.68586 113.007 4.23451 111.039 4.23451H100.188V15.5137H111.039ZM146.165 26.5469C146.446 26.917 146.568 27.2848 146.568 27.6956C146.568 28.1469 146.446 28.5147 146.165 28.8037C145.884 29.0902 145.522 29.2144 145.079 29.2144C144.798 29.2144 144.557 29.1738 144.356 29.0496C144.155 28.8849 143.954 28.7225 143.752 28.5171L135.674 18.0594H126.671V27.5738C126.671 28.6819 126.189 29.2144 125.185 29.2144C124.221 29.2144 123.739 28.6819 123.739 27.5738V3.1288C123.739 2.0207 124.261 1.48815 125.307 1.48815H137.605C140.457 1.48815 142.629 2.18548 144.115 3.53956C145.601 4.93423 146.327 6.94266 146.327 9.6102C146.327 12.0294 145.723 13.9566 144.518 15.3513C143.312 16.746 141.543 17.5651 139.173 17.8111V17.8923L146.165 26.5469ZM137.364 15.3083C139.334 15.3083 140.86 14.8163 141.864 13.873C142.868 12.9297 143.35 11.5756 143.35 9.7726C143.35 7.96717 142.868 6.57249 141.864 5.62918C140.86 4.68586 139.332 4.23451 137.364 4.23451H126.674V15.3083H137.364Z" fill="#0A6579" stroke="#0A6579" stroke-width="0.284384" stroke-miterlimit="22.9256"/>
<path d="M149.58 15.2285C149.58 13.1365 149.9 11.2092 150.584 9.44678C151.267 7.68434 152.191 6.20608 153.436 4.93559C154.641 3.7057 156.088 2.72179 157.817 2.02445C159.504 1.32711 161.393 0.999939 163.443 0.999939C165.493 0.999939 167.381 1.32711 169.108 2.02445C170.835 2.72179 172.284 3.7057 173.529 4.93559C174.734 6.20608 175.658 7.68434 176.342 9.44678C177.025 11.2092 177.346 13.1388 177.346 15.2285C177.346 17.3205 177.025 19.2477 176.342 21.0125C175.658 22.775 174.734 24.2532 173.529 25.5237C172.284 26.7942 170.835 27.7375 169.108 28.4349C167.381 29.1322 165.49 29.4594 163.443 29.4594C161.393 29.4594 159.504 29.1322 157.817 28.4349C156.09 27.7375 154.641 26.7942 153.436 25.5237C152.191 24.2532 151.267 22.775 150.584 21.0125C149.9 19.2501 149.58 17.3205 149.58 15.2285ZM152.554 15.2285C152.554 16.9097 152.835 18.4692 153.357 19.8638C153.878 21.2991 154.602 22.4884 155.568 23.5129C156.532 24.5374 157.698 25.3183 159.024 25.8509C160.351 26.424 161.837 26.713 163.445 26.713C165.053 26.713 166.539 26.4264 167.866 25.8509C169.193 25.3183 170.358 24.5374 171.322 23.5129C172.286 22.4884 173.049 21.2991 173.573 19.8638C174.095 18.4692 174.376 16.9097 174.376 15.2285C174.376 13.5472 174.095 11.9878 173.573 10.5525C173.051 9.15782 172.286 7.96852 171.322 6.94401C170.358 5.9195 169.193 5.13858 167.866 4.56543C166.539 4.03287 165.053 3.7463 163.445 3.7463C161.837 3.7463 160.351 4.03287 159.024 4.56543C157.698 5.13858 156.532 5.9195 155.568 6.94401C154.604 7.96852 153.881 9.15782 153.357 10.5525C152.835 11.9878 152.554 13.5472 152.554 15.2285Z" fill="#0A6579" stroke="#0A6579" stroke-width="0.284384" stroke-miterlimit="22.9256"/>
<path d="M28.9716 43.9839C29.5754 43.9839 30.0575 44.1893 30.3781 44.5571C30.6589 44.9273 30.8204 45.4192 30.8204 45.9924V70.3132C30.8204 71.4213 30.3383 71.9538 29.3741 71.9538C28.3702 71.9538 27.8881 71.4213 27.8881 70.3132V49.5197H27.8086L17.9612 65.4318C17.7599 65.7184 17.5586 65.9644 17.3574 66.1291C17.1561 66.2939 16.8355 66.3751 16.4728 66.3751C16.1101 66.3751 15.7895 66.2939 15.5484 66.1291C15.3074 65.9644 15.1062 65.759 14.9447 65.4724L5.0177 49.3955H4.93814V70.3538C4.93814 70.8457 4.81645 71.2159 4.57541 71.5025C4.29459 71.8296 3.93187 71.9538 3.48958 71.9538C3.04729 71.9538 2.6869 71.8296 2.44352 71.5025C2.1627 71.2159 2.04102 70.8457 2.04102 70.3538V46.033C2.04102 45.4598 2.20249 44.9655 2.52309 44.5571C2.80391 44.1869 3.28598 43.9839 3.88975 43.9839C4.33204 43.9839 4.73454 44.0651 5.01536 44.2299C5.29618 44.4353 5.577 44.7219 5.81804 45.092L16.4681 62.3583L27.158 45.0514C27.6003 44.3541 28.2041 43.9863 28.9669 43.9863L28.9716 43.9839ZM57.0232 68.9615C57.4655 68.9615 57.8259 69.0857 58.109 69.3316C58.35 69.5776 58.4717 69.9048 58.4717 70.3562C58.4717 70.7669 58.35 71.0941 58.109 71.3401C57.8282 71.586 57.4655 71.7102 57.0232 71.7102H37.9321C36.8861 71.7102 36.3642 71.1777 36.3642 70.0696V45.8706C36.3642 44.7625 36.8861 44.2299 37.9321 44.2299H57.0232C57.4655 44.2299 57.8259 44.3541 58.109 44.6001C58.35 44.8461 58.4717 45.1732 58.4717 45.584C58.4717 46.0354 58.35 46.3625 58.109 46.6085C57.8282 46.8545 57.4655 46.9787 57.0232 46.9787H39.2988V56.493H54.0488C54.4911 56.493 54.8515 56.6148 55.1347 56.8202C55.3757 57.0662 55.4974 57.3933 55.4974 57.8447C55.4974 58.2961 55.3757 58.6638 55.1347 58.8692C54.8538 59.1152 54.4911 59.2394 54.0488 59.2394H39.2988V68.9591H57.0232V68.9615ZM72.8567 44.2299C75.108 44.2299 77.1158 44.5571 78.9248 45.1732C80.6939 45.7894 82.1799 46.6897 83.4249 47.879C84.6699 49.0683 85.5942 50.5036 86.2776 52.1848C86.9211 53.8661 87.2417 55.7933 87.2417 57.9665C87.2417 60.1397 86.9211 62.0669 86.2776 63.7506C85.5942 65.4318 84.6699 66.8671 83.4249 68.0564C82.1799 69.2457 80.6916 70.1484 78.9248 70.7621C77.1158 71.3783 75.1056 71.7055 72.8567 71.7055H64.0952C63.0491 71.7055 62.5272 71.1729 62.5272 70.0648V45.8658C62.5272 44.7577 63.0491 44.2251 64.0952 44.2251H72.8567V44.2299ZM73.058 68.9615C74.785 68.9615 76.3529 68.7155 77.7594 68.2235C79.1658 67.7316 80.3312 66.9937 81.2954 66.0503C82.2595 65.107 82.9826 63.9583 83.5068 62.6043C84.0287 61.2502 84.2697 59.6931 84.2697 57.9689C84.2697 56.247 84.0287 54.6876 83.5068 53.3335C82.985 51.9794 82.2618 50.8307 81.2954 49.8874C80.3312 48.9441 79.1658 48.2468 77.7594 47.7142C76.3529 47.2223 74.785 46.9763 73.058 46.9763H65.4618V68.9591H73.058V68.9615ZM93.153 43.9839C94.1569 43.9839 94.639 44.5165 94.639 45.6246V70.3156C94.639 71.4236 94.1569 71.9562 93.153 71.9562C92.1888 71.9562 91.7068 71.4236 91.7068 70.3156V45.6246C91.7068 44.5165 92.1888 43.9839 93.153 43.9839ZM124.621 65.7614C124.621 66.1315 124.542 66.4181 124.38 66.6641C123.255 68.3453 121.729 69.6588 119.798 70.6833C117.828 71.7078 115.579 72.1998 113.007 72.1998C110.957 72.1998 109.068 71.8726 107.381 71.1753C105.654 70.4779 104.206 69.5346 103 68.2641C101.755 66.9937 100.831 65.5154 100.148 63.753C99.4644 61.9905 99.1438 60.0609 99.1438 57.9689C99.1438 55.8769 99.4644 53.9496 100.148 52.1872C100.831 50.4248 101.755 48.9465 103 47.676C104.206 46.4461 105.652 45.4622 107.381 44.7649C109.068 44.0675 110.957 43.7404 113.007 43.7404C115.378 43.7404 117.467 44.1511 119.316 45.0108C121.125 45.873 122.651 47.1029 123.898 48.6599C124.179 48.9871 124.301 49.3573 124.301 49.768C124.301 50.1788 124.179 50.506 123.938 50.7925C123.657 51.0791 123.334 51.2033 122.892 51.2033C122.37 51.2033 121.967 50.9979 121.647 50.5465C120.722 49.2761 119.517 48.2492 118.029 47.5518C116.543 46.8545 114.893 46.4843 113.005 46.4843C111.397 46.4843 109.911 46.7709 108.584 47.3035C107.257 47.8766 106.092 48.6575 105.128 49.682C104.163 50.7066 103.44 51.8958 102.916 53.2905C102.394 54.7258 102.113 56.2852 102.113 57.9665C102.113 59.6477 102.394 61.2072 102.916 62.6019C103.438 64.0371 104.161 65.2264 105.128 66.2509C106.092 67.2755 107.257 68.0564 108.584 68.5889C109.911 69.1621 111.397 69.451 113.005 69.451C114.975 69.451 116.702 69.0809 118.188 68.3024C119.674 67.5238 120.961 66.4157 121.965 64.9805C122.246 64.5291 122.688 64.3237 123.21 64.3237C123.613 64.3237 123.933 64.4479 124.214 64.7345C124.495 65.0211 124.616 65.3506 124.616 65.759L124.621 65.7614Z" fill="#0A6579" stroke="#0A6579" stroke-width="0.284384" stroke-miterlimit="22.9256"/>
<path d="M140.296 43.738C144.195 43.738 147.169 44.8461 149.259 47.0193C151.349 49.1926 152.395 52.3927 152.395 56.5337V70.3132C152.395 71.4213 151.913 71.9539 150.909 71.9539C150.466 71.9539 150.106 71.8297 149.865 71.5025C149.584 71.216 149.463 70.8458 149.463 70.3132V63.0533H131.097V70.3538C131.097 70.8458 130.975 71.216 130.734 71.5025C130.453 71.8297 130.091 71.9539 129.648 71.9539C129.206 71.9539 128.846 71.8297 128.605 71.5025C128.324 71.216 128.202 70.8458 128.202 70.3538V56.5313C128.202 52.3879 129.246 49.1902 131.338 47.017C133.388 44.8438 136.402 43.7357 140.301 43.7357L140.296 43.738ZM149.46 56.4525C149.46 53.1306 148.697 50.6684 147.129 48.9872C145.561 47.3059 143.27 46.4844 140.256 46.4844C137.242 46.4844 134.991 47.3035 133.423 48.9872C131.855 50.6684 131.092 53.1306 131.092 56.4525V60.3069H149.458V56.4525H149.46ZM177.552 68.9616C177.994 68.9616 178.354 69.0857 178.637 69.3317C178.878 69.5777 179 69.9049 179 70.3562C179 70.767 178.878 71.0942 178.637 71.3401C178.357 71.5861 177.994 71.7103 177.552 71.7103H159.064C158.018 71.7103 157.496 71.1777 157.496 70.0696V45.6247C157.496 44.5166 157.978 43.984 158.943 43.984C159.946 43.984 160.429 44.5166 160.429 45.6247V68.9616H177.549H177.552Z" fill="#0A6579" stroke="#0A6579" stroke-width="0.284384" stroke-miterlimit="22.9256"/>
<path d="M34.123 15.1378L59.1066 15.4411L59.1885 14.2327L59.9702 2.6311L80.9451 28.0648L80.4583 12.2601L92.4844 12.4153" stroke="#1EA574" stroke-miterlimit="22.9256" stroke-linecap="round" stroke-linejoin="round"/>
</svg>
