<svg width="24" height="24" viewBox="0 0 24 24" fill="none" xmlns="http://www.w3.org/2000/svg">
<g clip-path="url(#clip0_2077_1480)">
<path d="M21.2966 0.879517H2.73534C1.23742 0.879517 0 2.11693 0 3.61486V10.844H4.39608L7.94552 6.21994C8.33628 5.69893 9.08524 5.60124 9.57369 5.992C9.67139 6.08969 9.76908 6.18738 9.86677 6.31764L15.2072 15.0121L18.0728 11.2999C18.3007 11.0068 18.6264 10.844 19.0171 10.844H23.9994V3.61486C24.0319 2.11693 22.7945 0.879517 21.2966 0.879517Z" fill="#0A6579"/>
<path d="M19.6358 13.1886L16.0538 17.8126C15.8259 18.1057 15.5003 18.2685 15.1095 18.2685H15.0444C14.6536 18.2359 14.2954 18.0405 14.1 17.7149L8.79217 8.98785L5.92657 12.7001C5.69863 12.9932 5.37299 13.156 4.98223 13.156H0V20.3851C0 21.883 1.23742 23.1205 2.73534 23.1205H21.264C22.7619 23.1205 23.9994 21.883 23.9994 20.3851V13.1886H19.6358Z" fill="#0A6579"/>
</g>
<defs>
<clipPath id="clip0_2077_1480">
<rect width="24" height="24" fill="white"/>
</clipPath>
</defs>
</svg>
