<svg width="24" height="24" viewBox="0 0 24 24" fill="none" xmlns="http://www.w3.org/2000/svg">
<g clip-path="url(#clip0_4009_1505)">
<path d="M15.8626 3.75497L6.83569 12.7594C6.83551 12.7595 6.83551 12.7595 6.83533 12.7597C6.83533 12.7599 6.83514 12.7599 6.83514 12.7599L0.205994 19.3891C0.0472419 19.5478 -0.0261834 19.7727 0.00842356 19.9944C0.0428474 20.2162 0.181275 20.4082 0.380494 20.5111C1.05908 20.8614 1.80176 21.0312 2.54114 21.0312C3.77783 21.0312 5.00537 20.5558 5.90698 19.6542L7.70654 17.8546C8.36316 17.198 9.19354 16.7644 10.1078 16.6009C10.3656 16.5548 10.5764 16.3693 10.6547 16.1194C10.7331 15.8696 10.6663 15.5968 10.4811 15.4116L9.0271 13.9576L12.6284 13.9519C12.8141 13.9517 12.9923 13.878 13.1237 13.7467L19.4967 7.39035C20.5018 6.3851 20.5043 4.75198 19.5022 3.75003C18.5004 2.74807 16.8679 2.75027 15.8626 3.75497Z" fill="#0A6579"/>
<path d="M19.0781 19.6238H17.6719C17.2835 19.6238 16.9688 19.9387 16.9688 20.3269C16.9688 20.7153 17.2835 21.03 17.6719 21.03H19.0781C19.4665 21.03 19.7813 20.7153 19.7813 20.3269C19.7813 19.9387 19.4665 19.6238 19.0781 19.6238Z" fill="#0A6579"/>
<path d="M14.8594 19.6238H13.4531C13.0648 19.6238 12.75 19.9387 12.75 20.3269C12.75 20.7153 13.0648 21.03 13.4531 21.03H14.8594C15.2477 21.03 15.5625 20.7153 15.5625 20.3269C15.5625 19.9387 15.2477 19.6238 14.8594 19.6238Z" fill="#0A6579"/>
<path d="M23.2969 19.6238H21.8906C21.5023 19.6238 21.1875 19.9387 21.1875 20.3269C21.1875 20.7153 21.5023 21.03 21.8906 21.03H23.2969C23.6852 21.03 24 20.7153 24 20.3269C24 19.9387 23.6852 19.6238 23.2969 19.6238Z" fill="#0A6579"/>
<path d="M10.6406 19.6238H9.23438C8.84601 19.6238 8.53125 19.9387 8.53125 20.3269C8.53125 20.7153 8.84601 21.03 9.23438 21.03H10.6406C11.029 21.03 11.3438 20.7153 11.3438 20.3269C11.3438 19.9387 11.029 19.6238 10.6406 19.6238Z" fill="#0A6579"/>
</g>
<defs>
<clipPath id="clip0_4009_1505">
<rect width="24" height="24" fill="white"/>
</clipPath>
</defs>
</svg>
