<svg width="25" height="25" viewBox="0 0 25 25" fill="none" xmlns="http://www.w3.org/2000/svg">
<g clip-path="url(#clip0_164_1429)">
<path fill-rule="evenodd" clip-rule="evenodd" d="M12.5 0C5.59668 0 0 5.59668 0 12.5C0 19.4033 5.59668 25 12.5 25C19.4033 25 25 19.4033 25 12.5C25 5.59668 19.4033 0 12.5 0ZM18.2939 8.50098C18.106 10.4775 17.292 15.2739 16.8779 17.4878C16.7026 18.4248 16.3574 18.7388 16.0234 18.7695C15.2979 18.8364 14.7466 18.2896 14.0435 17.8286C12.9434 17.1074 12.3218 16.6587 11.2539 15.9551C10.0195 15.1416 10.8198 14.6948 11.5229 13.9644C11.707 13.7729 14.9053 10.8638 14.9673 10.6001C14.9751 10.5669 14.9824 10.4438 14.9092 10.3789C14.8359 10.314 14.728 10.3364 14.6504 10.354C14.54 10.3789 12.7822 11.5405 9.37793 13.8389C8.87891 14.1816 8.42725 14.3481 8.02197 14.3398C7.57568 14.3301 6.71729 14.0874 6.0791 13.8799C5.29639 13.6255 4.67432 13.4907 4.72852 13.0586C4.75635 12.8335 5.06641 12.6035 5.6582 12.3682C9.30225 10.7803 11.7319 9.73389 12.9478 9.22803C16.4194 7.78423 17.1406 7.5332 17.6108 7.5249C18.1998 7.5145 18.3419 8.00064 18.2939 8.50098Z" fill="#0A6579"/>
</g>
<defs>
<clipPath id="clip0_164_1429">
<rect width="25" height="25" fill="white"/>
</clipPath>
</defs>
</svg>
