<svg width="24" height="24" viewBox="0 0 24 24" fill="none" xmlns="http://www.w3.org/2000/svg">
<g clip-path="url(#clip0_4009_1496)">
<path d="M22.2469 0.00286426C21.9513 0.03851 21.6553 0.0776552 21.3594 0.11995C19.8185 1.42079 20.5677 3.67592 18.4841 3.56288C18.2635 3.55108 18.0943 3.36266 18.1061 3.14213C18.1179 2.92151 18.3071 2.75293 18.5269 2.76413C19.6024 2.82047 19.2349 1.67276 20.1242 0.316076C19.6238 0.403166 18.7384 0.574895 18.5693 0.61729C17.6614 0.828864 16.8146 1.44709 16.039 2.46117C14.4521 6.13217 15.4685 6.08948 16.0075 6.95517C16.1728 6.88188 16.3028 6.741 16.3622 6.55902C16.4306 6.34905 16.6564 6.23421 16.8664 6.3028C17.0764 6.37124 17.1911 6.59702 17.1226 6.80704C16.9827 7.23624 16.6648 7.5623 16.2631 7.71513C16.2863 7.94285 16.2754 8.20952 16.2145 8.52773C16.1779 8.71931 16.0103 8.85269 15.8221 8.85269C15.5716 8.85269 15.3815 8.62492 15.4289 8.37755C15.7204 6.85259 14.3323 7.14675 14.3899 5.31262L12.1971 9.49617L10.6668 8.17883L10.7233 6.91498C10.7287 6.79249 10.6778 6.67401 10.5848 6.59402L6.27729 2.88647L6.34778 2.80448C6.49176 2.637 6.47276 2.38453 6.30528 2.24004C6.1378 2.09606 5.88538 2.11511 5.74135 2.28254L4.92245 3.23392L3.08267 1.65112L3.45263 1.22117C3.59711 1.05369 3.57811 0.801218 3.41063 0.656735C3.24315 0.512753 2.99073 0.5318 2.8467 0.69923L1.58485 2.16505C1.36058 2.42577 1.54961 2.82597 1.88782 2.82597C2.0003 2.82597 2.11179 2.77898 2.19078 2.68699L2.56074 2.25704L4.40001 3.84035L3.58111 4.79174C3.43708 4.95916 3.45613 5.21168 3.62361 5.35617C3.79224 5.50135 4.04541 5.4792 4.18754 5.31367L4.25803 5.23168L8.56601 8.93973C8.6552 9.01667 8.77823 9.05292 8.90397 9.02872L10.1448 8.78475L12.963 11.2105C13.1296 11.3541 13.1487 11.6074 13.005 11.7744C12.861 11.9419 12.6085 11.9608 12.441 11.8169L11.4348 10.9506L10.6217 12.5018C10.9084 13.2499 11.6089 13.3353 12.058 14.0794C12.1766 14.0202 12.2729 13.9047 12.2893 13.7359C12.3107 13.516 12.5065 13.3559 12.7261 13.3765C12.9459 13.3979 13.1068 13.5935 13.0854 13.8133C13.0399 14.2818 12.7359 14.6663 12.3263 14.8342C12.3455 14.9525 12.3579 15.08 12.3623 15.2182C12.3694 15.4435 12.1887 15.6307 11.9623 15.6307C11.7472 15.6307 11.5696 15.4598 11.5627 15.2433C11.5266 14.0922 10.7807 14.1328 10.1804 13.3435L9.20443 15.2055C7.61463 18.2391 3.29665 20.7618 2.0113 21.4627C0.725808 22.1627 1.32389 24.1323 2.78221 23.9929C6.1986 23.661 7.09864 21.8048 9.69687 21.7587C11.3168 21.7305 12.57 20.2434 12.1856 18.6016C12.5555 16.8906 16.6779 14.2604 18.9072 11.3686C18.0697 11.0505 17.0186 12.169 15.4432 11.2465C15.2527 11.1349 15.1886 10.8899 15.3002 10.6993C15.4118 10.5087 15.6569 10.4447 15.8475 10.5563C17.2052 11.3514 18.0838 10.0087 19.382 10.7051C20.2665 9.35908 20.608 8.10108 20.4155 6.88553C20.933 6.95602 21.5054 7.06851 22.2008 7.23599C22.4513 7.29598 22.6943 7.10636 22.6943 6.84704V0.399816C22.6943 0.162245 22.4866 -0.0256323 22.2469 0.00286426Z" fill="#0A6579"/>
</g>
<defs>
<clipPath id="clip0_4009_1496">
<rect width="24" height="24" fill="white"/>
</clipPath>
</defs>
</svg>
