<svg width="24" height="24" viewBox="0 0 24 24" fill="none" xmlns="http://www.w3.org/2000/svg">
<path d="M9 0C7.1 0 5.51 1.33 5.1 3.1C3.33 3.51 2 5.1 2 7V7.02C0.75 7.96 0 9.43 0 11C0 11.89 0.24 12.74 0.69 13.5C0.24 14.26 0 15.11 0 16C0 17.69 0.86 19.24 2.27 20.17C2.99 22.45 5.08 24 7.5 24C7.51 24 7.53 24 7.54 24C9.48 23.99 11 22.3 11 20.36V2.01C11 0.9 10.11 0 9 0ZM13 2.01V20.36C13 22.3 14.52 23.99 16.46 24C16.47 24 16.49 24 16.5 24C18.92 24 21.01 22.44 21.73 20.17C23.14 19.25 24 17.69 24 16C24 15.11 23.76 14.26 23.31 13.5C23.76 12.74 24 11.89 24 11C24 9.43 23.25 7.96 22 7.02V7C22 5.1 20.67 3.51 18.9 3.1C18.49 1.33 16.9 0 15 0C13.89 0 13 0.9 13 2.01Z" fill="#0A6579"/>
</svg>
