<svg width="24" height="24" viewBox="0 0 24 24" fill="none" xmlns="http://www.w3.org/2000/svg">
<g clip-path="url(#clip0_2015_123)">
<path d="M9.38596 3.77102L8.45696 2.29802C8.16196 1.83102 8.30196 1.21402 8.76896 0.919023C9.23596 0.625023 9.85296 0.764023 10.148 1.23102L11.061 2.67902C11.646 2.40002 12.288 2.19002 12.999 2.08602V0.999023C12.999 0.447023 13.447 -0.000976562 13.999 -0.000976562C14.551 -0.000976562 14.999 0.447023 14.999 0.999023V2.08102C15.635 2.17602 16.194 2.37502 16.692 2.65702L17.612 1.27702C17.918 0.817023 18.539 0.693023 18.999 1.00002C19.459 1.30702 19.583 1.92702 19.276 2.38702L17.906 4.44202C14.572 5.24402 12.502 6.93302 11.555 8.09902C10.733 7.28202 9.36396 6.29802 7.40596 6.05702C7.86196 5.34402 8.52396 4.50502 9.38396 3.77102H9.38596ZM22.994 6.00302L21.951 6.00102C14.581 6.00102 12.636 10.018 12.556 10.189C12.447 12.021 11.492 14.814 8.64996 16.567C8.20896 16.839 7.63496 16.737 7.31296 16.331C7.30896 16.326 7.30396 16.32 7.29996 16.315C6.93196 15.848 7.09696 15.171 7.60396 14.861C10.222 13.264 10.498 10.786 10.51 9.91402C10.024 9.31802 8.86696 8.21802 6.99896 8.04102V8.00202C6.99996 2.60502 3.20296 0.421023 1.19596 0.0200234C0.657956 -0.0869766 0.134956 0.260023 0.0229564 0.799023C-0.0880436 1.33802 0.259956 1.86502 0.796956 1.98002C0.968956 2.01602 4.99896 2.93002 4.99896 8.00102V8.31402C3.28096 9.00902 2.01496 10.825 2.00196 12.968C2.03396 18.017 6.25596 22.371 12.532 23.814C13.077 23.939 13.587 24.002 14.067 24.002C14.676 24.002 15.237 23.901 15.76 23.699C18.872 22.493 20.499 18.159 20.498 14.501C20.498 12.496 20.012 11.423 19.543 10.385C19.458 10.197 19.371 10.005 19.285 9.80202C19.03 9.20202 19.172 8.99002 19.219 8.92102C19.393 8.66102 20.28 8.10902 23.018 8.01802C23.561 8.00002 23.999 7.55502 23.999 7.01202C23.999 6.45602 23.55 6.00502 22.994 6.00302Z" fill="#0A6579"/>
</g>
<defs>
<clipPath id="clip0_2015_123">
<rect width="24" height="24" fill="white"/>
</clipPath>
</defs>
</svg>
