<svg width="20" height="20" viewBox="0 0 20 20" fill="none" xmlns="http://www.w3.org/2000/svg">
<path d="M4.99996 10C5.00401 9.5616 5.18066 9.14243 5.49162 8.83335L9.06663 5.25002C9.22276 5.09481 9.43397 5.00769 9.65413 5.00769C9.87428 5.00769 10.0855 5.09481 10.2416 5.25002C10.3197 5.32749 10.3817 5.41965 10.424 5.5212C10.4663 5.62275 10.4881 5.73167 10.4881 5.84168C10.4881 5.95169 10.4663 6.06062 10.424 6.16216C10.3817 6.26371 10.3197 6.35588 10.2416 6.43335L7.49996 9.16668H15.8333C16.0543 9.16668 16.2663 9.25448 16.4225 9.41076C16.5788 9.56704 16.6666 9.779 16.6666 10C16.6666 10.221 16.5788 10.433 16.4225 10.5893C16.2663 10.7456 16.0543 10.8334 15.8333 10.8334H7.49996L10.2416 13.575C10.3985 13.7308 10.4871 13.9426 10.4879 14.1637C10.4887 14.3849 10.4016 14.5973 10.2458 14.7542C10.09 14.9111 9.87821 14.9997 9.65707 15.0005C9.43593 15.0013 9.22355 14.9142 9.06663 14.7584L5.49162 11.175C5.17863 10.8639 5.00182 10.4413 4.99996 10Z" fill="#1EA574"/>
</svg>
